<svg height="110" width="110" xmlns="http://www.w3.org/2000/svg"><circle cx="55" cy="55" fill="#e04f5f" r="55"/><path d="M27 27h32v56H27z" fill="#fbe158"/><path d="M59 27h24v44H59z" fill="#f99134"/><path d="M23 23h64l-4 4H27zm0 64h36v-4H27z" fill="#fff"/><path d="M59 71h24v16H59z" fill="#cfd3d4"/><path d="M79 71H63V58a8 8 0 0 1 16 0z" fill="#fff"/><path d="M66 58a5 5 0 0 1 10 0z" fill="#40c9e7"/><path d="M66 60h10v11H66z" fill="#e2e4e5"/><path d="M59 83h24v2H59zm0-4h24v2H59zm0-4h24v2H59zm0-4h24v2H59z" fill="#f0f1f1"/><path d="M71 43c-2.757 0-5-2.243-5-5s2.243-5 5-5 5 2.243 5 5-2.243 5-5 5z" fill="#40c9e7"/><path d="M71 33c2.757 0 5 2.243 5 5s-2.243 5-5 5-5-2.243-5-5 2.243-5 5-5m0-2a7 7 0 1 0 0 14 7 7 0 0 0 0-14z" fill="#fff"/><g fill="#40c9e7"><path d="M41 78H31V63a5 5 0 0 1 10 0z"/><path d="M31 71h10v7H31zm24 7H45V63a5 5 0 0 1 10 0z"/><path d="M45 71h10v7H45zm10-20H45V36a5 5 0 0 1 10 0z"/><path d="M45 44h10v7H45z"/></g><path d="M55 37.35V36a5 5 0 0 0-10 0v11.35z" fill="#6fdaf1"/><path d="M48.35 44H45v3.35zM41 64.35V63a5 5 0 0 0-10 0v11.35z" fill="#6fdaf1"/><path d="M34.35 71H31v3.35zM55 64.35V63a5 5 0 0 0-10 0v11.35z" fill="#6fdaf1"/><path d="M48.35 71H45v3.35z" fill="#6fdaf1"/><path d="M45 42h10v2H45zM31 69h10v2H31zm14 0h10v2H45zM23 51h36v4H27z" fill="#fff"/><path d="M41 51H31V36a5 5 0 0 1 10 0z" fill="#40c9e7"/><path d="M31 44h10v7H31z" fill="#40c9e7"/><path d="M41 37.35V36a5 5 0 0 0-10 0v11.35z" fill="#6fdaf1"/><path d="M31 42h10v2H31zm52 45h4V65a2 2 0 1 0-4 0z" fill="#fff"/></svg>