<svg height="110" width="110" xmlns="http://www.w3.org/2000/svg"><circle cx="55" cy="55" fill="#32bea6" r="55"/><path d="M71 31h-8v-4a4 4 0 0 0-4-4h-8a4 4 0 0 0-4 4v4h-8a6 6 0 0 0-6 6v44a6 6 0 0 0 6 6h32a6 6 0 0 0 6-6V37a6 6 0 0 0-6-6z" fill="#fff"/><path d="M73 81a2 2 0 0 1-2 2H39a2 2 0 0 1-2-2V37a2 2 0 0 1 2-2h32a2 2 0 0 1 2 2z" fill="#059bbf"/><path d="M55 35H39a2 2 0 0 0-2 2v44a2 2 0 0 0 2 2h16z" fill="#21b2d1"/><path d="M63 42.875l-19.5 19.5h9.75l-3.25 13 19.5-19.5h-9.75z" fill="#fff"/></svg>