<svg version="1" xmlns="http://www.w3.org/2000/svg" width="110" height="110"><circle cx="55" cy="55" r="55" fill="#E04F5F"/><path d="M87 85a2 2 0 0 1-2 2H41a2 2 0 0 1-2-2V41a2 2 0 0 1 2-2h44a2 2 0 0 1 2 2v44z" fill="#F0F1F1"/><path fill="#40C9E7" d="M43 43h40v32H43z"/><path d="M71 69a2 2 0 0 1-2 2H25a2 2 0 0 1-2-2V25a2 2 0 0 1 2-2h44a2 2 0 0 1 2 2v44z" fill="#FFF"/><path fill="#40C9E7" d="M27 27h40v32H27z"/><path fill="#6FDAF1" d="M43.979 45.021L62 27H26.962v26.4l8.664-10.397-.003-.003 3.334-4 .002.003.003-.003z"/><path fill="#84462D" d="M59 31L38 59h29V42.2z"/><path fill="#F0F1F1" d="M58.98 38.979l2.927 4.098 2.926-3.903-5.853-8.195-5.854 7.805 2.927 4.293z"/><path fill="#D4A263" d="M39 39L27 53.4V59h28.667z"/><path d="M49.005 33.037a2.001 2.001 0 0 1-2.001 2.001H34.996a2.001 2.001 0 0 1-2.001-2.001c0-1.241 1.166-2.543 3.336-1.769a6.002 6.002 0 0 1 9.34 0c2.179-.778 3.334.539 3.334 1.769z" fill="#FFF"/><path fill="#EDBC7C" d="M44.017 45.021L30.038 59H27v-5.6l8.664-10.397L38.995 47l3.333-4z"/><path fill="#FFF" d="M38.995 47.038l3.333-4-3.333-4-3.334 4z"/></svg>