<svg version="1" xmlns="http://www.w3.org/2000/svg" width="110" height="110"><circle cx="55" cy="55" r="55" fill="#25B7D3"/><path d="M81.937 24.303A3.977 3.977 0 0 0 79 23H31a4 4 0 0 0-4 4v56a4 4 0 0 0 4 4h48a4 4 0 0 0 4-4V27a3.974 3.974 0 0 0-1.063-2.697z" fill="#F0F1F1"/><path d="M31 29a2 2 0 0 1 2-2h12a2 2 0 0 1 2 2v30.239l4.436-4.436A.98.98 0 0 1 51 54V44a1 1 0 0 1 1-1h10c.338 0 .622.179.803.436l4.632-4.632A.985.985 0 0 1 67 38V28a1 1 0 0 1 1-1h10c.338 0 .622.179.803.436l3.133-3.133A3.973 3.973 0 0 0 79 23H31a4 4 0 0 0-4 4v52.239l4-4V29zm20-1a1 1 0 0 1 1-1h10a1 1 0 0 1 1 1v10a1 1 0 0 1-1 1H52a1 1 0 0 1-1-1V28z" fill="#FFF"/><path d="M45 27H33a2 2 0 0 0-2 2v52a2 2 0 0 0 2 2h12a2 2 0 0 0 2-2V29a2 2 0 0 0-2-2z" fill="#F4D0A1"/><path d="M45 27H33a2 2 0 0 0-2 2v46.239l16-16V29a2 2 0 0 0-2-2z" fill="#F8E1C2"/><path d="M52 39h10a1 1 0 0 0 1-1V28a1 1 0 0 0-1-1H52a1 1 0 0 0-1 1v10a1 1 0 0 0 1 1z" fill="#F79392"/><path d="M78.803 27.436A.982.982 0 0 0 78 27H68a1 1 0 0 0-1 1v10a.98.98 0 0 0 .436.803A.97.97 0 0 0 68 39h10a1 1 0 0 0 1-1V28a.972.972 0 0 0-.197-.564z" fill="#FACB1B"/><path d="M78 27H68a1 1 0 0 0-1 1v10a.98.98 0 0 0 .436.803l11.368-11.368A.986.986 0 0 0 78 27z" fill="#FBE158"/><path d="M62.803 43.436A.982.982 0 0 0 62 43H52a1 1 0 0 0-1 1v10a.98.98 0 0 0 .436.803A.97.97 0 0 0 52 55h10a1 1 0 0 0 1-1V44a.972.972 0 0 0-.197-.564z" fill="#12B2A0"/><path d="M62 43H52a1 1 0 0 0-1 1v10a.98.98 0 0 0 .436.803l11.368-11.368A.986.986 0 0 0 62 43z" fill="#47C4B7"/><path d="M39 43h-4v4l1.876 30.024A2.108 2.108 0 0 0 38.98 79h.04a2.108 2.108 0 0 0 2.104-1.976L43 47v-4h-4z" fill="#84462D"/><path d="M35 43v4l1.876 30.024A2.108 2.108 0 0 0 38.98 79H39V43h-4z" fill="#9C6144"/><path d="M79 54a1 1 0 0 1-1 1H68a1 1 0 0 1-1-1V44a1 1 0 0 1 1-1h10a1 1 0 0 1 1 1v10z" fill="#47C4B7"/><path d="M63 70a1 1 0 0 1-1 1H52a1 1 0 0 1-1-1V60a1 1 0 0 1 1-1h10a1 1 0 0 1 1 1v10zm16 0a1 1 0 0 1-1 1H68a1 1 0 0 1-1-1V60a1 1 0 0 1 1-1h10a1 1 0 0 1 1 1v10z" fill="#40C9E7"/><path d="M79 82a1 1 0 0 1-1 1H52a1 1 0 0 1-1-1v-6a1 1 0 0 1 1-1h26a1 1 0 0 1 1 1v6z" fill="#F4D0A1"/><path d="M39 30s-5 5.687-5 9c0 1.851.713 3.175 1.811 4h6.378C43.287 42.175 44 40.851 44 39c0-3.313-4.999-8.999-5-9z" fill="#3E3E3F"/><path d="M34 39c0 1.851.713 3.175 1.811 4H39V30s-5 5.687-5 9z" fill="#5B5C5F"/><path fill="#F3B607" d="M39 43h-4v4h8v-4z"/><path fill="#FACB1B" d="M35.811 43H35v4h4v-4z"/></svg>