<svg version="1" xmlns="http://www.w3.org/2000/svg" width="110" height="110"><circle cx="55" cy="55" r="55" fill="#32BEA6"/><path d="M68.039 48.86c.614-2.179 1.639-4.503-.039-7.15-4.128-6.548-37.831-6.599-42 0-1.673 2.639-.667 4.922-.039 7.15C24.064 52.85 23 58.621 23 67c0 13.807 10.193 20 24 20s24-6.193 24-20c0-8.379-1.064-14.15-2.961-18.14z" fill="#F0F1F1"/><path d="M26 41.71c-1.673 2.639-.667 4.922-.04 7.15C24.063 52.85 23 58.621 23 67c0 13.807 10.193 20 24 20V36.78c-9.458-.005-18.917 1.632-21 4.93z" fill="#FFF"/><path d="M27 47s-2 14 6 18c0 0 6-3 9-3s5 2 5 2 2-2 5-2 9 3 9 3c8-4 6-18 6-18-13.333-5.333-26.667-5.333-40 0z" fill="#F79392"/><path d="M27 47s-2 14 6 18c0 0 6-3 9-3s5 2 5 2V43c-6.667 0-13.333 1.333-20 4z" fill="#F7B4B4"/><path d="M85 58.54a3.99 3.99 0 0 0-2-.54c-.79 0-1.53.23-2.15.63-2.98-7.55-6.77-12.57-12.24-15.64-.15-.44-.35-.87-.61-1.28-3.89-6.17-34.03-6.57-40.99-1.08C27.19 38.06 29.22 23 53 23c13.92 0 31.81 6.93 32 35.54z" fill="#DF2C2C"/><path d="M47 23.36c-18.133 2.297-19.827 14.935-19.99 17.27 3.265-2.575 11.628-3.854 19.99-3.85V23.36z" fill="#FA5655"/><path d="M87 62c0 2.21-1.79 4-4 4a3.999 3.999 0 1 1 0-8c2.133 0 4 1.725 4 4z" fill="#FFF"/><path d="M47 67s-4 4-8 4c1 2 4 4 8 4s7-2 8-4c-4 0-8-4-8-4z" fill="#F79392"/><path d="M58.869 49.143A2.973 2.973 0 0 0 58 49a3 3 0 1 0 3 3c0-.305-.059-.593-.143-.869-1.151 2.469-4.461-.835-1.988-1.988zm-22 0A2.973 2.973 0 0 0 36 49a3 3 0 1 0 3 3c0-.305-.059-.593-.143-.869-1.151 2.469-4.461-.835-1.988-1.988z" fill="#3E3E3F"/><ellipse cx="47" cy="59.5" rx="6" ry="4.5" fill="#F79392"/></svg>