<svg height="110" width="110" xmlns="http://www.w3.org/2000/svg"><circle cx="55" cy="55" fill="#e04f5f" r="55"/><path d="m27 27h32v56h-32z" fill="#fbe158"/><path d="m59 27h24v44h-24z" fill="#f99134"/><path d="m23 23h64l-4 4h-56zm0 64h36v-4h-32z" fill="#fff"/><path d="m59 71h24v16h-24z" fill="#cfd3d4"/><path d="m79 71h-16v-13a8 8 0 0 1 16 0z" fill="#fff"/><path d="m66 58a5 5 0 0 1 10 0z" fill="#40c9e7"/><path d="m66 60h10v11h-10z" fill="#e2e4e5"/><path d="m59 83h24v2h-24zm0-4h24v2h-24zm0-4h24v2h-24zm0-4h24v2h-24z" fill="#f0f1f1"/><path d="m71 43c-2.757 0-5-2.243-5-5s2.243-5 5-5 5 2.243 5 5-2.243 5-5 5z" fill="#40c9e7"/><path d="m71 33c2.757 0 5 2.243 5 5s-2.243 5-5 5-5-2.243-5-5 2.243-5 5-5m0-2a7 7 0 1 0 0 14 7 7 0 0 0 0-14z" fill="#fff"/><g fill="#40c9e7"><path d="m41 78h-10v-15a5 5 0 0 1 10 0z"/><path d="m31 71h10v7h-10zm24 7h-10v-15a5 5 0 0 1 10 0z"/><path d="m45 71h10v7h-10zm10-20h-10v-15a5 5 0 0 1 10 0z"/><path d="m45 44h10v7h-10z"/></g><path d="m55 37.35v-1.35a5 5 0 0 0 -10 0v11.35z" fill="#6fdaf1"/><path d="m48.35 44h-3.35v3.35zm-7.35 20.35v-1.35a5 5 0 0 0 -10 0v11.35z" fill="#6fdaf1"/><path d="m34.35 71h-3.35v3.35zm20.65-6.65v-1.35a5 5 0 0 0 -10 0v11.35z" fill="#6fdaf1"/><path d="m48.35 71h-3.35v3.35z" fill="#6fdaf1"/><path d="m45 42h10v2h-10zm-14 27h10v2h-10zm14 0h10v2h-10zm-22-18h36v4h-32z" fill="#fff"/><path d="m41 51h-10v-15a5 5 0 0 1 10 0z" fill="#40c9e7"/><path d="m31 44h10v7h-10z" fill="#40c9e7"/><path d="m41 37.35v-1.35a5 5 0 0 0 -10 0v11.35z" fill="#6fdaf1"/><path d="m31 42h10v2h-10zm52 45h4v-22a2 2 0 1 0 -4 0z" fill="#fff"/></svg>