<svg version="1" xmlns="http://www.w3.org/2000/svg" width="110" height="110"><circle cx="55" cy="55" r="55" fill="#E04F5F"/><path fill="#FBE158" d="M27 27h32v56H27z"/><path fill="#F99134" d="M59 27h24v44H59z"/><path fill="#FFF" d="M23 23h64l-4 4H27zm0 64h36v-4H27z"/><path fill="#CFD3D4" d="M59 71h24v16H59z"/><path d="M79 71H63V58a8 8 0 0 1 16 0v13z" fill="#FFF"/><path d="M66 58a5 5 0 0 1 10 0H66z" fill="#40C9E7"/><path fill="#E2E4E5" d="M66 60h10v11H66z"/><path fill="#F0F1F1" d="M59 83h24v2H59zm0-4h24v2H59zm0-4h24v2H59zm0-4h24v2H59z"/><path d="M71 43c-2.757 0-5-2.243-5-5s2.243-5 5-5 5 2.243 5 5-2.243 5-5 5z" fill="#40C9E7"/><path d="M71 33c2.757 0 5 2.243 5 5s-2.243 5-5 5-5-2.243-5-5 2.243-5 5-5m0-2a7 7 0 1 0 0 14 7 7 0 0 0 0-14z" fill="#FFF"/><path d="M41 78H31V63a5 5 0 0 1 10 0v15z" fill="#40C9E7"/><path fill="#40C9E7" d="M31 71h10v7H31zm24 7H45V63a5 5 0 0 1 10 0v15z"/><path fill="#40C9E7" d="M45 71h10v7H45zm10-20H45V36a5 5 0 0 1 10 0v15z"/><path fill="#40C9E7" d="M45 44h10v7H45z"/><path d="M55 37.35V36a5 5 0 0 0-10 0v11.35l10-10z" fill="#6FDAF1"/><path fill="#6FDAF1" d="M48.35 44H45v3.35zM41 64.35V63a5 5 0 0 0-10 0v11.35l10-10z"/><path fill="#6FDAF1" d="M34.35 71H31v3.35zM55 64.35V63a5 5 0 0 0-10 0v11.35l10-10z"/><path fill="#6FDAF1" d="M48.35 71H45v3.35z"/><path fill="#FFF" d="M45 42h10v2H45zM31 69h10v2H31zm14 0h10v2H45zM23 51h36v4H27z"/><path d="M41 51H31V36a5 5 0 0 1 10 0v15z" fill="#40C9E7"/><path fill="#40C9E7" d="M31 44h10v7H31z"/><path d="M41 37.35V36a5 5 0 0 0-10 0v11.35l10-10z" fill="#6FDAF1"/><path fill="#FFF" d="M31 42h10v2H31zm52 45h4V65a2 2 0 1 0-4 0v22z"/></svg>