<svg version="1" xmlns="http://www.w3.org/2000/svg" width="110" height="110"><circle cx="55" cy="55" r="55" fill="#E04F5F"/><path d="M73 81a6 6 0 0 1-6 6H43a6 6 0 0 1-6-6V29a6 6 0 0 1 6-6h24a6 6 0 0 1 6 6v52z" fill="#FFF"/><path fill="#4AC3AF" d="M39 35v30.872L55.171 35z"/><path fill="#21B2D1" d="M39 74.491V75h29.24L47.208 58.822z"/><path fill="#FBE158" d="M59.686 35L48.621 56.124 71 73.338V35z"/><circle cx="48" cy="30" r="1" fill="#B6BCBD"/><path d="M63 30a1 1 0 0 1-1 1H52a1 1 0 0 1 0-2h10a1 1 0 0 1 1 1z" fill="#B6BCBD"/><circle cx="55" cy="81" r="4" fill="#CFD3D4"/><path fill="#FFF" d="M53 79h4v4h-4z"/><path fill="#F0F1F1" d="M48.621 56.124L59.686 35h-4.515L39 65.872v8.619l8.208-15.669L68.24 75H71v-1.662z"/><path d="M68 46.5c0 3.59-6.5 15.6-6.5 15.6S55 50.09 55 46.5a6.5 6.5 0 1 1 13 0z" fill="#DF2C2C"/><circle cx="61.5" cy="46.5" r="2.9" fill="#FFF"/></svg>