<svg version="1" xmlns="http://www.w3.org/2000/svg" width="110" height="110"><circle cx="55" cy="55" r="55" fill="#FABC3D"/><path d="M87 81a2 2 0 0 1-2 2H25a2 2 0 0 1-2-2V41a2 2 0 0 1 2-2h22v-2a2 2 0 0 1 2-2h36a2 2 0 0 1 2 2v44z" fill="#F0F1F1"/><path d="M49 35a2 2 0 0 0-2 2v2H25a2 2 0 0 0-2 2v40c0 .315.079.609.209.874L70.083 35H49z" fill="#FFF"/><path d="M41 39H27v-3a1 1 0 0 1 1-1h12a1 1 0 0 1 1 1v3z" fill="#FFF"/><path d="M83 46a1 1 0 0 1-1 1H72a1 1 0 0 1-1-1v-6a1 1 0 0 1 1-1h10a1 1 0 0 1 1 1v6z" fill="#40C9E7"/><circle cx="33" cy="45" r="2" fill="#5B5C5F"/><path fill="#E2E4E5" d="M29 35h2v4h-2zm4 0h2v4h-2zm4 0h2v4h-2z"/><path fill="#3E3E3F" d="M23 51h64v28H23z"/><path fill="#5B5C5F" d="M23 51v28h3.083l28-28z"/><circle cx="59" cy="63" r="16" fill="#FFF"/><circle cx="59" cy="63" r="12" fill="#21B2D1"/><path d="M59 51c-6.627 0-12 5.373-12 12 0 3.338 1.365 6.355 3.564 8.531L67.53 54.565A11.957 11.957 0 0 0 59 51z" fill="#40C9E7"/><path d="M39 69a2 2 0 1 1-4 0v-4a2 2 0 1 1 4 0v4z" fill="#818284"/></svg>