<svg height="110" width="110" xmlns="http://www.w3.org/2000/svg"><circle cx="55" cy="55" fill="#fabc3d" r="55"/><path d="m67 55c0 17.669-8.008 32-12 32-3.99 0-12-14.328-12-32 0-17.671 8.009-32 12-32s12 14.329 12 32z" fill="#059bbf"/><path d="m57 23.91v62.18c-.73.6-1.41.91-2 .91s-1.27-.31-2-.91v-62.18c.73-.6 1.41-.91 2-.91s1.27.31 2 .91z" fill="#fff"/><path d="m55 51c-4.808 0-8.143 14.963-5.214 18.536a4 4 0 0 0 3.093 1.464h4.242a3.998 3.998 0 0 0 3.093-1.464c2.864-3.494-.362-18.536-5.214-18.536z" fill="#3e3e3f"/><path d="m72.497 39.971 4.95.707 9.192-9.192c-.471-4.243-4.243-8.014-8.485-8.485l-9.192 9.192.707 4.95-32.527 32.526-4.95-.707-9.192 9.192c.472 4.243 4.243 8.014 8.485 8.485l9.192-9.192-.707-4.95z" fill="#e2e4e5"/><path d="m78.154 23-9.192 9.192.707 4.95-32.527 32.527-4.95-.707-9.192 9.192c.237 2.135 1.312 4.15 2.86 5.686l57.98-57.98c-1.536-1.548-3.55-2.623-5.686-2.86z" fill="#fff"/></svg>