<svg height="110" width="110" xmlns="http://www.w3.org/2000/svg"><circle cx="55" cy="55" fill="#25b7d3" r="55"/><path d="M79 39a4 4 0 0 0-4-4H35a4 4 0 0 0-4 4v12h48z" fill="#cfd3d4"/><path d="M75 35H35a4 4 0 0 0-4 4v12h29.744L76.46 35.284A3.983 3.983 0 0 0 75 35z" fill="#f0f1f1"/><path d="M23 75h64v12H23z" fill="#818284"/><path d="M31 51h48l8 20H23z" fill="#f0f1f1"/><path d="M31 51l-8 20h17.744l20-20zm4-8V27l4 4 4-4 4 4 4-4v16z" fill="#fff"/><path d="M23 71h64v4H23z" fill="#cfd3d4"/><path d="M55 39h20v8H55z" fill="#17b198"/><path d="M72.744 39H55v8h9.744z" fill="#4ac3af"/><path d="M69 32h4v3h-4z" fill="#818284"/><path d="M83 24a1 1 0 0 0-1-1H60a1 1 0 0 0-1 1v7a1 1 0 0 0 1 1h22a1 1 0 0 0 1-1z" fill="#3e3e3f"/><g fill="#cfd3d4"><path d="M34 43h18v2H34zm13-7.5c0 .275-.225.5-.5.5h-7a.501.501 0 0 1-.5-.5c0-.275.225-.5.5-.5h7c.275 0 .5.225.5.5zm0 4c0 .275-.225.5-.5.5h-7a.501.501 0 0 1-.5-.5c0-.275.225-.5.5-.5h7c.275 0 .5.225.5.5z"/><circle cx="55" cy="81" r="2"/><circle cx="35" cy="57" r="2"/><circle cx="43" cy="57" r="2"/><circle cx="51" cy="57" r="2"/><circle cx="33" cy="65" r="2"/><circle cx="41" cy="65" r="2"/></g><circle cx="49" cy="65" fill="#b6bcbd" r="2"/><circle cx="61" cy="65" fill="#b6bcbd" r="2"/><circle cx="69" cy="65" fill="#b6bcbd" r="2"/><circle cx="77" cy="65" fill="#17b198" r="2"/><circle cx="59" cy="57" fill="#b6bcbd" r="2"/><circle cx="67" cy="57" fill="#b6bcbd" r="2"/><circle cx="75" cy="57" fill="#fa5655" r="2"/><path d="M74.272 23H60a1 1 0 0 0-1 1v7a1 1 0 0 0 1 1h5.272z" fill="#5b5c5f"/></svg>