<svg height="110" width="110" xmlns="http://www.w3.org/2000/svg"><circle cx="55" cy="55" fill="#32bea6" r="55"/><path d="m84.9 50.69-3.44-10.32a2.01 2.01 0 0 0 -1.9-1.37h-8.56c-1.1 0-2 .9-2 2v24h-40v-19a3 3 0 1 0 -6 0v29c0 1.1.9 2 2 2h58c1.1 0 2-.9 2-2v-23.68c0-.21-.03-.42-.1-.63z" fill="#facb1b"/><path d="m69 43v4c0 .68-.04 1.34-.12 2-1.086 8.205-7.968 14-15.88 14h-8c-8.282 0-14.962-6.274-15.87-14-.09-.66-.13-1.32-.13-2v-4l8-12h24z" fill="#f0f1f1"/><path d="m49 31h-12l-8 12v4c0 .68.04 1.34.13 2 .908 7.726 7.588 14 15.87 14h4z" fill="#fff"/><path d="m79 44a1 1 0 0 1 -1 1h-6a1 1 0 0 1 0-2h6a1 1 0 0 1 1 1zm2 4a1 1 0 0 1 -1 1h-8a1 1 0 0 1 0-2h8a1 1 0 0 1 1 1zm0 4a1 1 0 0 1 -1 1h-8a1 1 0 0 1 0-2h8a1 1 0 0 1 1 1z" fill="#f3b607"/><circle cx="77" cy="81" fill="#3e3e3f" r="6"/><circle cx="77" cy="81" fill="#cfd3d4" r="2"/><path d="m69 43v4c0 .68-.04 1.34-.12 2-.09.68-.22 1.35-.38 2h-39c-.16-.65-.29-1.32-.37-2-.09-.66-.13-1.32-.13-2v-4z" fill="#b6bcbd"/><path d="m49 43h-20v4c0 .68.04 1.34.13 2 .08.68.21 1.35.37 2h19.5z" fill="#cfd3d4"/><path d="m49 65h-20v-19a3 3 0 1 0 -6 0v29c0 1.1.9 2 2 2h24z" fill="#fbe158"/><circle cx="33" cy="81" fill="#3e3e3f" r="6"/><circle cx="33" cy="81" fill="#cfd3d4" r="2"/></svg>