<svg height="110" width="110" xmlns="http://www.w3.org/2000/svg"><circle cx="55" cy="55" fill="#fabc3d" r="55"/><path d="m55 23c-12 0-31.695 14.003-32 30-.219 11.479 4 22 32 22 26 0 32-11.57 32-22 0-16-20-30-32-30z" fill="#fff"/><ellipse cx="55" cy="83" fill="#f0f1f1" rx="20" ry="4"/><path d="m51 75h8v7c-2.667 1.333-5.333 1.333-8 0zm4-46c-9 0-24 11-24 22s9 12 9 12h30s9-1 9-12-15-22-24-22z" fill="#cfd3d4"/><path d="m55 51c-9.705 0-18.211 2.277-22.97 5.693 2.361 5.679 7.97 6.307 7.97 6.307h30s5.609-.628 7.97-6.307c-4.759-3.416-13.265-5.693-22.97-5.693z" fill="#f37a10"/><path d="m35 83c0 2.209 8.954 4 20 4v-8c-11.046 0-20 1.791-20 4z" fill="#fff"/><path d="m51 75v7c1.333.667 2.667 1 4 1v-8z" fill="#f0f1f1"/></svg>