<svg height="110" width="110" xmlns="http://www.w3.org/2000/svg"><circle cx="55" cy="55" fill="#e04f5f" r="55"/><path d="m23 26.84a3.84 3.84 0 0 1 3.84-3.84h28.16l16 13.44v46.72a3.84 3.84 0 0 1 -3.84 3.84h-40.32a3.84 3.84 0 0 1 -3.84-3.84z" fill="#fff"/><path d="m55 23v9.6a3.84 3.84 0 0 0 3.84 3.84h12.16z" fill="#f0f1f1"/><path d="m77 41.5 5-10.5 5 10.5v38.5h-10z" fill="#f4d0a1"/><path d="m87 47v-5.5l-5-10.5v16z" fill="#edbc7c"/><path d="m87 84a3 3 0 0 1 -3 3h-4a3 3 0 0 1 -3-3v-2h10z" fill="#f79392"/><path d="m62 45c0 .55-.45 1-1 1h-15c-.55 0-1-.45-1-1s.45-1 1-1h15c.55 0 1 .45 1 1zm-6 5c0 .55-.45 1-1 1h-9c-.55 0-1-.45-1-1s.45-1 1-1h9c.55 0 1 .45 1 1zm6 8c0 .55-.45 1-1 1h-15c-.55 0-1-.45-1-1s.45-1 1-1h15c.55 0 1 .45 1 1zm-6 5c0 .55-.45 1-1 1h-9c-.55 0-1-.45-1-1s.45-1 1-1h9c.55 0 1 .45 1 1zm6 8c0 .55-.45 1-1 1h-15c-.55 0-1-.45-1-1s.45-1 1-1h15c.55 0 1 .45 1 1zm-6 5c0 .55-.45 1-1 1h-9c-.55 0-1-.45-1-1s.45-1 1-1h9c.55 0 1 .45 1 1z" fill="#e2e4e5"/><path d="m35.067 52-3.774-3.774a.999.999 0 1 1 1.414-1.414l2.226 2.226 4.299-5.159a.999.999 0 1 1 1.536 1.28zm0 13-3.774-3.774a.999.999 0 1 1 1.414-1.414l2.226 2.226 4.299-5.159a.999.999 0 1 1 1.536 1.28zm0 13-3.774-3.774a.999.999 0 1 1 1.414-1.414l2.226 2.226 4.299-5.159a.999.999 0 1 1 1.536 1.28z" fill="#17b198"/><path d="m77 79h10v3h-10z" fill="#facb1b"/><path d="m77 80h5v2h-5z" fill="#fbe158"/><path d="m82.013 30.984-1.857 3.899c.512.678 1.152 1.101 1.857 1.101s1.345-.422 1.857-1.101z" fill="#3e3e3f"/><path d="m84.5 43a2.5 2.5 0 0 1 -2.413-1.845c-.026-.097-.147-.097-.173 0a2.502 2.502 0 0 1 -4.736.274.092.092 0 0 0 -.178.035v38.536h10v-38.536a.092.092 0 0 0 -.178-.034 2.502 2.502 0 0 1 -2.322 1.57z" fill="#0484ab"/><path d="m77 80v-38.507c0-.111.147-.139.19-.036a2.5 2.5 0 0 0 4.727-.316c.014-.052.083-.045.083.009v38.85z" fill="#21b2d1"/><path d="m77 82v2a3 3 0 0 0 3 3h2v-5z" fill="#f7b4b4"/></svg>