<svg height="110" width="110" xmlns="http://www.w3.org/2000/svg"><circle cx="55" cy="55" fill="#e04f5f" r="55"/><path d="M83 39L27 59v26a2 2 0 0 0 2.673 1.884L83 67.838z" fill="#fbe158"/><path d="M83 39L27 59l28-36c12.21 0 23.326 7.413 28 16z" fill="#fcf6c2"/><g fill="#f3b607"><circle cx="52" cy="70" r="1"/><circle cx="78" cy="46" r="1"/><circle cx="71" cy="55" r="4"/><circle cx="40" cy="58" r="1"/><path d="M44.6 78.831a.347.347 0 0 0-.07.068c-.721.955-.637 1.928-.159 2.601l3.616-1.291c-.103-1.477-1.79-2.518-3.387-1.378z"/><circle cx="64" cy="65" r="2"/><circle cx="37" cy="69" r="2"/></g><ellipse cx="58" cy="30.5" fill="#facb1b" rx="3" ry="1.5"/><ellipse cx="51.5" cy="41.25" fill="#facb1b" rx="2.5" ry="1.25"/><ellipse cx="66.5" cy="37" fill="#facb1b" rx="4.5" ry="2"/><ellipse cx="42" cy="48" fill="#facb1b" rx="2" ry="1"/></svg>