<svg version="1" xmlns="http://www.w3.org/2000/svg" width="110" height="110"><circle cx="55" cy="55" r="55" fill="#25B7D3"/><path d="M23 27a4 4 0 0 1 4-4h56a4 4 0 0 1 4 4v56a4 4 0 0 1-4 4H27a4 4 0 0 1-4-4V27z" fill="#84462D"/><path fill="#FFF" d="M27 27h56v56H27z"/><path fill="#3E3E3F" d="M27 69h14v14H27zm14-14h14v14H41zm14-14h14v14H55zm0 28h14v14H55zm14-42h14v14H69z"/><path fill="#5B5C5F" d="M41 27h14v14H41z"/><path fill="#3E3E3F" d="M55 41H41l14-14z"/><path fill="#5B5C5F" d="M27 41h14v14H27z"/><path fill="#3E3E3F" d="M41 55H27l14-14zm28 0h14v14H69z"/><circle cx="48" cy="62" r="4" fill="#FFF"/><circle cx="76" cy="62" r="4" fill="#FFF"/><circle cx="62" cy="76" r="4" fill="#FFF"/><circle cx="34" cy="76" r="4" fill="#FFF"/></svg>