<svg version="1" xmlns="http://www.w3.org/2000/svg" width="110" height="110"><circle cx="55" cy="55" r="55" fill="#25B7D3"/><path d="M79 47.006C80.199 36.219 69.636 27 59 27c-9.324 0-18.992 7.09-19.908 16.173C30.425 41.871 23 48.603 23 57c0 7.732 6.268 14 14 14h38c6.627 0 12-5.373 12-12 0-6.735-5-11.994-8-11.994z" fill="#F0F1F1"/><path d="M59 27c-9.324 0-18.992 7.09-19.908 16.173C30.425 41.871 23 48.603 23 57c0 7.732 6.268 14 14 14h.747l36.842-36.842C70.729 29.818 64.877 27 59 27z" fill="#FFF"/><path d="M47 57.692v19.541c-3.922-.925-8 1.018-8 3.768 0 2.209 2.687 4 6 4s6-1.791 6-4V60.308l12-5.25v14.174c-3.922-.925-8 1.018-8 3.768 0 2.209 2.687 4 6 4s6-1.791 6-4V48.942l-20 8.75z" fill="#3E3E3F"/></svg>