<svg version="1" xmlns="http://www.w3.org/2000/svg" width="110" height="110"><circle cx="55" cy="55" r="55" fill="#32BEA6"/><path d="M87 76.008C87 82.079 82.079 87 76.008 87H23V65.016h53.008C82.079 65.016 87 69.937 87 76.008z" fill="#3E3E3F"/><path d="M83 76.016a7 7 0 0 1-7 7H23v-14h53a7 7 0 0 1 7 7z" fill="#818284"/><circle cx="34" cy="76" r="7" fill="#F0F1F1"/><path d="M60 62.364a2.652 2.652 0 0 1-2.652 2.652H25.652A2.652 2.652 0 0 1 23 62.364V33.652A2.652 2.652 0 0 1 25.652 31h31.696A2.652 2.652 0 0 1 60 33.652v28.712z" fill="#EDBC7C"/><path d="M57.348 31H25.652A2.652 2.652 0 0 0 23 33.652v28.712c0 .946.499 1.77 1.244 2.24l34.708-33.05A2.626 2.626 0 0 0 57.348 31zM49.52 54.407h7.956v5.304H49.52z" fill="#F4D0A1"/><path fill="#FCF1E2" d="M46.868 41.147l-2.652-2.652-2.652 2.652-2.652-2.652-2.652 2.652V31h10.608z"/><path d="M79 63.643c0 .749-.608 1.357-1.357 1.357H61.357A1.358 1.358 0 0 1 60 63.643V48.714c0-.75.608-1.357 1.357-1.357h16.286c.75 0 1.357.608 1.357 1.357v14.929z" fill="#EDBC7C"/><path d="M77.643 47.357H61.357c-.75 0-1.357.608-1.357 1.357v14.929c0 .484.255.906.637 1.146L78.464 47.64a1.346 1.346 0 0 0-.821-.283zm-4.072 12.214h4.071v2.714h-4.071z" fill="#F4D0A1"/><path fill="#FCF1E2" d="M72.214 52.786l-1.357-1.357-1.357 1.357-1.357-1.357-1.357 1.357v-5.429h5.428z"/><circle cx="34" cy="76" r="5" fill="#B6BCBD"/><circle cx="34" cy="76.016" r="2" fill="#5B5C5F"/><circle cx="55" cy="76.016" r="7" fill="#F0F1F1"/><circle cx="55" cy="76" r="5" fill="#B6BCBD"/><circle cx="55" cy="76.016" r="2" fill="#5B5C5F"/><circle cx="76" cy="76.016" r="7" fill="#F0F1F1"/><circle cx="76" cy="76" r="5" fill="#B6BCBD"/><circle cx="76" cy="76.016" r="2" fill="#5B5C5F"/></svg>