<svg height="110" width="110" xmlns="http://www.w3.org/2000/svg"><circle cx="55" cy="55" fill="#32bea6" r="55"/><path d="m83.879 79.879a3 3 0 0 0 -2.122-.879h-53.514c-.795 0-1.559.316-2.122.879l-3.121 3.121v4h64v-4z" fill="#edbc7c"/><path d="m23 83 3.121-3.121a3 3 0 0 1 2.122-.879h53.515c.796 0 1.559.316 2.121.879l3.121 3.121z" fill="#f8e1c2"/><circle cx="31" cy="31" fill="#facb1b" r="8"/><path d="m76 35c-3.59 0-6 2.81-6 5.94v4.08c0 1.09-.89 1.98-1.98 1.98h-.04c-1.09 0-1.98-.89-1.98-1.98v-14.02c0-4.42-3.58-8-8-8s-8 3.58-8 8v22.02c0 1.09-.89 1.98-1.98 1.98h-.04c-1.09 0-1.98-.89-1.98-1.98v-4.08c0-3.248-2.54-5.94-6-5.94-3.427 0-6 2.658-6 5.94v10.21c0 12.02 16 7.68 16 19.85v4h16v-12c0-12.17 16-7.83 16-19.85v-10.21c0-3.28-2.72-5.94-6-5.94z" fill="#107665"/><path d="m50 31v22.02c0 1.09-.89 1.98-1.98 1.98h-.04c-1.09 0-1.98-.89-1.98-1.98v-4.08c0-3.248-2.54-5.94-6-5.94-3.427 0-6 2.658-6 5.94v10.21c0 12.02 16 7.68 16 19.85v4h8v-60c-4.42 0-8 3.58-8 8z" fill="#0d9681"/></svg>