<svg version="1" xmlns="http://www.w3.org/2000/svg" width="110" height="110"><circle cx="55" cy="55" r="55" fill="#E04F5F"/><path d="M34.08 74.21l-1.46 1.37 6.494 6.495a11.87 11.87 0 0 0 1.037-1.793m.681-6.39L37.74 70.8l-1.47 1.36 4.735 4.734c.005-.112.025-.221.025-.334 0-.83-.084-1.732-.198-2.668zm9.913-6.836L46.39 62.7l-1.46 1.37 2.979 2.979c.942.051 1.889.055 2.836.007zm-.705-7.776l-1.46 1.37 5.872 5.872a16.91 16.91 0 0 0 2.156-.674M53.69 55.86l-1.46 1.37 7.185 7.185a17.923 17.923 0 0 0 1.649-1.181M57.34 52.44l-1.45 1.37m8.672 5.852L57.34 52.44l-1.45 1.37 7.375 7.375c.472-.506.908-1.013 1.297-1.523zM61 49.02l-1.47 1.37 6.684 6.684c.34-.66.617-1.323.853-1.987L61 49.02zm2.19-2.05l4.699 4.699c.119-.876.18-1.753.189-2.631L64.65 45.61m0 0l-1.46 1.36m10.67-9.98l-1.46 1.37 2.632 2.632a18.61 18.61 0 0 0 1.498.068c.434 0 .861-.045 1.283-.117M76.05 34.94l4.859 4.859c.59-.331 1.155-.715 1.699-1.131L77.51 33.57l-1.46 1.37" fill="#FACB1B"/><path d="M84.86 36.66c-2.22 2.29-5.12 4.4-8.33 4.4-1.841 0-3.968-.351-6.281-.742-.226-1.586-.429-3.133-.522-4.632L72.4 38.36l1.46-1.37-4.145-4.145c.081-1.228.288-2.414.689-3.551l5.646 5.646 1.46-1.37-6.198-6.199a11.391 11.391 0 0 1 1.769-2.261L70.93 23c-5.128 5.127-4.674 10.867-3.809 16.81-6.781-1.01-14.672-1.289-21.651 5.69-6.563 6.563-6.703 13.93-5.857 20.428-2.05-.338-4.005-.618-5.813-.618-4.37 0-8.12 2.79-10.82 5.66l2.13 2.11a21.26 21.26 0 0 1 2.62-2.39l4.89 4.89 1.46-1.37-4.641-4.641c.979-.547 2.011-.965 3.091-1.149l3.74 3.74 1.47-1.36-2.42-2.419c1.462.121 3.062.385 4.764.673.463 2.788.945 5.342.945 7.507 0 3.32-2.06 6.12-4.23 8.13l2.14 2.12c2.59-2.45 5.09-5.92 5.09-10.25 0-2.158-.394-4.52-.81-6.997 6.778 1.011 14.659 1.289 21.641-5.693 6.81-6.81 6.666-13.87 5.821-20.435 2.064.341 4.031.625 5.849.625 4.2 0 7.81-2.56 10.47-5.31l-2.14-2.091zM62.74 61.75c-6.31 6.31-13.487 5.744-20.021 4.695-.241-1.654-.423-3.343-.456-5.042l2.666 2.667 1.46-1.37-4.027-4.027c.113-1.191.33-2.38.68-3.561l5.538 5.538 1.46-1.37-6.235-6.236c.407-.913.915-1.817 1.53-2.71l6.896 6.896 1.46-1.37-7.13-7.13c.321-.373.664-.743 1.03-1.11.363-.362.729-.695 1.096-1.014l7.204 7.204 1.45-1.37-7.061-7.061a16.968 16.968 0 0 1 2.71-1.53l6.542 6.542L61 49.02l-5.95-5.95a18.673 18.673 0 0 1 3.556-.684l4.583 4.583 1.46-1.359-3.329-3.33c2.119.036 4.221.313 6.26.639.895 6.288 1.261 12.72-4.84 18.831z" fill="#FBEC9A"/></svg>