<svg height="110" width="110" xmlns="http://www.w3.org/2000/svg"><circle cx="55" cy="55" fill="#25b7d3" r="55"/><path d="m55 27c15.439 0 28 12.561 28 28s-12.561 28-28 28-28-12.561-28-28 12.561-28 28-28m0-4c-17.673 0-32 14.327-32 32s14.327 32 32 32 32-14.327 32-32-14.327-32-32-32z" fill="#fbec9a"/><path d="m55 83c-15.439 0-28-12.561-28-28s12.561-28 28-28 28 12.561 28 28-12.561 28-28 28z" fill="#facb1b"/><path d="m55 27c-15.439 0-28 12.561-28 28 0 7.946 3.333 15.124 8.667 20.225l39.558-39.558c-5.101-5.335-12.279-8.667-20.225-8.667z" fill="#fbe158"/><path d="m27 55c0-15.439 12.561-28 28-28 7.925 0 15.086 3.315 20.185 8.625l2.838-2.838c-5.82-6.03-13.981-9.787-23.023-9.787-17.673 0-32 14.327-32 32 0 9.042 3.757 17.203 9.787 23.022l2.838-2.838c-5.31-5.098-8.625-12.259-8.625-20.184z" fill="#fcf6c2"/><path d="m69.377 66.761c-2.592 3.36-5.809 5.617-10.753 5.617-7.105 0-12.097-4.561-13.921-11.377h-2.592a2.049 2.049 0 0 1 -2.064-2.064c0-1.104.912-2.064 2.064-2.064h1.872c-.048-.576-.048-1.2-.048-1.824 0-.72 0-1.488.096-2.208h-1.92c-1.152 0-2.064-.912-2.064-2.017 0-1.152.912-2.064 2.064-2.064h2.688c1.872-6.48 6.817-11.137 13.633-11.137 5.088 0 8.161 2.016 10.657 4.896.384.384.768 1.104.768 1.968 0 1.536-1.296 2.784-2.832 2.784-1.008 0-1.68-.48-2.064-.96-1.824-2.208-3.696-3.408-6.673-3.408-3.456 0-6.048 2.256-7.393 5.856h8.545c1.104 0 2.016.912 2.016 2.064a2.029 2.029 0 0 1 -2.016 2.017h-9.457c-.096.672-.096 1.392-.096 2.112 0 .672 0 1.296.048 1.92h9.505c1.104 0 2.016.96 2.016 2.064 0 1.152-.912 2.064-2.016 2.064h-8.64c1.344 3.84 4.08 6.096 7.873 6.096 2.88 0 4.752-1.392 6.576-3.648.48-.576 1.152-.96 2.064-.96 1.44 0 2.64 1.152 2.64 2.592 0 .721-.288 1.345-.576 1.681z" fill="#8e6134"/></svg>