<svg height="110" width="110" xmlns="http://www.w3.org/2000/svg"><circle cx="55" cy="55" fill="#fabc3d" r="55"/><path d="m86.98 63.654c-3.549-24.836-2.946-35.479-11.629-35.652-5.964-.111-7.421 4.957-7.493 10.896a2 2 0 0 0 1.959 2.04c1.082.002 2.018-.855 2.04-1.959.049-3.746.217-7.044 3.414-6.977 3.756.075 4.365 6.102 6.436 22.413a13.641 13.641 0 0 0 -8.421-2.905c-5.475 0-10.187 3.216-12.386 7.855a13.613 13.613 0 0 0 -11.8 0c-2.199-4.639-6.911-7.855-12.386-7.855a13.641 13.641 0 0 0 -8.421 2.905c2.071-16.303 2.679-22.338 6.436-22.413 3.35-.074 3.371 3.656 3.414 6.977a2.016 2.016 0 0 0 2.04 1.959 1.999 1.999 0 0 0 1.959-2.04c-.072-5.972-1.541-11-7.493-10.896-8.68.173-8.077 10.797-11.629 35.652l-.02 1.569c0 7.574 6.14 13.714 13.714 13.714s13.714-6.14 13.714-13.714c0-.46-.025-.915-.069-1.363 1.359-.806 2.945-1.269 4.64-1.269s3.281.463 4.64 1.269c-.044.448-.069.903-.069 1.363 0 7.574 6.14 13.714 13.714 13.714s13.716-6.14 13.716-13.714z" fill="#3e3e3f"/><circle cx="73.286" cy="65.223" fill="#6fdaf1" r="11.429"/><circle cx="36.714" cy="65.223" fill="#6fdaf1" r="11.429"/><path d="m44.597 56.961a11.377 11.377 0 0 0 -7.882-3.167c-6.312 0-11.429 5.117-11.429 11.429 0 2.358.715 4.548 1.939 6.368zm36.571 0a11.377 11.377 0 0 0 -7.882-3.167c-6.312 0-11.429 5.117-11.429 11.429 0 2.358.715 4.548 1.939 6.368z" fill="#9ce5f4"/></svg>