<svg height="110" width="110" xmlns="http://www.w3.org/2000/svg"><circle cx="55" cy="55" fill="#fabc3d" r="55"/><path d="m55 27c-13 0-25 13-25 33 0 24.728 17.842 23 25 23s25 1.728 25-23c0-20-12-33-25-33z" fill="#059bbf"/><path d="m30 60c0 24.728 17.842 23 25 23v-56c-13 0-25 13-25 33z" fill="#21b2d1"/><path d="m64.668 37.88c-4.336 0-8.058 2.625-9.668 6.372-1.61-3.747-5.332-6.372-9.668-6.372-5.811 0-10.521 4.71-10.521 10.521 0 5.81 4.71 10.521 10.521 10.521 4.336 0 8.058-2.625 9.668-6.372 1.61 3.747 5.332 6.372 9.668 6.372 5.811 0 10.521-4.71 10.521-10.521 0-5.81-4.71-10.521-10.521-10.521z" fill="#6fdaf1"/><circle cx="55" cy="63.581" fill="#facb1b" r="6.5"/><path d="m48.5 63.581a6.5 6.5 0 0 0 6.5 6.5v-13a6.5 6.5 0 0 0 -6.5 6.5z" fill="#fbe158"/><path d="m50.727 39.375a10.564 10.564 0 0 1 4.273 4.877 10.565 10.565 0 0 1 4.409-4.962c-.192-2.516-2.616-3.619-2.616-3.619s-.375 1-.875 2.625c-.625-3.125-5.25-4.5-5.25-4.5s.202 1.531.059 5.579z" fill="#3e3e3f"/><path d="m77.337 44.769c5.35-2.729 8.795-12.01 9.53-19.1a2.24 2.24 0 0 0 -2.487-2.454c-9.794 1.141-15.228 4.694-17.153 7.882 4.259 3.057 7.835 7.723 10.11 13.672z" fill="#0484ab"/><path d="m75.25 29c-.551-.482 7.208-4.095 8.5-2.875 2.25 2.125-5 12.625-5 12.625s3.167-7.916 2-9.375c-1-1.25-4.5.5-5.5-.375z" fill="#6fdaf1"/><path d="m32.663 44.769c2.274-5.949 5.851-10.615 10.11-13.672-1.926-3.187-7.359-6.741-17.153-7.882a2.24 2.24 0 0 0 -2.487 2.454c.735 7.09 4.18 16.372 9.53 19.1z" fill="#0484ab"/><path d="m41.222 79c-14.004 0-8.516 10.113-4.477 6.074 1.142 2.513 6.34 2.813 7.852-.074.37 1.704 1.638 2 2.847 2 6.063 0 4.417-8-6.222-8zm27.556 0c14.004 0 8.516 10.113 4.477 6.074-1.142 2.513-6.34 2.813-7.852-.074-.37 1.704-1.638 2-2.847 2-6.063 0-4.417-8 6.222-8z" fill="#fff"/><path d="m59.5 63.665a4.5 4.5 0 0 1 -9 0z" fill="#fa5655"/><circle cx="45.551" cy="47.89" fill="#fff" r="6.502"/><path d="m47.338 48.424c0-.776.629-1.404 1.404-1.404.059 0 .115.01.172.017a3.279 3.279 0 0 0 -3.071-2.142 3.288 3.288 0 1 0 0 6.576 3.273 3.273 0 0 0 2.834-1.648 1.404 1.404 0 0 1 -1.339-1.399z" fill="#3e3e3f"/><circle cx="64.887" cy="47.89" fill="#fff" r="6.502"/><path d="m66.674 48.424c0-.776.628-1.404 1.404-1.404.059 0 .115.01.172.017a3.279 3.279 0 0 0 -3.071-2.142 3.288 3.288 0 1 0 0 6.576 3.273 3.273 0 0 0 2.834-1.648 1.404 1.404 0 0 1 -1.339-1.399z" fill="#3e3e3f"/><path d="m34.75 29c.551-.482-7.208-4.095-8.5-2.875-2.25 2.125 5 12.625 5 12.625s-3.167-7.916-2-9.375c1-1.25 4.5.5 5.5-.375z" fill="#6fdaf1"/><path d="m39.572 45.333h11.958a6.502 6.502 0 0 0 -11.958 0zm19.336 0h11.958a6.502 6.502 0 0 0 -11.958 0z" fill="#21b2d1"/></svg>