<svg height="110" width="110" xmlns="http://www.w3.org/2000/svg"><circle cx="55" cy="55" fill="#e04f5f" r="55"/><path d="m45.234 60.033a1.146 1.146 0 0 0 -1.087-.784h-7.515c-.493 0-.931.316-1.087.784l-4.071 12.213a.572.572 0 0 0 .543.754h16.745a.575.575 0 0 0 .544-.754zm8.945-13.751a1.146 1.146 0 0 0 -1.087-.784h-7.515c-.493 0-.931.316-1.087.784l-4.071 12.213a.572.572 0 0 0 .544.754h16.745a.575.575 0 0 0 .544-.754z" fill="#f3b607"/><path d="m63.125 60.033a1.146 1.146 0 0 0 -1.087-.784h-7.515c-.493 0-.931.316-1.087.784l-4.071 12.213a.572.572 0 0 0 .543.754h16.745a.575.575 0 0 0 .544-.754z" fill="#f3b607"/><path d="m44.147 59.249h-7.515c-.493 0-.931.316-1.087.784l-4.071 12.213a.559.559 0 0 0 .235.659l13.275-13.275a1.136 1.136 0 0 0 -.837-.381zm8.934-13.751h-7.515c-.493 0-.931.316-1.087.784l-4.071 12.213a.559.559 0 0 0 .235.659l13.275-13.275a1.134 1.134 0 0 0 -.837-.381z" fill="#fbe158"/><path d="m62.9 32.532a1.146 1.146 0 0 0 -1.087-.784h-7.515c-.493 0-.931.316-1.087.784l-4.071 12.213a.572.572 0 0 0 .544.754h16.745a.575.575 0 0 0 .544-.754z" fill="#f3b607"/><path d="m61.801 31.748h-7.515c-.493 0-.931.316-1.087.784l-4.071 12.213a.559.559 0 0 0 .235.659l13.275-13.275a1.134 1.134 0 0 0 -.837-.381z" fill="#fbe158"/><path d="m71.9 46.282a1.146 1.146 0 0 0 -1.087-.784h-7.515c-.493 0-.931.316-1.087.784l-4.071 12.213a.572.572 0 0 0 .544.754h16.745a.575.575 0 0 0 .544-.754z" fill="#f3b607"/><path d="m70.801 45.498h-7.515c-.493 0-.931.316-1.087.784l-4.071 12.213a.559.559 0 0 0 .235.659l13.275-13.275a1.134 1.134 0 0 0 -.837-.381zm-8.764 13.751h-7.515c-.493 0-.931.316-1.087.784l-4.071 12.213a.559.559 0 0 0 .235.659l13.276-13.275a1.138 1.138 0 0 0 -.838-.381z" fill="#fbe158"/><path d="m81.125 60.033a1.146 1.146 0 0 0 -1.087-.784h-7.515c-.493 0-.931.316-1.087.784l-4.071 12.213a.572.572 0 0 0 .543.754h16.745a.575.575 0 0 0 .544-.754z" fill="#f3b607"/><path d="m80.037 59.249h-7.515c-.493 0-.931.316-1.087.784l-4.071 12.213a.559.559 0 0 0 .235.659l13.276-13.275a1.138 1.138 0 0 0 -.838-.381z" fill="#fbe158"/><path d="m87 81h-56a4 4 0 0 1 -4-4v-4h60z" fill="#f0f1f1"/><path d="m31 73h-4v-35a1 1 0 0 0 -1-1h-3v-4h6a2 2 0 0 1 2 2z" fill="#cfd3d4"/><circle cx="35" cy="81" fill="#3e3e3f" r="6"/><circle cx="35" cy="81" fill="#fff" r="1.5"/><circle cx="77" cy="81" fill="#3e3e3f" r="6"/><g fill="#fff"><circle cx="77" cy="81" r="1.5"/><path d="m85.398 39.134a.12.12 0 0 0 .102-.119v-.031a.12.12 0 0 0 -.102-.119c-3.342-.501-5.263-2.423-5.764-5.764a.12.12 0 0 0 -.119-.101h-.03a.12.12 0 0 0 -.119.102c-.501 3.341-2.422 5.263-5.764 5.764a.12.12 0 0 0 -.102.119v.03c0 .059.043.11.102.119 3.342.501 5.263 2.423 5.764 5.764a.12.12 0 0 0 .119.102h.043a.105.105 0 0 0 .104-.089c.498-3.349 2.42-5.275 5.766-5.777zm-38.466-7.795a.08.08 0 0 0 .068-.079v-.02a.08.08 0 0 0 -.068-.079c-2.228-.334-3.508-1.615-3.843-3.843a.08.08 0 0 0 -.079-.068h-.02a.08.08 0 0 0 -.079.068c-.334 2.227-1.615 3.508-3.843 3.843a.08.08 0 0 0 -.068.079v.02c0 .04.029.073.068.079 2.228.334 3.508 1.615 3.843 3.843a.08.08 0 0 0 .079.068h.029a.07.07 0 0 0 .069-.06c.332-2.232 1.613-3.516 3.844-3.851z"/></g></svg>