<svg height="110" width="110" xmlns="http://www.w3.org/2000/svg"><circle cx="55" cy="55" fill="#25b7d3" r="55"/><path d="m27 83v-58a2 2 0 1 0 -4 0v62h62a2 2 0 1 0 0-4z" fill="#f0f1f1"/><path d="m33 67h12v16h-12zm18-11h12v27h-12zm18-22h12v49h-12z" fill="#0484ab"/><path d="m70.271 44.665c.403-9.111-6.655-16.824-15.766-17.227s-16.824 6.655-17.227 15.766a16.441 16.441 0 0 0 1.632 7.927l-14.297 14.334c1.15 3.433 3.442 5.72 6.878 6.861l14.051-14.087a16.425 16.425 0 0 0 7.502 2.193c9.111.402 16.824-6.656 17.227-15.767z" fill="#9ce5f4"/><path d="m54.505 27.438c-9.111-.404-16.824 6.655-17.227 15.766a16.443 16.443 0 0 0 1.632 7.927l-14.297 14.334c.64 1.913 1.649 3.456 2.999 4.657l37.838-37.838c-2.817-2.825-6.646-4.656-10.945-4.846z" fill="#c9f2f8"/><circle cx="53.775" cy="43.934" fill="#40c9e7" r="11.795"/><path d="m54.296 32.151c-6.508-.288-12.017 4.754-12.305 11.261-.153 3.448 1.2 6.606 3.465 8.865l16.661-16.662a11.737 11.737 0 0 0 -7.821-3.464z" fill="#6fdaf1"/><path d="m38.91 51.131-14.297 14.334c1.15 3.433 3.442 5.72 6.878 6.861l14.051-14.087a16.588 16.588 0 0 1 -6.632-7.108z" fill="#84462d"/><path d="m38.91 51.131-14.297 14.334c.64 1.913 1.649 3.456 2.999 4.657l14.512-14.512a16.502 16.502 0 0 1 -3.214-4.479z" fill="#9c6144"/><path d="m42.506 61.281 3.035-3.043a16.572 16.572 0 0 1 -6.631-7.107l-3.282 3.29z" fill="#f3b607"/><path d="m38.91 51.131-3.282 3.29 3.847 3.838 2.648-2.648a16.54 16.54 0 0 1 -3.213-4.48z" fill="#fbe158"/></svg>