<svg height="110" width="110" xmlns="http://www.w3.org/2000/svg"><circle cx="55" cy="55" fill="#32bea6" r="55"/><path d="m78.905 63v-12c0-13.255-10.745-24-24-24s-24 10.745-24 24v12l-7.011 7.011a1 1 0 0 0 .274 1.608c20.491 9.841 40.982 9.841 61.473 0a1.002 1.002 0 0 0 .275-1.608z" fill="#f8e1c2"/><path d="m30.905 51v12l-7.011 7.011a1.002 1.002 0 0 0 .274 1.608c10.246 4.921 20.492 7.381 30.737 7.381v-52c-13.255 0-24 10.745-24 24z" fill="#fcf1e2"/><path d="m30.905 59h48v4h-48z" fill="#a97a45"/><path d="m82.917 55.604-4.84 1.823 2.133-4.711a2.001 2.001 0 0 0 -3.644-1.65l-2.133 4.711-1.823-4.84a2 2 0 0 0 -3.744 1.41l1.823 4.84-4.711-2.133a2 2 0 0 0 -1.65 3.644l4.711 2.133-4.84 1.823a2 2 0 0 0 1.41 3.744l4.84-1.823-2.133 4.711a2 2 0 0 0 3.644 1.65l2.133-4.711 1.823 4.84a2 2 0 0 0 3.744-1.41l-1.823-4.84 4.711 2.133a2 2 0 0 0 1.65-3.644l-4.711-2.133 4.84-1.823a2 2 0 0 0 -1.41-3.744z" fill="#fa5655"/><circle cx="74.264" cy="61" fill="#facb1b" r="3"/><path d="m30.905 59h24v4h-24z" fill="#d4a263"/></svg>