<svg version="1" xmlns="http://www.w3.org/2000/svg" width="110" height="110"><circle cx="55" cy="55" r="55" fill="#E04F5F"/><path d="M80.32 34.674c-2.006-2.006-5.008-1.918-6.891-.034l6.857 6.857a4.8 4.8 0 0 0 .034-6.823z" fill="#E2E4E5"/><path d="M73.428 34.64l3.493 3.493 3.425-3.425c-1.876-1.966-4.98-2.032-6.918-.068z" fill="#FFF"/><path d="M76.852 41.502l1.719-1.719-3.429-3.428-1.639 1.639a28.12 28.12 0 0 1 3.349 3.508zM55 31c1.358 0 2.693.102 4 .289V28h-8v3.289A28.223 28.223 0 0 1 55 31z" fill="#CFD3D4"/><circle cx="55" cy="59" r="28" fill="#FFF"/><circle cx="55" cy="59.2" r="23" fill="#9CE5F4"/><path d="M32 59.2c0 12.702 10.297 23 23 23v-46c-12.703 0-23 10.298-23 23z" fill="#C9F2F8"/><path d="M55 53c-3.503-8-13-5.476-13 3.553C42.179 64.773 55 71 55 71s12.822-6.227 13-14.447C68 47.524 58.497 46 55 53z" fill="#DF2C2C"/><path d="M63 29H47v-2.104C47 25.366 48.241 24 49.771 24h10.458C61.759 24 63 25.366 63 26.896V29z" fill="#E2E4E5"/><path d="M55 24h-5.229C48.24 24 47 25.366 47 26.896V29h8v-5z" fill="#FFF"/></svg>