<svg height="110" width="110" xmlns="http://www.w3.org/2000/svg"><circle cx="55" cy="54.848" fill="#32bea6" r="55"/><path d="M87 49.848c0-5.885-3.635-10.913-8.778-12.983-4.076-9.967-10.66-14.017-18.722-14.017-7.579 0-14.148 4.319-17.369 10.637-5.125-2.183-10.902 1.442-11.116 7.055C26.35 42.185 23 46.62 23 51.848c0 6.627 5.373 12 12 12h40s12-2.226 12-14z" fill="#f0f1f1"/><path d="M59.5 22.848c-7.579 0-14.148 4.319-17.369 10.637-5.125-2.183-10.902 1.442-11.116 7.055C26.35 42.185 23 46.62 23 51.848c0 6.293 4.847 11.446 11.011 11.95l37.095-37.096c-3.331-2.658-7.25-3.854-11.606-3.854z" fill="#fff"/><path d="M51 85.848c-1.654 0-3-1.346-3-3v-24c0-1.654 1.346-3 3-3h24c1.654 0 3 1.346 3 3v24c0 1.654-1.346 3-3 3z" fill="#f3b607"/><path d="M75 56.848a2 2 0 0 1 2 2v24a2 2 0 0 1-2 2H51a2 2 0 0 1-2-2v-24a2 2 0 0 1 2-2zm0-2H51c-2.206 0-4 1.794-4 4v24c0 2.206 1.794 4 4 4h24c2.206 0 4-1.794 4-4v-24c0-2.205-1.794-4-4-4z" fill="#fff"/><circle cx="57" cy="62.848" fill="#fbe158" r="4"/><path d="M49 80.848v2a2 2 0 0 0 2 2h12l-8-16z" fill="#8e6134"/><path d="M53 72.848l2 4 2-4-2-4z" fill="#fff"/><path d="M77 82.848v-8.286l-8-13.714-14 24h20a2 2 0 0 0 2-2z" fill="#a97a45"/><path d="M69 72.848l3.5-6-3.5-6-3.5 6z" fill="#fff"/><path d="M39 75.848c-1.654 0-3-1.346-3-3v-24c0-1.654 1.346-3 3-3h24c1.654 0 3 1.346 3 3v24c0 1.654-1.346 3-3 3z" fill="#40c9e7"/><path d="M63 46.848a2 2 0 0 1 2 2v24a2 2 0 0 1-2 2H39a2 2 0 0 1-2-2v-24a2 2 0 0 1 2-2zm0-2H39c-2.206 0-4 1.794-4 4v24c0 2.206 1.794 4 4 4h24c2.206 0 4-1.794 4-4v-24c0-2.205-1.794-4-4-4z" fill="#fff"/><circle cx="45" cy="52.848" fill="#fbe158" r="4"/><path d="M37 70.848v2a2 2 0 0 0 2 2h12l-8-16z" fill="#0d9681"/><path d="M41 62.848l2 4 2-4-2-4z" fill="#fff"/><path d="M65 72.848v-8.286l-8-13.714-14 24h20a2 2 0 0 0 2-2z" fill="#17b198"/><path d="M57 62.848l3.5-6-3.5-6-3.5 6z" fill="#fff"/></svg>