<svg version="1" xmlns="http://www.w3.org/2000/svg" width="110" height="110"><circle cx="55" cy="55" r="55" fill="#FABC3D"/><path d="M79 55a4 4 0 0 0-4-4H35a4 4 0 0 0-4 4v26h48V55z" fill="#F0F1F1"/><path d="M55.021 42.194l-.021.002-.021-.002a2.84 2.84 0 1 0 0 5.68l.021-.002.021.002a2.84 2.84 0 1 0 0-5.68zm0-8.073l-.021.001-.021-.001c-4.62 0-8.81 2.537-11.035 6.32l2.457 1.434c1.489-2.723 4.839-4.914 8.578-4.914l.021.001.021-.001c3.739 0 7.089 2.191 8.578 4.914l2.457-1.434c-2.226-3.783-6.415-6.32-11.035-6.32z" fill="#FFF"/><path d="M55.021 24.875h-.042c-7.26 0-14.248 3.129-19.229 9.529l2.258 1.733c3.869-5.161 10.052-8.422 16.972-8.422h.042c6.911 0 13.098 3.255 16.972 8.422l2.258-1.733c-4.944-6.349-11.905-9.529-19.231-9.529zM23 81v2c2.561 2.561 6.035 4 9.657 4h44.687c3.622 0 7.096-1.439 9.657-4v-2H23z" fill="#FFF"/><path fill="#3E3E3F" d="M35 55h40v26H35z"/><path fill="#5B5C5F" d="M35 80.92L60.92 55H35z"/><path fill="#E2E4E5" d="M50 81h10v2H50z"/></svg>