<svg height="110" width="110" xmlns="http://www.w3.org/2000/svg"><circle cx="55" cy="54.848" fill="#32bea6" r="55"/><path d="m87 51.848c0-5.885-3.635-10.913-8.778-12.983-4.076-9.967-10.66-14.017-18.722-14.017-7.579 0-14.148 4.319-17.369 10.637a7.966 7.966 0 0 0 -3.131-.637c-4.314 0-7.821 3.417-7.984 7.692-4.666 1.645-8.016 6.08-8.016 11.308 0 6.627 5.373 12 12 12h40s12-2.226 12-14z" fill="#f0f1f1"/><path d="m59.5 24.848c-7.579 0-14.148 4.319-17.369 10.637-5.125-2.183-10.902 1.442-11.116 7.055-4.665 1.645-8.015 6.08-8.015 11.308 0 6.293 4.847 11.446 11.011 11.95l37.095-37.096c-3.331-2.658-7.25-3.854-11.606-3.854z" fill="#fff"/><path d="m38.5 83.181a3.667 3.667 0 0 0 3.667 3.667h25.667a3.667 3.667 0 0 0 3.667-3.667v-18.333a3.667 3.667 0 0 0 -3.667-3.667h-25.667a3.667 3.667 0 0 0 -3.667 3.667z" fill="#facb1b"/><path d="m66.917 61.181h-5.5v-6.417c0-3.538-2.878-6.417-6.417-6.417s-6.417 2.878-6.417 6.417v6.417h-5.5v-6.417c0-6.571 5.346-11.917 11.917-11.917s11.917 5.346 11.917 11.917z" fill="#818284"/><path d="m57.509 69.769a3.089 3.089 0 0 0 -6.176 0c0 1.187.678 2.206 1.661 2.723l-1.661 8.856h6.175l-1.661-8.856a3.076 3.076 0 0 0 1.662-2.723z" fill="#692e19"/></svg>