<svg version="1" xmlns="http://www.w3.org/2000/svg" width="110" height="110"><circle cx="55" cy="55" r="55" fill="#FABC3D"/><path d="M69.381 68.922L67 68 55 87h22c0-9.456-4.19-15.067-7.619-18.078z" fill="#3E3E3F"/><path fill="#FFF" d="M45.475 66.997L55 87l9.525-20.003z"/><path d="M57.655 67.997h-5.31a2.999 2.999 0 0 1-2.24-1.004L45 62.997v4.5l10 7.5 10-7.5v-4.5l-5.105 3.996a2.999 2.999 0 0 1-2.24 1.004z" fill="#F7B4B4"/><path d="M50.105 66.993L45 62.997v4.5l10 7.5v-7h-2.655a2.999 2.999 0 0 1-2.24-1.004z" fill="#FBC8C8"/><path d="M70 45c-1 0-1 1.111-1 1.111v-2.305C65.526 44.538 60.549 45 55 45s-10.526-.462-14-1.194v9.191l4 10 5.105 3.996a2.999 2.999 0 0 0 2.24 1.004h5.31c.856 0 1.671-.365 2.24-1.004L65 62.997l3.207-8.017C71.042 54.776 72 50.476 72 47.222 72 46.111 71 45 70 45z" fill="#FBC8C8"/><path d="M41 46.111S41 45 40 45s-2 1.111-2 2.222c0 3.253.958 7.554 3.793 7.758L45 62.997l5.105 3.996a2.999 2.999 0 0 0 2.24 1.004H55V45c-5.549 0-10.526-.462-14-1.194v2.305z" fill="#FBD7D7"/><path d="M79.976 64c0-2.52-2.805-5.325-5.325-5.325 2.52 0 5.325-2.805 5.325-5.325 0 2.52 2.805 5.325 5.325 5.325-2.52 0-5.325 2.805-5.325 5.325zM27.325 36c0-2.047-2.278-4.325-4.325-4.325 2.047 0 4.325-2.278 4.325-4.325 0 2.047 2.278 4.325 4.325 4.325-2.047 0-4.325 2.278-4.325 4.325z" fill="#FFF"/><path d="M52 46.997a2 2 0 0 0-2-2h-.006c.001.022.006.042.006.063a2 2 0 0 1-1.994 2A1.996 1.996 0 0 0 52 46.997zm9.994 0a2 2 0 0 0-2-2h-.006c.001.021.006.041.006.062a2 2 0 0 1-1.994 2 1.996 1.996 0 0 0 3.994-.062z" fill="#3E3E3F"/><path d="M50 56.997h10s0 3-5 3-5-3-5-3z" fill="#F79392"/><path d="M40 41v2s1 7 2 9h1V41h-3zm30 1v1s-1 7-2 9h-1V42h3z" fill="#3E3E3F"/><path d="M70 39.088V36.75c0-3.11.921-8.332 1.513-11.367A2.005 2.005 0 0 0 69.548 23H40.452a2.001 2.001 0 0 0-1.965 2.384C39.079 28.418 40 33.64 40 36.75v2.338c-2.498.621-4 1.398-4 2.245C36 43.358 44.507 45 55 45s19-1.642 19-3.667c0-.847-1.502-1.624-4-2.245zM55 54.694c-5-5-6 4-13 0 5 6 13 2 13 2s8 4 13-2c-7 4-8-5-13 0z" fill="#3E3E3F"/><path d="M40 36.75V37h15V23H40.452a2.001 2.001 0 0 0-1.965 2.384C39.079 28.418 40 33.64 40 36.75z" fill="#5B5C5F"/><path d="M55 36c-5.88 0-11.188-.09-15-.77v3.667c3.812.68 9.12.77 15 .77V36z" fill="#FFF"/><path d="M55 36c5.88 0 11.188-.09 15-.77v3.667c-3.812.68-9.12.77-15 .77V36z" fill="#E2E4E5"/><path fill="#5B5C5F" d="M55 87l10-21 4 2 2 7h-6.333L68 79l-9 8z"/><path d="M43 68l-2.381.922C37.19 71.933 33 77.544 33 87h22L43 68z" fill="#3E3E3F"/><path d="M45 62.997V66s-12 5-12 21H23c-1.064-11.7 11.272-20.416 22-24.003zm20 0V66s12 5 12 21h10c1.064-11.7-11.272-20.416-22-24.003z" fill="#FA5655"/><path fill="#5B5C5F" d="M55 87L45 66l-4 2-2 7h6.333L42 79l9 8z"/><path d="M64 72l-6.73 3.059C56.72 74.416 55.913 74 55 74s-1.72.416-2.27 1.059L46 72v10l6.73-3.059C53.28 79.584 54.087 80 55 80s1.72-.416 2.27-1.059L64 82V72z" fill="#DF2C2C"/></svg>