<svg version="1" xmlns="http://www.w3.org/2000/svg" width="110" height="110"><circle cx="55" cy="55" r="55" fill="#25B7D3"/><path d="M70 45c-1 0-1 1.111-1 1.111V46l-1 1c0-18-4-12-13-12s-13-6-13 12l-1-1v6.997l4 10 5.105 3.996a2.999 2.999 0 0 0 2.24 1.004h5.31c.856 0 1.671-.365 2.24-1.004L65 62.997l3.207-8.017C71.042 54.776 72 50.476 72 47.222 72 46.111 71 45 70 45z" fill="#BF8662"/><path d="M42 47l-1-1v.111S41 45 40 45s-2 1.111-2 2.222c0 3.253.958 7.554 3.793 7.758L45 62.997l5.105 3.996a2.999 2.999 0 0 0 2.24 1.004H55V35c-9 0-13-6-13 12z" fill="#CC9978"/><path d="M55 29c-12 0-15 7-14 17l1 1c0-18 4-12 13-12s13-6 13 12l1-1c1-10-2-17-14-17z" fill="#692E19"/><path d="M41 46l1 1c0-18 4-12 13-12v-6c-12 0-15 7-14 17z" fill="#84462D"/><path d="M83 75.964a5.999 5.999 0 0 0-3.043-2.983L68 68.964H42l-11.957 4.017A5.999 5.999 0 0 0 27 75.964l-4 11h64l-4-11z" fill="#FFF"/><path fill="#FBE158" d="M72 81.036h5v3h-5zm-8 0h5v3h-5zm-35 0h-3.831l-.728 2-.363 1H29zm27 0h5v3h-5zm-24 0h5v3h-5zm8 0h5v3h-5zm8 0h5v3h-5zm32 0v3h5.922l-.363-1-.728-2zm-24-7h5v3h-5zm16 0h5v3h-5zm-43 0h-.516A6.132 6.132 0 0 0 27 76l-.377 1.036H29v-3zm3 0h5v3h-5zm48 0v3h3.377L83 76a6.132 6.132 0 0 0-1.484-1.964H80zm-16 0h5v3h-5zm-16 0h5v3h-5zm-8 0h5v3h-5z"/><g fill="#FACB1B"><path d="M29 84.036h3V87h-3zm3-10v-1.677l-1.957.658a5.973 5.973 0 0 0-1.043.598v.421h3zm-3 3h3v4h-3zm8 0h3v4h-3zm0 7h3V87h-3zm3-10v-4.364l-3 1.008v3.356zm5 10h3V87h-3zM45 69h3v5.036h-3zm0 8.036h3v4h-3zm8 7h3V87h-3zm0-7h3v4h-3zm3-3V69h-3v5.036zm5 3h3v4h-3zM61 69h3v5.036h-3zm0 15.036h3V87h-3zm11-10v-3.692l-3-1.008v4.7zm-3 3h3v4h-3zm0 7h3V87h-3zm8 0h3V87h-3zm0-7h3v4h-3zm3-3v-.995c-.015-.007-.028-.018-.043-.024L77 72.023v2.013h3z"/></g><g fill="#F99134"><path d="M29 81.036h3v3h-3zm0-7h3v3h-3zm8 7h3v3h-3zm0-7h3v3h-3zm8 7h3v3h-3zm0-7h3v3h-3zm8 7h3v3h-3zm0-7h3v3h-3zm8 7h3v3h-3zm0-7h3v3h-3zm8 7h3v3h-3zm0-7h3v3h-3zm8 7h3v3h-3zm0-7h3v3h-3z"/></g><path d="M57.655 67.997h-5.31a2.999 2.999 0 0 1-2.24-1.004L45 62.997V72s2 4 10 4 10-4 10-4v-9.003l-5.105 3.996a2.999 2.999 0 0 1-2.24 1.004z" fill="#AF7653"/><path fill="#40C9E7" d="M24.078 84.036l.363-1zm2.545-7L27 76z"/><path d="M55 79c3.857 0 13-1 13-7v-3.072h-3V72s-2 4-10 4-10-4-10-4v-3.072h-3V72c0 6 9.143 7 13 7z" fill="#FFF"/><path d="M50.105 66.993L45 62.997V72s2 4 10 4v-8.003h-2.655a2.999 2.999 0 0 1-2.24-1.004z" fill="#BF8662"/><path d="M52 46.997a2 2 0 0 0-2-2h-.006c.051 1.099-.844 2.058-1.987 2.062A1.996 1.996 0 0 0 52 46.997zm9.994 0a2 2 0 0 0-2-2h-.006c.051 1.099-.844 2.058-1.987 2.062a1.996 1.996 0 0 0 3.993-.062z" fill="#3E3E3F"/><path d="M55 54s-6 0-9 2c0 7 5 12 5 12l4 2 4-2s5-5 5-12c-3-2-9-2-9-2zm2 8l-1-1h-2l-1 1h-2l-1.183-1.971A1.999 1.999 0 0 1 51.532 57h6.936a2 2 0 0 1 1.715 3.029L59 62h-2z" fill="#692E19"/><path d="M54 61l-1 1h-2l-1.183-1.971A1.999 1.999 0 0 1 51.532 57H55v-3s-6 0-9 2c0 7 5 12 5 12l4 2v-9h-1z" fill="#84462D"/></svg>