<svg version="1" xmlns="http://www.w3.org/2000/svg" width="110" height="110"><circle cx="54.976" cy="55.024" r="55" fill="#FABC3D"/><path d="M83 76a5.997 5.997 0 0 0-3.043-2.982L65 69v-6l-5.105 3.995A3 3 0 0 1 57.655 68h-5.31a3 3 0 0 1-2.24-1.005L45 63v6l-14.957 4.018A5.997 5.997 0 0 0 27 76l-4 11h64l-4-11z" fill="#3E3E3F"/><path d="M72 47.258c0-1.111-1-2.222-2-2.222s-1 1.111-1 1.111v-1.111c-.018-9-1.024-15-14-15s-13.982 6-14 15V53l4 10 5.105 3.995A3 3 0 0 0 52.345 68h5.31a3 3 0 0 0 2.24-1.005L65 63l3.193-7.982c2.846-.191 3.807-4.501 3.807-7.76z" fill="#FBC8C8"/><path d="M41 45v1.111S41 45 40 45s-2 1.111-2 2.222c0 3.259.961 7.568 3.807 7.76L45 62.964l5.105 3.995a2.996 2.996 0 0 0 2.24 1.005H55V30c-12.976 0-13.982 6-14 15z" fill="#FBD7D7"/><path d="M69.268 36.391C71.997 32.495 72 28 72 28H48.134a9.073 9.073 0 0 0-9.015 10.072l2.896 17.467L45 63l5.105 3.995A3 3 0 0 0 52.345 68h5.31a3 3 0 0 0 2.24-1.005L65 63l2.984-7.461 2.288-16.629a2.34 2.34 0 0 0-.426-2.009 2.3 2.3 0 0 0-.578-.51zM68 45.036l-2 10v.031l-3 6h-1l-1.316-3.949a3 3 0 0 0-2.846-2.051h-5.676a3 3 0 0 0-2.846 2.051L48 61.067h-1l-3-6v-.031l-2-10V36s.011 5.447 13 5.958A50.58 50.58 0 0 0 57 42c5.351 0 8.786-1.784 11-4.076v7.112z" fill="#F37A10"/><path d="M42.016 55.539L45 63l5.105 3.995A3 3 0 0 0 52.345 68H55V55.067h-2.838a3 3 0 0 0-2.846 2.051L48 61.067h-1l-3-6v-.031l-2-10V36s.011 5.447 13 5.958V28h-6.866a9.073 9.073 0 0 0-9.015 10.072" fill="#F99134"/><path d="M51 58h8s0 3-4 3-4-3-4-3z" fill="#FBD7D7"/><path d="M61.5 42.625c-2.438 0-4.875 1.625-4.875 1.625h-3.25s-2.438-1.625-4.875-1.625c-4.063 0-6.5 1.625-6.5 1.625v.813h.812c0 4.875 1.625 7.312 5.857 7.312 4.231 0 5.112-4.062 5.112-5.189 0-1.127 1.219-1.311 1.219-1.311s1.219.184 1.219 1.311.88 5.189 5.112 5.189 5.857-2.437 5.857-7.312H68v-.813s-2.438-1.625-6.5-1.625z" fill="#3E3E3F"/><path d="M48.5 44.25c-2.244 0-4.062 1.006-4.062 3.25 0 .908.301 1.743.804 2.419l5.318-5.318c-.605-.235-1.307-.351-2.06-.351zm13.079 0c-2.244 0-4.062 1.006-4.062 3.25 0 .908.301 1.743.804 2.419l5.318-5.318c-.605-.235-1.308-.351-2.06-.351z" fill="#9E9FA0"/></svg>