<svg height="110" width="110" xmlns="http://www.w3.org/2000/svg"><circle cx="55" cy="55" fill="#25b7d3" r="55"/><path d="m87 87.003-4-11a6.002 6.002 0 0 0 -3.043-2.983l-12.957-5.017-12 19z" fill="#3e3e3f"/><path d="m65 62.964-5.105 3.995a3 3 0 0 1 -2.24 1.005h-5.31a3 3 0 0 1 -2.24-1.005l-5.105-3.995v4.039l-2 1 12 19.003 12-19.003-2-1zm-10 12.042-.008-.006h.016z" fill="#f7b4b4"/><path d="m23 87.003 4-11a6.002 6.002 0 0 1 3.043-2.983l12.957-5.017 12 19z" fill="#3e3e3f"/><path d="m50.105 66.959-5.105-3.995v4.039l-2 1 12 19.003v-12l-.008-.006h.008v-7.036h-2.655a2.996 2.996 0 0 1 -2.24-1.005z" fill="#fbc8c8"/><path d="m70.917 45.309c-.19 1.765-.82 4.691-2.917 4.691v-8s-1 4-5 4v-11s-2 11-10 11v-7s-3 7-7 7v-6l-4 5v5s-.45-.303-1-.901v3.865l4 10 5.105 3.995a3 3 0 0 0 2.24 1.005h5.31a3 3 0 0 0 2.24-1.005l5.105-3.995 3.193-7.982c2.846-.191 3.807-4.501 3.807-7.76 0-.758-.47-1.508-1.083-1.913z" fill="#fbc8c8"/><path d="m53 39s-3 7-7 7v-6l-4 5v5s-2.349-1.572-2.887-4.71c-.629.4-1.113 1.162-1.113 1.932 0 3.259.961 7.568 3.807 7.76l3.193 7.982 5.105 3.995a2.996 2.996 0 0 0 2.24 1.005h2.655v-22.214c-.622.16-1.286.25-2 .25z" fill="#fbd7d7"/><path d="m50 56.997h10s0 3-5 3-5-3-5-3z" fill="#f79392"/><path d="m71 44c0-9.941-6.059-18-16-18s-16 8.059-16 18c0 4 3 6 3 6v-5l4-5v6c4 0 7-7 7-7v7c8 0 10-11 10-11v11c4 0 5-4 5-4v8c3 0 3-6 3-6z" fill="#84462d"/><path d="m39 44c0 4 3 6 3 6v-5l4-5v6c4 0 7-7 7-7v7a8.03 8.03 0 0 0 2-.25v-19.75c-9.941 0-16 8.059-16 18z" fill="#9c6144"/><path d="m69.963 45.448c-2.083-1.5-14.958-.479-14.958-.479s-12.958-1.021-15.042.479c0 0-.083 1.958 0 3 2 1 .666 2.667 2 3 1.667.417 8.708 1 10 0 1.362-1.055 2-4 3-4s1.638 2.945 3 4c1.292 1 8.333.417 10 0 1.334-.333 0-2 2-3 .083-1.042 0-3 0-3z" fill="#3e3e3f"/><path d="m42.882 50.185c-.961-1.921-.644-4.307.242-4.428s7.084-.805 9.499.362c.963.465-.281 4.517-1.691 4.669-2.979.322-7.527.443-8.05-.603zm24.518.082c.961-1.921.644-4.307-.242-4.428s-7.084-.805-9.499.362c-.963.465.281 4.517 1.691 4.669 2.978.323 7.527.444 8.05-.603z" fill="#facb1b"/><path d="m43.123 45.754c-.886.121-1.202 2.507-.241 4.428.066.133.199.247.383.344l4.442-5.077c-2.119.017-4.111.24-4.584.305zm14.505.427c-.894.433.115 3.953 1.393 4.576l4.567-5.22c-2.116-.081-4.62-.004-5.96.644z" fill="#fbe158"/></svg>