<svg version="1" xmlns="http://www.w3.org/2000/svg" width="110" height="110"><circle cx="55" cy="55" r="55" fill="#25B7D3"/><path d="M65.777 48.614L83.646 23H87L67.938 50.322a20.974 20.974 0 0 0-2.161-1.708z" fill="#FBE158"/><path d="M58.624 45.527L74.341 23h9.305L65.777 48.614a20.887 20.887 0 0 0-7.153-3.087z" fill="#DF2C2C"/><path d="M55.668 45.084L71.076 23h3.265L58.624 45.527a21.122 21.122 0 0 0-2.956-.443z" fill="#FBE158"/><circle cx="55" cy="66" r="21" fill="#F3B607"/><circle cx="55" cy="66" r="15.5" fill="#FBE158"/><path d="M86.898 49.134a.12.12 0 0 0 .102-.119v-.031a.12.12 0 0 0-.102-.119c-3.342-.501-5.263-2.423-5.764-5.764a.12.12 0 0 0-.119-.101h-.03a.12.12 0 0 0-.119.102c-.501 3.341-2.422 5.263-5.764 5.764a.12.12 0 0 0-.102.119v.03c0 .059.043.11.102.119 3.342.501 5.263 2.423 5.764 5.764a.12.12 0 0 0 .119.102h.043a.105.105 0 0 0 .104-.089c.498-3.349 2.42-5.275 5.766-5.777zM36.881 80.156a.14.14 0 0 0 .119-.138v-.036a.14.14 0 0 0-.119-.138c-3.899-.585-6.14-2.827-6.725-6.725a.139.139 0 0 0-.138-.119h-.035a.14.14 0 0 0-.138.119c-.585 3.898-2.826 6.14-6.725 6.725a.139.139 0 0 0-.12.138v.035a.14.14 0 0 0 .119.138c3.899.585 6.14 2.827 6.725 6.725.01.07.069.12.138.12h.05a.122.122 0 0 0 .121-.104c.582-3.907 2.824-6.154 6.728-6.74z" fill="#FFF"/><path d="M55 45c-11.598 0-21 9.402-21 21 0 5.88 2.423 11.189 6.318 15.001l29.683-29.683C66.189 47.423 60.88 45 55 45z" fill="#FACB1B"/><path d="M55 50.5c-8.561 0-15.5 6.939-15.5 15.5 0 4.361 1.808 8.295 4.707 11.112l21.905-21.905C63.295 52.308 59.361 50.5 55 50.5z" fill="#FCF6C2"/><path d="M53.635 60.479c-.539.14-1.808.517-2.326.517-1.034 0-1.924-.861-1.924-1.895 0-.89.574-1.636 1.464-1.895l2.843-.833c.833-.23 1.464-.373 2.068-.373h.057c1.207 0 2.183.976 2.183 2.182v16.196a2.181 2.181 0 0 1-2.183 2.182 2.182 2.182 0 0 1-2.183-2.182V60.479z" fill="#F99134"/><path d="M44.223 48.614L26.354 23H23l19.062 27.322a20.974 20.974 0 0 1 2.161-1.708z" fill="#FBE158"/><path d="M51.376 45.527L35.659 23h-9.305l17.869 25.614a20.887 20.887 0 0 1 7.153-3.087z" fill="#DF2C2C"/><path d="M54.332 45.084L38.924 23h-3.265l15.717 22.527a21.122 21.122 0 0 1 2.956-.443z" fill="#FBE158"/></svg>