<svg height="110" width="110" xmlns="http://www.w3.org/2000/svg"><circle cx="55" cy="55" fill="#fabc3d" r="55"/><path d="m77 75-2 2h-40l-2-2v-40l2-2h40l2 2z" fill="#3e3e3f"/><path d="m41 33h-4v-4a2 2 0 1 1 4 0zm8 0h-4v-4a2 2 0 1 1 4 0zm8 0h-4v-4a2 2 0 1 1 4 0zm8 0h-4v-4a2 2 0 1 1 4 0zm8 0h-4v-4a2 2 0 1 1 4 0z" fill="#fff"/><path d="m41 81a2 2 0 1 1 -4 0v-4h4z" fill="#f0f1f1"/><path d="m33 73h-4a2 2 0 1 1 0-4h4zm0-8h-4a2 2 0 1 1 0-4h4zm0-8h-4a2 2 0 1 1 0-4h4zm0-8h-4a2 2 0 1 1 0-4h4zm0-8h-4a2 2 0 1 1 0-4h4z" fill="#fff"/><path d="m83 71a2 2 0 0 1 -2 2h-4v-4h4a2 2 0 0 1 2 2zm0-8a2 2 0 0 1 -2 2h-4v-4h4a2 2 0 0 1 2 2zm0-8a2 2 0 0 1 -2 2h-4v-4h4a2 2 0 0 1 2 2zm0-8a2 2 0 0 1 -2 2h-4v-4h4a2 2 0 0 1 2 2zm0-8a2 2 0 0 1 -2 2h-4v-4h4a2 2 0 0 1 2 2zm-34 42a2 2 0 1 1 -4 0v-4h4zm8 0a2 2 0 1 1 -4 0v-4h4zm8 0a2 2 0 1 1 -4 0v-4h4zm8 0a2 2 0 1 1 -4 0v-4h4z" fill="#f0f1f1"/><path d="m38 38h34v34h-34z" fill="#5b5c5f"/><path d="m38 38h34l-34 34z" fill="#818284"/><path d="m41.174 42.796h.557l.464 1.077.467-1.077h.557v2.204h-.56l.003-.635.034-.445-.019-.003-.29.756h-.383l-.296-.756-.016.003.037.445v.635h-.557v-2.204zm2.94 1.466c0 .355.629.355.632 0v-1.466h.563v1.466c-.003 1.034-1.762 1.034-1.759 0v-1.466h.563v1.466zm1.521-1.466h.56v1.653h.896v.551h-1.457v-2.204zm2.382.526v1.678h-.563v-1.678h-.585v-.529h1.734v.529zm1.356 1.678h-.557v-2.204h.557zm1.957-.464a.887.887 0 0 1 -.794.495c-.433 0-.868-.252-.868-.753v-.759c0-.498.436-.753.878-.753.271 0 .598.115.775.507l-.455.184c-.149-.274-.641-.212-.641.062v.759c0 .265.498.339.619.034zm.145-1.015c0-.507.455-.756.912-.756s.915.252.915.756v.753c0 .504-.454.756-.912.756s-.915-.252-.915-.756zm.557.754c0 .162.181.24.358.24s.355-.081.355-.24v-.753c0-.171-.184-.249-.364-.249-.174 0-.349.087-.349.249zm2.225.025h-.1v.7h-.563v-2.204h.881c.455 0 .806.209.819.726 0 .408-.165.638-.433.722l.6.756h-.694zm.227-.48c.352 0 .352-.504 0-.504h-.327v.504zm1.68-.158h.893v.482h-.893v.33h.971v.526h-1.535v-2.204h1.535v.523h-.971zm3.438.874a.887.887 0 0 1 -.794.495c-.433 0-.869-.252-.869-.753v-.759c0-.498.436-.753.878-.753.271 0 .598.115.775.507l-.454.184c-.149-.274-.641-.212-.641.062v.759c0 .265.498.339.62.034zm.199-1.74h.881c.539 0 .806.389.806.778 0 .393-.271.781-.803.781h-.327v.645h-.557zm.88 1.065c.336.003.336-.548 0-.545h-.324v.545zm1.59.401c0 .355.629.355.632 0v-1.466h.563v1.466c-.003 1.034-1.762 1.034-1.759 0v-1.466h.563v1.466zm-20.789 3.778c.208.255.57.171.582-.087.013-.224-.121-.327-.289-.327a.431.431 0 0 0 -.358.184h-.255v-1.286h1.307v.489h-.862v.249c.535-.196 1.002.146 1.002.679 0 .408-.255.819-.831.819a.8.8 0 0 1 -.691-.408zm1.597.084a.31.31 0 0 1 .311.308c0 .174-.14.314-.311.314s-.308-.14-.308-.314c0-.171.137-.308.308-.308zm.882-.084c.209.255.57.171.582-.087.012-.224-.122-.327-.29-.327a.432.432 0 0 0 -.358.184h-.255v-1.286h1.307v.489h-.862v.249c.535-.196 1.002.146 1.002.679 0 .408-.255.819-.831.819a.8.8 0 0 1 -.691-.408zm3.056-.863c-.121-.295-.613-.227-.613.062v.756c0 .346.645.342.645 0v-.081h-.352v-.467h.887v.548c0 .507-.423.763-.865.763-.436 0-.872-.255-.872-.763v-.755c0-.498.436-.747.872-.747.286 0 .613.118.766.47zm1.381 1.551h-.56v-2.204h.56v.834h.635v-.834h.56v2.204h-.56v-.831h-.635zm3.08-2.205.118.187-.949 1.51.896-.006v.514h-1.634l-.103-.206.953-1.481h-.884v-.517h1.603z" fill="#b6bcbd"/></svg>