<svg version="1" xmlns="http://www.w3.org/2000/svg" width="110" height="110"><circle cx="55" cy="55" r="55" fill="#32BEA6"/><path d="M35 61a2 2 0 0 0 2 2h30v-4H37a2 2 0 0 0-2 2z" fill="#3E3E3F"/><path d="M85 79h-2l-7.328-10.517c3.262-2.146 5.713-5.289 7.056-9.216 2.61-7.631.524-16.718-5.189-22.611C72.831 31.8 66.26 29.69 59 30.56V27H47v24h12V39.648c4.96-.903 9.101.203 12.077 3.273 3.364 3.471 4.653 8.995 3.135 13.435-.545 1.594-1.615 3.45-3.687 4.741l-.339-.487a3.958 3.958 0 0 0-6.373 0L51 79H29a2 2 0 0 0-2 2v4a2 2 0 0 0 2 2h56a2 2 0 0 0 2-2v-4a2 2 0 0 0-2-2z" fill="#E2E4E5"/><path fill="#3E3E3F" d="M50 24h6v3h-6zm-1 27h8v4h-8z"/><path d="M75.672 68.483c3.262-2.146 5.713-5.289 7.056-9.216 2.61-7.631.524-16.718-5.189-22.611C72.831 31.8 66.26 29.69 59 30.56v9.088c4.96-.903 9.102.203 12.077 3.272 3.364 3.471 4.653 8.995 3.135 13.435-.545 1.595-1.615 3.45-3.687 4.741l-.339-.486a3.958 3.958 0 0 0-6.373 0L51 79h32l-7.328-10.517z" fill="#F0F1F1"/><path d="M70.187 60.61a3.961 3.961 0 0 0-6.374 0L51 79h8.892l13.619-13.619-3.324-4.771z" fill="#FFF"/><path fill="#5B5C5F" d="M49 51h4v4h-4zm1-27h3v3h-3z"/><path fill="#FFF" d="M47 27h6v24h-6z"/><circle cx="67" cy="65" r="2" fill="#5B5C5F"/></svg>