<svg version="1" xmlns="http://www.w3.org/2000/svg" width="110" height="110"><circle cx="55" cy="55" r="55" fill="#32BEA6"/><path d="M23 26.84A3.84 3.84 0 0 1 26.84 23H55l16 13.44v46.72A3.84 3.84 0 0 1 67.16 87H26.84A3.84 3.84 0 0 1 23 83.16V26.84z" fill="#FFF"/><path d="M55 23v9.6a3.84 3.84 0 0 0 3.84 3.84H71L55 23z" fill="#F0F1F1"/><path d="M52 70h10c.551 0 1-.448 1-1v-5c0-.552-.449-1-1-1H52c-.551 0-1 .448-1 1v5c0 .552.449 1 1 1z" fill="#E2E4E5"/><path d="M62 72H52c-1.654 0-3-1.346-3-3v-5c0-1.654 1.346-3 3-3h10c1.654 0 3 1.346 3 3v5c0 1.654-1.346 3-3 3zm-10-9c-.551 0-1 .448-1 1v5c0 .552.449 1 1 1h10c.551 0 1-.448 1-1v-5c0-.552-.449-1-1-1H52z" fill="#B6BCBD"/><path d="M30 70h10c.551 0 1-.448 1-1v-5c0-.552-.449-1-1-1H30c-.551 0-1 .448-1 1v5c0 .552.449 1 1 1z" fill="#E2E4E5"/><path d="M40 72H30c-1.654 0-3-1.346-3-3v-5c0-1.654 1.346-3 3-3h10c1.654 0 3 1.346 3 3v5c0 1.654-1.346 3-3 3zm-10-9c-.551 0-1 .448-1 1v5c0 .552.449 1 1 1h10c.551 0 1-.448 1-1v-5c0-.552-.449-1-1-1H30z" fill="#B6BCBD"/><path d="M41 50h10c.551 0 1-.448 1-1v-5c0-.552-.449-1-1-1H41c-.551 0-1 .448-1 1v5c0 .552.449 1 1 1z" fill="#9CE5F4"/><path fill="#CFD3D4" d="M50.272 52h-2.258l4.714 9h2.258zm-8.544 0l-4.714 9h2.258l4.714-9z"/><path d="M51 52H41c-1.654 0-3-1.346-3-3v-5c0-1.654 1.346-3 3-3h10c1.654 0 3 1.346 3 3v5c0 1.654-1.346 3-3 3zm-10-9c-.551 0-1 .448-1 1v5c0 .552.449 1 1 1h10c.551 0 1-.448 1-1v-5c0-.552-.449-1-1-1H41z" fill="#40C9E7"/><path d="M84.144 57.498L62.941 81.466l-5.877 1.21a3.997 3.997 0 0 0-3.595-3.18l.484-5.981 21.203-23.967 8.988 7.95z" fill="#F4D0A1"/><path d="M84.115 57.473a.038.038 0 0 1 .003.054L63.397 80.95c-.033.038-.086-.002-.062-.047a2.996 2.996 0 0 0-.653-3.672 2.998 2.998 0 0 0-3.905-.062.035.035 0 0 1-.052-.046 2.997 2.997 0 0 0-.537-3.868 2.996 2.996 0 0 0-3.762-.173c-.036.027-.077-.015-.047-.049l20.752-23.458a.038.038 0 0 1 .054-.003l8.93 7.901z" fill="#059BBF"/><path fill="#FACB1B" d="M76.482 48.051l8.988 7.951-1.325 1.498-8.988-7.95z"/><path d="M84.996 47.571l-.09-.08a5.94 5.94 0 0 0-8.385.513l-.04.045L85.469 56l.04-.045a5.939 5.939 0 0 0-.513-8.384z" fill="#F79392"/><path d="M84.119 57.527L63.371 80.979c-.03.034-.077-.002-.055-.042a2.996 2.996 0 0 0-.634-3.707 2.997 2.997 0 0 0-3.897-.068c-.019.015-.041-.008-.025-.026L79.625 53.55a.037.037 0 0 1 .053-.003l4.437 3.925a.04.04 0 0 1 .004.055z" fill="#0484AB"/><path d="M57.064 82.675l-3.918.807.323-3.987a4.001 4.001 0 0 1 3.595 3.18z" fill="#3E3E3F"/></svg>