<svg height="110" width="110" xmlns="http://www.w3.org/2000/svg"><circle cx="55" cy="55" fill="#32bea6" r="55"/><path d="m23 26.84a3.84 3.84 0 0 1 3.84-3.84h28.16l16 13.44v46.72a3.84 3.84 0 0 1 -3.84 3.84h-40.32a3.84 3.84 0 0 1 -3.84-3.84z" fill="#fff"/><path d="m55 23v9.6a3.84 3.84 0 0 0 3.84 3.84h12.16z" fill="#f0f1f1"/><path d="m52 70h10c.551 0 1-.448 1-1v-5c0-.552-.449-1-1-1h-10c-.551 0-1 .448-1 1v5c0 .552.449 1 1 1z" fill="#e2e4e5"/><path d="m62 72h-10c-1.654 0-3-1.346-3-3v-5c0-1.654 1.346-3 3-3h10c1.654 0 3 1.346 3 3v5c0 1.654-1.346 3-3 3zm-10-9c-.551 0-1 .448-1 1v5c0 .552.449 1 1 1h10c.551 0 1-.448 1-1v-5c0-.552-.449-1-1-1z" fill="#b6bcbd"/><path d="m30 70h10c.551 0 1-.448 1-1v-5c0-.552-.449-1-1-1h-10c-.551 0-1 .448-1 1v5c0 .552.449 1 1 1z" fill="#e2e4e5"/><path d="m40 72h-10c-1.654 0-3-1.346-3-3v-5c0-1.654 1.346-3 3-3h10c1.654 0 3 1.346 3 3v5c0 1.654-1.346 3-3 3zm-10-9c-.551 0-1 .448-1 1v5c0 .552.449 1 1 1h10c.551 0 1-.448 1-1v-5c0-.552-.449-1-1-1z" fill="#b6bcbd"/><path d="m41 50h10c.551 0 1-.448 1-1v-5c0-.552-.449-1-1-1h-10c-.551 0-1 .448-1 1v5c0 .552.449 1 1 1z" fill="#9ce5f4"/><path d="m50.272 52h-2.258l4.714 9h2.258zm-8.544 0-4.714 9h2.258l4.714-9z" fill="#cfd3d4"/><path d="m51 52h-10c-1.654 0-3-1.346-3-3v-5c0-1.654 1.346-3 3-3h10c1.654 0 3 1.346 3 3v5c0 1.654-1.346 3-3 3zm-10-9c-.551 0-1 .448-1 1v5c0 .552.449 1 1 1h10c.551 0 1-.448 1-1v-5c0-.552-.449-1-1-1z" fill="#40c9e7"/><path d="m84.144 57.498-21.203 23.968-5.877 1.21a3.997 3.997 0 0 0 -3.595-3.18l.484-5.981 21.203-23.967z" fill="#f4d0a1"/><path d="m84.115 57.473a.038.038 0 0 1 .003.054l-20.721 23.423c-.033.038-.086-.002-.062-.047a2.996 2.996 0 0 0 -.653-3.672 2.998 2.998 0 0 0 -3.905-.062.035.035 0 0 1 -.052-.046 2.997 2.997 0 0 0 -.537-3.868 2.996 2.996 0 0 0 -3.762-.173c-.036.027-.077-.015-.047-.049l20.752-23.458a.038.038 0 0 1 .054-.003z" fill="#059bbf"/><path d="m76.482 48.051 8.988 7.951-1.325 1.498-8.988-7.95z" fill="#facb1b"/><path d="m84.996 47.571-.09-.08a5.94 5.94 0 0 0 -8.385.513l-.04.045 8.988 7.951.04-.045a5.939 5.939 0 0 0 -.513-8.384z" fill="#f79392"/><path d="m84.119 57.527-20.748 23.452c-.03.034-.077-.002-.055-.042a2.996 2.996 0 0 0 -.634-3.707 2.997 2.997 0 0 0 -3.897-.068c-.019.015-.041-.008-.025-.026l20.865-23.586a.037.037 0 0 1 .053-.003l4.437 3.925a.04.04 0 0 1 .004.055z" fill="#0484ab"/><path d="m57.064 82.675-3.918.807.323-3.987a4.001 4.001 0 0 1 3.595 3.18z" fill="#3e3e3f"/></svg>