<svg height="110" width="110" xmlns="http://www.w3.org/2000/svg"><circle cx="55" cy="54.98" fill="#e04f5f" r="55"/><path d="M23 68.982h64v18H23z" fill="#4ac3af"/><path d="M23 68.982l8-16h48l8 16z" fill="#8ce3d4"/><path d="M28 66.982l6-12h42l6 12z" fill="#0d9681"/><circle cx="71" cy="60.982" fill="#c2f8f0" r="1"/><circle cx="39" cy="60.982" fill="#c2f8f0" r="1"/><ellipse cx="55" cy="60.982" fill="#c2f8f0" rx="6" ry="5"/><path d="M54.96 57.501c.272 0 .488.18.488.407v.109c.507.062.957.188 1.361.376.178.086.338.235.338.47 0 .297-.281.524-.638.524a.775.775 0 0 1-.328-.071 4.058 4.058 0 0 0-.779-.266v1.19c1.426.321 2.036.806 2.036 1.683 0 .876-.807 1.44-1.99 1.55v.415c0 .227-.216.407-.488.407s-.488-.18-.488-.407v-.423a5.31 5.31 0 0 1-1.849-.548c-.197-.102-.319-.258-.319-.47 0-.305.282-.532.648-.532.122 0 .253.039.366.102.394.211.77.36 1.201.438V61.21c-1.351-.305-2.018-.736-2.018-1.667 0-.861.788-1.44 1.971-1.542v-.094c.001-.226.216-.406.488-.406zm-.44 2.536V58.98c-.45.055-.647.243-.647.493-.001.243.13.408.647.564zm.882 1.37v1.088c.441-.055.666-.227.666-.509 0-.258-.16-.43-.666-.579z" fill="#17b198"/><path d="M23 70.982h64v2H23zm0 4h64v2H23zm0 4h64v2H23zm0 4h64v2H23z" fill="#c2f8f0"/><path d="M23 70.982h21.527l2-2H23zm0 4h17.527l2-2H23zm0 10v2h5.527l2-2zm0-6h13.527l2-2H23zm0 4h9.527l2-2H23z" fill="#8ce3d4"/><path d="M23 68.982h23.527l2-2H28l6-12h26.527l2-2H31z" fill="#c2f8f0"/><path d="M49 60.982c0-2.761 2.686-5 6-5 1.331 0 2.556.365 3.551.976l1.976-1.976H34l-6 12h20.527l2.364-2.364C49.729 63.706 49 62.416 49 60.982zm-10 1a1 1 0 1 1 0-2 1 1 0 0 1 0 2z" fill="#17b198"/><g fill="#fff"><circle cx="39" cy="60.982" r="1"/><path d="M49 60.982c0 1.435.729 2.725 1.891 3.636l1.715-1.715c-.184-.102-.301-.251-.301-.455 0-.305.282-.532.648-.532.122 0 .253.039.366.102.04.021.079.034.118.054l.906-.906c-1.227-.303-1.84-.734-1.84-1.622 0-.861.788-1.44 1.971-1.542v-.094c0-.227.216-.407.488-.407s.488.18.488.407v.109c.507.062.957.188 1.361.376a.748.748 0 0 1 .18.126l1.562-1.562a6.786 6.786 0 0 0-3.551-.976C51.686 55.982 49 58.22 49 60.982z"/><path d="M55.402 59.051v1.056l.788-.788-.009-.002a4.081 4.081 0 0 0-.779-.266zm-1.53.423c0 .243.131.407.647.563V58.98c-.45.055-.647.243-.647.494zM23 72.982h19.527l2-2H23zm0 4h15.527l2-2H23zm0 4h11.527l2-2H23zm0 4h7.527l2-2H23z"/></g><path d="M69.663 28.626l4.225 4.225L65 41.739l-10-10-21.242 21.243h8.484L55 40.224l10 10 13.13-13.13 4.226 4.225L87 23.982z" fill="#fbe158"/></svg>