<svg version="1" xmlns="http://www.w3.org/2000/svg" width="110" height="110"><circle cx="55" cy="55" r="55" fill="#32BEA6"/><path d="M87 29a4 4 0 0 0-4-4H27a4 4 0 0 0-4 4v52a4 4 0 0 0 4 4h56a4 4 0 0 0 4-4V29z" fill="#F0F1F1"/><path d="M83 25H27a4 4 0 0 0-4 4v52c0 1.219.557 2.297 1.417 3.031l58.99-58.99C83.271 25.027 83.139 25 83 25z" fill="#FFF"/><path fill="#17B198" d="M49 73h12v4H49zm0-8h12v4H49z"/><path fill="#F3B607" d="M49 57h12v4H49z"/><path fill="#17B198" d="M33 73h12v4H33zm0-8h12v4H33z"/><path fill="#F3B607" d="M33 57h12v4H33z"/><path fill="#F37A10" d="M33 49h12v4H33z"/><path fill="#17B198" d="M65 73h12v4H65zm0-8h12v4H65z"/><path fill="#F3B607" d="M65 57h12v4H65z"/><path fill="#F37A10" d="M49 49h12v4H49z"/><path fill="#FA5655" d="M49 41h12v4H49z"/><path fill="#DF2C2C" d="M49 33h12v4H49z"/></svg>