<svg height="110" width="110" xmlns="http://www.w3.org/2000/svg"><circle cx="55" cy="55" fill="#32bea6" r="55"/><path d="m36.747 64.479-5.638-12.453a2.38 2.38 0 1 0 -4.337 1.963l5.641 12.459z" fill="#3e3e3f"/><path d="m41 67-1-4-11 5 4 3z" fill="#f3b607"/><path d="m83 71.993c-2.201-1.403-10-3.993-16-6.993 1.389-6.625 5-18 3-31-.912-5.93-11-11-15-11s-14.088 5.07-15 11c-2 13 1.611 24.375 3 31-6 3-13.799 5.59-16 6.993-3.041 1.938-4 15.007-4 15.007h64s-.959-13.069-4-15.007z" fill="#3e3e3f"/><path d="m55 73.25v-50.25c-4 0-14.088 5.07-15 11-2 13 1.611 24.375 3 31z" fill="#5b5c5f"/><path d="m55 41c-7 0-12 1-12 1v5s7 6 12 6 12-6 12-6v-5s-5-1-12-1z" fill="#fbd7d7"/><path d="m67 47v-5s-5-1-12-1v12c5 0 12-6 12-6z" fill="#fbc8c8"/><path d="m51.994 46a2 2 0 0 0 -2-2h-.006c.001.021.006.041.006.062a2 2 0 0 1 -1.994 2 1.996 1.996 0 0 0 3.994-.062zm9.993 0a2 2 0 0 0 -2-2h-.006c.001.021.006.041.006.062a2 2 0 0 1 -1.994 2 1.998 1.998 0 0 0 3.994-.062z" fill="#3e3e3f"/><path d="m57.932 75.265-14.932-10.265a85.295 85.295 0 0 1 -4.495 2.063l15.416 11.157z" fill="#e2e4e5"/><path d="m53.391 87 21.117-18.68a149.75 149.75 0 0 1 -4.536-1.924l-27.972 20.604z" fill="#f1f2f2"/></svg>