<svg version="1" xmlns="http://www.w3.org/2000/svg" width="110" height="110"><circle cx="55" cy="55" r="55" fill="#E04F5F"/><path d="M75.164 47.319C80.73 49.695 87 45.625 87 39.5c0-6.674-7.339-10.706-12.964-7.224C70.7 26.803 63.441 23 55 23s-15.7 3.803-19.036 9.276C30.335 28.791 23 32.83 23 39.5c0 6.128 6.274 10.193 11.836 7.819 2.466 4.571 8.833 4.954 11.848.755 1.698 3.81 2.894 8.649 2.579 9.685a4.962 4.962 0 0 0-3.264-1.24c-3.57 0-6.041 3.675-4.567 6.982C32.827 64.183 27 65.494 27 67c0 3.603 21.341 3.129 20.994 4.129-3.661 10.623-9.04 12.076-7.884 14.683A2.002 2.002 0 0 0 41.938 87h26.124c.79 0 1.506-.466 1.828-1.188 1.176-2.648-4.18-3.935-7.884-14.683C61.659 70.129 83 70.603 83 67c0-1.506-5.827-2.817-14.433-3.499 1.474-3.306-.996-6.982-4.567-6.982a4.962 4.962 0 0 0-3.264 1.24c-.304-1.002.82-5.738 2.579-9.685 3.009 4.19 9.378 3.824 11.849-.755z" fill="#F0F1F1"/><path d="M35.964 32.276C30.335 28.791 23 32.83 23 39.5c0 6.128 6.273 10.193 11.836 7.819 2.466 4.571 8.833 4.954 11.848.755 1.698 3.81 2.894 8.649 2.579 9.685a4.962 4.962 0 0 0-3.264-1.24c-3.57 0-6.041 3.675-4.567 6.982C32.827 64.183 27 65.494 27 67c0 3.603 21.341 3.129 20.994 4.129-3.661 10.623-9.04 12.076-7.884 14.683A2.002 2.002 0 0 0 41.938 87H55V23c-8.441 0-15.7 3.803-19.036 9.276z" fill="#FFF"/></svg>