<svg version="1" xmlns="http://www.w3.org/2000/svg" width="110" height="110"><circle cx="55" cy="55" r="55" fill="#E04F5F"/><path d="M70 45h-1v-.021c-.005-2.565-.092-5.044-.51-7.281L55 35l-13.49 2.698c-.418 2.237-.505 4.716-.51 7.281V45h-1c-1 0-2 1.111-2 2.222 0 3.091.864 7.13 4.178 7.703C44.62 64.027 50.396 67.465 55 69c4.604-1.535 10.38-4.973 12.822-14.075C71.136 54.353 72 50.313 72 47.222 72 46.111 71 45 70 45z" fill="#FBC8C8"/><path d="M55 70H45l-13.241 2.872a8 8 0 0 0-5.168 4.791L23 87h32V70zm0 0h10l13.241 2.872a8 8 0 0 1 5.168 4.791L87 87H55V70z" fill="#FFF"/><path fill="#F1F2F2" d="M45 70v-3l-4 1-6 7h7l-3 6 9 6h5zm20 0v-3l4 1 6 7h-7l3 6-9 6h-5z"/><path fill="#E2E4E5" d="M28 83h11v2H28z"/><path fill="#DF2C2C" d="M30 80h3v3h-3z"/><path d="M33 80h-3v-.5c0-.825.675-1.5 1.5-1.5s1.5.675 1.5 1.5v.5z" fill="#FA5655"/><path fill="#F37A10" d="M34 81h3v2h-3z"/><path d="M37 81h-3v-.5c0-.825.675-1.5 1.5-1.5s1.5.675 1.5 1.5v.5z" fill="#F3B607"/><path d="M45 61.433V70l8 17h2V69c-3.284-1.095-7.159-3.171-10-7.567z" fill="#FBC8C8"/><path d="M55 69v18h2l8-17v-8.567c-2.841 4.396-6.716 6.472-10 7.567z" fill="#F7B4B4"/><path d="M55 35l-13.49 2.698c-.418 2.237-.505 4.716-.51 7.281V45h-1c-1 0-2 1.111-2 2.222 0 3.091.864 7.13 4.178 7.703C44.62 64.027 50.396 67.465 55 69V35z" fill="#FBD7D7"/><path d="M50 58h10s0 3-5 3-5-3-5-3z" fill="#F79392"/><path d="M51.994 47a2 2 0 0 0-2-2h-.006c.001.021.006.041.006.062a2 2 0 0 1-1.994 2A1.996 1.996 0 0 0 51.994 47zm9.993 0a2 2 0 0 0-2-2h-.006c.001.021.006.041.006.062a2 2 0 0 1-1.994 2A1.998 1.998 0 0 0 61.987 47zM41 45l-1-7 15-3s-3 7.979-14 10zm28 0l1-7-15-3s3 7.979 14 10z" fill="#3E3E3F"/><path fill="#FFF" d="M55 23l-16 6 1 9 15-3 15 3 1-9z"/><g fill="#FA5655"><path d="M54 26h2v8h-2z"/><path d="M51 29h8v2h-8z"/></g></svg>