<svg height="110" width="110" xmlns="http://www.w3.org/2000/svg"><circle cx="55" cy="55" fill="#32bea6" r="55"/><path d="m79 35a4 4 0 0 0 -4-4h-40a4 4 0 0 0 -4 4v28h48z" fill="#3e3e3f"/><path d="m31 35v28h11.062l32-32h-39.062a4 4 0 0 0 -4 4z" fill="#5b5c5f"/><path d="m84.172 85.828a4 4 0 0 1 -2.829 1.172h-52.686a3.995 3.995 0 0 1 -2.828-1.172l-2.829-2.828h64z" fill="#fff"/><path d="m79 63h-48l-8 20h64z" fill="#f0f1f1"/><path d="m61.447 76.894c-.246-.492-.897-.894-1.447-.894h-10c-.55 0-1.201.402-1.447.894l-1.106 2.211c-.246.493.003.895.553.895h14c.55 0 .799-.402.553-.894zm13.553-4.894c0 .55-.45 1-1 1h-37c-.55 0-1-.45-1-1s.45-1 1-1h37c.55 0 1 .45 1 1zm-1.773-4c0 .55-.45 1-1 1h-33.454c-.55 0-1-.45-1-1s.45-1 1-1h33.455c.549 0 .999.45.999 1z" fill="#cfd3d4"/><g fill="#fff"><path d="m64 43h-16.626l-1.455-3.394a1 1 0 0 0 -.919-.606h-3a1 1 0 0 0 0 2h1.681a1 1 0 0 1 .919.606l5.48 12.788c.159.368.52.606.92.606h8a1 1 0 0 0 0-2h-6.681a1 1 0 0 1 -.919-.606l-.598-1.394h9.198c.55 0 1.201-.402 1.447-.895l3.105-6.211c.247-.492-.002-.894-.552-.894z"/><circle cx="57.5" cy="57.5" r="1.5"/><circle cx="51.875" cy="57.5" r="1.5"/><path d="m42.062 63h-11.062l-7.375 18.438z"/></g></svg>