<svg height="110" width="110" xmlns="http://www.w3.org/2000/svg"><circle cx="55" cy="55" fill="#fabc3d" r="55"/><path d="M41 43h28v35H41z" fill="#6fdaf1"/><path d="M41 76.381l28-28V43H41z" fill="#9ce5f4"/><path d="M33 33.671V83h44V33.671c-12.193-7.713-31.807-7.713-44 0zM48 78h-7V68h7zm0-12h-7V56h7zm0-12h-7V43h7zm12 24H50V68h10zm0-12H50V56h10zm0-12H50V43h10zm9 24h-7V68h7zm0-12h-7V56h7zm0-12h-7V43h7z" fill="#df2c2c"/><path d="M31.429 29.826a1.003 1.003 0 0 0-.429.821v2.457a.999.999 0 0 0 1.55.834c12.3-8.089 32.6-8.089 44.901 0A1.001 1.001 0 0 0 79 33.104v-2.457a1 1 0 0 0-.429-.821c-13.047-9.101-34.095-9.101-47.142 0z" fill="#bf0302"/><path d="M41 33h28v7H41z" fill="#fff"/><path d="M44.879 34.419h1.831c1.119 0 1.675.809 1.675 1.617 0 .815-.562 1.624-1.669 1.624h-.679V39h-1.158zm1.831 2.213c.699.007.699-1.139 0-1.132h-.673v1.132zM50.043 39h-1.165v-4.581h1.165v1.734h1.32v-1.734h1.165V39h-1.165v-1.728h-1.32zm3.101-3.073c0-1.054.944-1.572 1.896-1.572s1.902.524 1.902 1.572v1.566c0 1.048-.945 1.572-1.896 1.572s-1.902-.524-1.902-1.572zm1.158 1.566c0 .336.375.498.744.498s.738-.168.738-.498v-1.566c0-.356-.382-.518-.757-.518-.362 0-.725.181-.725.518zm3.255-3.074h1.1l1.106 1.954.388.919.033-.006c-.007 0-.123-.79-.13-.79v-2.077h1.152V39h-1.171L59 37.195l-.401-.918-.032.006.149.886V39h-1.158v-4.581zm5.545 1.799h1.857v1.003h-1.857v.686h2.019V39h-3.189v-4.581h3.189v1.087h-2.019zM79 87H31v-2a2 2 0 0 1 2-2h44a2 2 0 0 1 2 2z" fill="#3e3e3f"/></svg>