<svg version="1" xmlns="http://www.w3.org/2000/svg" width="110" height="110"><circle cx="55" cy="55" r="55" fill="#32BEA6"/><path d="M83 31a4 4 0 0 0-4-4H31a4 4 0 0 0-4 4v24h56V31z" fill="#FFF"/><path d="M51 49.239V55h3v-5.05a10.967 10.967 0 0 1-3-.711z" fill="#FA5655"/><path d="M55 50c-.337 0-.67-.021-1-.05V55h3v-5.19a11.07 11.07 0 0 1-2 .19z" fill="#FACB1B"/><path d="M57 49.81V55h3v-6.21c-.932.477-1.938.824-3 1.02z" fill="#21B2D1"/><circle cx="55" cy="39" r="11" fill="#CFD3D4"/><path d="M55 28c-6.075 0-11 4.925-11 11 0 3.39 1.536 6.42 3.947 8.438l2.136-2.136A7.98 7.98 0 0 1 47 39a8 8 0 0 1 8-8 7.98 7.98 0 0 1 6.302 3.083l2.136-2.136A10.976 10.976 0 0 0 55 28z" fill="#CFD3D4"/><path d="M86.795 62.384L83 55H27l-3.795 7.384a3.955 3.955 0 0 0-.151.616h63.893a4.104 4.104 0 0 0-.152-.616z" fill="#E2E4E5"/><path d="M87 73v-9.351c0-.218-.019-.435-.054-.649H23.054a4.022 4.022 0 0 0-.054.649V73a2 2 0 0 0 2 2h60a2 2 0 0 0 2-2z" fill="#FFF"/><circle cx="36" cy="43" r="4" fill="#DF2C2C"/><path d="M79 40a1 1 0 0 1-1 1h-8a1 1 0 0 1-1-1v-8a1 1 0 0 1 1-1h8a1 1 0 0 1 1 1v8z" fill="#21B2D1"/><circle cx="74" cy="36" r="4" fill="#6FDAF1"/><circle cx="55" cy="39" r="8" fill="#3E3E3F"/><path fill="#DF2C2C" d="M54 63h-5l2-8h3z"/><path fill="#059BBF" d="M62 63h-5v-8h3z"/><path fill="#F3B607" d="M58 63h-5l1-8h3z"/><path d="M83 69c0 1.1-.9 2-2 2H29c-1.1 0-2-.9-2-2s.9-2 2-2h52c1.1 0 2 .9 2 2z" fill="#3E3E3F"/><path d="M36 39a4 4 0 0 0-2.833 6.824l5.656-5.656A3.98 3.98 0 0 0 36 39z" fill="#FA5655"/><path d="M74.917 69H35.083C31.5 71.917 27 82.583 27 87h56c0-4.417-4.5-15.083-8.083-18z" fill="#F0F1F1"/><path d="M69.266 69H40.734c-2.567 1.62-5.79 7.546-5.79 10h40.112c0-2.454-3.224-8.38-5.79-10z" fill="#6FDAF1"/><path d="M34.944 79c0-2.454 3.223-8.38 5.79-10h-5.651C31.5 71.916 27 82.583 27 87h12.991l8-8H34.944z" fill="#FFF"/><path d="M40.734 69c-2.567 1.62-5.79 7.546-5.79 10h13.047l10-10H40.734z" fill="#9CE5F4"/><path d="M55 31a8 8 0 0 0-8 8 7.98 7.98 0 0 0 3.036 6.267l11.23-11.23A7.974 7.974 0 0 0 55 31z" fill="#5B5C5F"/></svg>