<svg version="1" xmlns="http://www.w3.org/2000/svg" width="110" height="110"><circle cx="55" cy="55" r="55" fill="#FABC3D"/><path d="M57.655 67.997h-5.31a2.999 2.999 0 0 1-2.24-1.004L45 62.997v4.5s0 7.5 10 7.5 10-7.5 10-7.5v-4.5l-5.105 3.996a2.999 2.999 0 0 1-2.24 1.004z" fill="#F7B4B4"/><path d="M50.105 66.993L45 62.997v4.5s0 7.5 10 7.5v-7h-2.655a2.999 2.999 0 0 1-2.24-1.004z" fill="#FBC8C8"/><path d="M72 47.228c0-1.111-1-2.222-2-2.222-.421 0-.737.101-1 .241 0-9.14-.911-15.244-14-15.244-12.976 0-13.982 6-14 15V53l4 10 5.105 3.996A2.999 2.999 0 0 0 52.345 68h5.31c.856 0 1.671-.365 2.24-1.004L65 63l3.206-8.013C71.042 54.783 72 50.482 72 47.228z" fill="#FBC8C8"/><path d="M41 45.247a2.054 2.054 0 0 0-1-.241c-1 0-2 1.111-2 2.222 0 3.254.958 7.555 3.794 7.759L45 63l5.105 3.996A2.999 2.999 0 0 0 52.345 68H55V30.003c-13.085 0-14 6.1-14 15.244z" fill="#FBD7D7"/><path d="M67 68l-2-1s-3 8.003-10 8.003S45 67 45 67l-2 1 12 19.003L67 68z" fill="#FFF"/><path d="M30.043 73.017A6.002 6.002 0 0 0 27 76l-4 11h32L43 68l-12.957 5.017zM83 76a6.002 6.002 0 0 0-3.043-2.983L67 68 55 87h32l-4-11z" fill="#F37A10"/><path d="M51.994 47.036a2 2 0 0 0-2-2h-.006c.001.021.006.041.006.062a2 2 0 0 1-1.994 2 1.996 1.996 0 0 0 3.994-.062zm9.993 0a2 2 0 0 0-2-2h-.006c.001.021.006.041.006.062a2 2 0 0 1-1.994 2 1.996 1.996 0 0 0 3.994-.062z" fill="#3E3E3F"/><path fill="#F99134" d="M45 67.003L43 68l12 19-3 .003-7-10-9 2 5-14 4-.494zm20 0L67 68 55 87l3 .003 7-10 9 2-5-14-4-1z"/><path d="M55 53.003s-6 0-9 2c0 7 5 12 5 12l4 2 4-2s5-5 5-12c-3-2-9-2-9-2zm2 8l-1-1h-2l-1 1h-2l-1.183-1.971a1.999 1.999 0 0 1 1.715-3.029h6.936a2 2 0 0 1 1.715 3.029L59 61.003h-2z" fill="#3E3E3F"/><path d="M72.755 82.976v-3.458h-1.243l-2.447 3.329a1.376 1.376 0 0 0-.557-.54c.608-.38.659-1.234.422-1.826-.321-.794-1.065-1.048-1.8-1.048-.676 0-1.395.363-1.885.972l.879.778c.372-.423 1.107-.533 1.378-.11.169.254.034.735-.354.735h-.896v1.209h.93c.432 0 .651.271.651.575 0 .321-.347.516-.752.516-.355 0-.744-.152-.964-.508l-.98.905c.448.752 1.234 1.082 2.003 1.082.934 0 1.843-.517 2.097-1.386h2.074v1.302h1.445v-1.302h.558v-1.226h-.559zm-1.336.016h-1.057l1.074-1.53-.017 1.53z" fill="#FFF"/><path d="M43.5 36.003v17.083h-2c0-1.976-.021-3.28 0-5.02.021-1.783-.426-3.063-1.375-3.063-1.125 0-2.558-9 3.375-9zm23.113 0v17.083h2c0-1.976.021-3.28 0-5.02-.021-1.783.426-3.063 1.375-3.063 1.125 0 2.558-9-3.375-9z" fill="#3E3E3F"/></svg>