<svg height="110" width="110" xmlns="http://www.w3.org/2000/svg"><circle cx="55" cy="55" fill="#e04f5f" r="55"/><path d="m59 34-32 12v25l24 12 32-12v-25z" fill="#fcf6c2"/><path d="m83 71-32 12v-25l32-12z" fill="#f3b607"/><path d="m27 71 24 12v-25l-24-12z" fill="#facb1b"/><path d="m59 48v4c0 1.1-2.69 2-6 2s-6-.9-6-2v-4c0 1.1 2.69 2 6 2s6-.9 6-2z" fill="#f3b607"/><path d="m53 46c-3.31 0-6 .9-6 2s2.69 2 6 2 6-.9 6-2-2.69-2-6-2z" fill="#fcf6c2"/><path d="m47 42v4c0 1.1-2.69 2-6 2s-6-.9-6-2v-4c0 1.1 2.69 2 6 2s6-.9 6-2z" fill="#f3b607"/><path d="m41 40c-3.31 0-6 .9-6 2s2.69 2 6 2 6-.9 6-2-2.69-2-6-2z" fill="#fcf6c2"/><path d="m63 36v4c0 1.1-2.69 2-6 2s-6-.9-6-2v-4c0 1.1 2.69 2 6 2s6-.9 6-2z" fill="#f3b607"/><path d="m57 34c-3.31 0-6 .9-6 2s2.69 2 6 2 6-.9 6-2-2.69-2-6-2z" fill="#fcf6c2"/><path d="m75 42v4c0 1.1-2.69 2-6 2s-6-.9-6-2v-4c0 1.1 2.69 2 6 2s6-.9 6-2z" fill="#f3b607"/><path d="m69 40c-3.31 0-6 .9-6 2s2.69 2 6 2 6-.9 6-2-2.69-2-6-2z" fill="#fcf6c2"/></svg>