<svg version="1" xmlns="http://www.w3.org/2000/svg" width="110" height="110"><circle cx="55" cy="55" r="55" fill="#32BEA6"/><path fill="#3E3E3F" d="M47 23h12v14H47z"/><circle cx="53" cy="30" r="5" fill="#5B5C5F"/><path fill="#F0F1F1" d="M27 65h52v18H27z"/><path fill="#CFD3D4" d="M27 59h52v6H27z"/><path fill="#FFF" d="M27 59l8-12h36l8 12z"/><path d="M85 63h-2v10h2a2 2 0 0 0 2-2v-6a2 2 0 0 0-2-2z" fill="#3E3E3F"/><path d="M83 75h-4V41c0-2.206-1.794-4-4-4H59v-4h16c4.411 0 8 3.589 8 8v34z" fill="#FFF"/><path d="M69 85a2 2 0 0 0 2 2h4a2 2 0 0 0 2-2v-2h-8v2zm-40 0a2 2 0 0 0 2 2h4a2 2 0 0 0 2-2v-2h-8v2z" fill="#3E3E3F"/><path fill="#CFD3D4" d="M72 71h2v8h-2zm-5 0h2v8h-2zm-5 0h2v8h-2z"/><path fill="#6FDAF1" d="M32 57l5-8h32l5 8z"/><path d="M43 39a2 2 0 0 0 2 2h16a2 2 0 1 0 0-4H45a2 2 0 0 0-2 2z" fill="#5B5C5F"/><circle cx="53" cy="30" r="3" fill="#6FDAF1"/><path fill="#3E3E3F" d="M57 43h-8l-2-2h12z"/><path fill="#E2E4E5" d="M27 59v6h27.869l6-6z"/><path fill="#FFF" d="M27 65v18h9.869l18-18z"/><path fill="#FA5655" d="M31 76h4v3h-4z"/><path fill="#32BEA6" d="M36 76h4v3h-4z"/></svg>