<svg version="1" xmlns="http://www.w3.org/2000/svg" width="110" height="110"><circle cx="55" cy="55" r="55" fill="#E04F5F"/><path d="M87 40v36c0 1.21-1.79 3-4 3H27c-2.21 0-4-1.79-4-3V40c0-3.21 1.79-5 4-5h56c2.21 0 4 1.79 4 5z" fill="#B6BCBD"/><path d="M87 39v9H23v-9c0-2.21 1.79-4 4-4h56c2.21 0 4 1.79 4 4z" fill="#F0F1F1"/><path fill="#E2E4E5" d="M49 48h12v31H49z"/><circle cx="70" cy="42" r="3" fill="#FFF"/><path d="M70 40a2 2 0 1 1-.001 4.001A2 2 0 0 1 70 40m0-2c-2.206 0-4 1.794-4 4s1.794 4 4 4 4-1.794 4-4-1.794-4-4-4z" fill="#B6BCBD"/><circle cx="79" cy="42" r="3" fill="#FFF"/><path d="M79 40a2 2 0 1 1-.001 4.001A2 2 0 0 1 79 40m0-2c-2.206 0-4 1.794-4 4s1.794 4 4 4 4-1.794 4-4-1.794-4-4-4z" fill="#B6BCBD"/><path d="M41 27h-1a1 1 0 0 0-1 1v7h2v-8zm30 1a1 1 0 0 0-1-1h-1v8h2v-7z" fill="#CFD3D4"/><path fill="#3E3E3F" d="M41 27h28v4H41z"/><circle cx="55" cy="58" r="2" fill="#5B5C5F"/><circle cx="55" cy="66" r="2" fill="#5B5C5F"/><path d="M27.08 35c-2.21 0-4 1.79-4 4v9H54l13-13H27.08z" fill="#FFF"/><path fill="#17B198" d="M47 40h16v4H47z"/><path fill="#4AC3AF" d="M62 40H47v4h11z"/><path d="M23 48v28c0 .573.41 1.272 1.067 1.853L53.92 48H23z" fill="#CFD3D4"/><path fill="#FA5655" d="M29 40h2v4h-2z"/><path fill="#F3B607" d="M33 40h2v4h-2z"/><path fill="#4AC3AF" d="M37 40h2v4h-2z"/><circle cx="36" cy="62" r="8.8" fill="#3E3E3F"/><path d="M74 51c-6.075 0-11 4.925-11 11 0 4.044 2.189 7.569 5.44 9.48l15.04-15.04C81.569 53.189 78.044 51 74 51z" fill="#F0F1F1"/><circle cx="74" cy="62" r="8.8" fill="#3E3E3F"/><circle cx="74" cy="62" r="3.3" fill="#818284"/><path d="M74 51c-6.075 0-11 4.925-11 11s4.925 11 11 11 11-4.925 11-11-4.925-11-11-11zm0 2.2c4.521 0 8.242 3.411 8.739 7.8H65.261c.497-4.389 4.218-7.8 8.739-7.8zm0 17.6c-4.521 0-8.242-3.411-8.739-7.8H82.74c-.498 4.389-4.219 7.8-8.74 7.8zM53.92 48H49v4.92z" fill="#F0F1F1"/><circle cx="36" cy="62" r="3.3" fill="#818284"/><path d="M36 51c-6.075 0-11 4.925-11 11s4.925 11 11 11 11-4.925 11-11-4.925-11-11-11zm0 2.2c4.521 0 8.242 3.411 8.739 7.8H27.261c.497-4.389 4.218-7.8 8.739-7.8zm0 17.6c-4.521 0-8.242-3.411-8.739-7.8H44.74c-.498 4.389-4.219 7.8-8.74 7.8z" fill="#F0F1F1"/></svg>