<svg height="110" width="110" xmlns="http://www.w3.org/2000/svg"><circle cx="55" cy="55" fill="#fabc3d" r="55"/><path d="m50.105 66.996-5.105-3.996v6l-14.957 4.017a6.002 6.002 0 0 0 -3.043 2.983l-4 11h32v-19h-2.655a2.999 2.999 0 0 1 -2.24-1.004z" fill="#bf8662"/><path d="m83 76a6.002 6.002 0 0 0 -3.043-2.983l-14.957-4.017v-6l-5.105 3.996a2.999 2.999 0 0 1 -2.24 1.004h-2.655v19h32z" fill="#af7653"/><path d="m72 47.259c0-1.111-1-2.222-2-2.222s-1 1.111-1 1.111v-1.111c-.018-9-1.024-15-14-15s-13.982 6-14 15v7.963l4 10 5.105 3.996a2.999 2.999 0 0 0 2.24 1.004h5.31c.856 0 1.671-.365 2.24-1.004l5.105-3.996 3.193-7.982c2.846-.191 3.807-4.5 3.807-7.759z" fill="#bf8662"/><path d="m41 45.036v1.111s0-1.111-1-1.111-2 1.111-2 2.222c0 3.259.961 7.568 3.807 7.76l3.193 7.982 5.105 3.996a2.999 2.999 0 0 0 2.24 1.004h2.655v-37.964c-12.976 0-13.982 6-14 15z" fill="#cc9978"/><path d="m50 57.036h10s0 3-5 3-5-3-5-3z" fill="#84462d"/><path d="m74 71s-2.886-.612-4-1c-1.178 10.274-3.681 12.001-15 12.001s-13.822-1.727-15-12.001c-1.114.388-4 1-4 1l-2 16h42z" fill="#fff"/><path d="m25.506 77.564.02-.023-.013.001z" fill="none"/><path d="m55.147 82.57-11.524-13.205a.5.5 0 0 1 .753-.658l10.76 12.33 10.482-12.325a.5.5 0 0 1 .762.648z" fill="#facb1b"/><circle cx="55" cy="82.911" fill="#facb1b" r="4"/><path d="m70.142 50.804h3v3h-3z" fill="#f3b607"/><path d="m57.178 81.539c0 .269-.155.489-.432.489-.44 0-.757-.823-1.507-.823-.236 0-.44.114-.44.375 0 .782 2.484.318 2.484 2.191 0 1.067-1.156 1.637-1.751 1.686-.195.016-.171.081-.171.277 0 .399-.024.391-.423.391-.375 0-.472.057-.472-.358 0-.13.041-.285-.122-.301-.309-.041-.945-.179-1.181-.35-.285-.212-.448-.937-.448-1.262 0-.187.081-.383.293-.383.562 0 .448 1.14 1.71 1.14.179 0 .595-.081.595-.35 0-.244-.073-.293-.953-.611-.741-.261-1.515-.774-1.515-1.653 0-.814.66-1.466 1.433-1.621.212-.041.187-.065.187-.285 0-.407.024-.391.423-.391.383 0 .472-.057.472.358 0 .114-.041.277.106.309.106.016.513.122.562.122.098 0 .22-.081.366-.081.304-.001.784.626.784 1.131z" fill="#fbec9a"/><path d="m70.142 53.804 3-3h-3z" fill="#fbe158"/><path d="m63 42.036h-16s-6-.582-6 4c0 4 3 7 6 7 5.324 0 5.379-5 8-5 2.623 0 2.674 5 8 5 3 0 6-3 6-7 0-4.581-6-4-6-4zm-7.067 4.1h-1.867s0-1.867-1.853-2.099h5.573c-1.853.232-1.853 2.099-1.853 2.099z" fill="#3e3e3f"/><path d="m47.467 44.285s-4.6-.39-4.6 2.678c0 1.568.791 2.903 1.906 3.743l6.617-6.421zm14.933 0s-4.6-.39-4.6 2.678c0 1.568.791 2.903 1.906 3.743l6.617-6.421z" fill="#5b5c5f"/><path d="m42.964 35.799-8.622 2.707c-2.355.878-2.368 2.348-.029 3.267l5.915 2.324c8.511 3.234 19.745 2.632 26.858-1.759z" fill="#fa5655"/><path d="m69.995 33.156c.272-1.732-10.731-7.649-13.419-8.071s-14.078 1.983-14.35 3.714l-2.161 7.921c-.272 1.732 6.125 4.173 14.288 5.454s15 .915 15.272-.816z" fill="#3e3e3f"/><path d="m49.54 31.324s-2.828.474-3.109 2.266 1.985 4.9 1.985 4.9 3.109-2.266 3.39-4.057c.281-1.792-2.266-3.109-2.266-3.109z" fill="#f3b607"/></svg>