<svg version="1" xmlns="http://www.w3.org/2000/svg" width="110" height="110"><circle cx="55" cy="55" r="55" fill="#E04F5F"/><path d="M23 87l4-11a6.002 6.002 0 0 1 3.043-2.983L43 68l9 19H23z" fill="#FACB1B"/><path fill="#FFF" d="M52 87l-9-19 2-.503V65l-4 1-6 17 10-2 5 6z"/><path d="M87 87l-4-11a6.002 6.002 0 0 0-3.043-2.983L67 68l-9 19h29z" fill="#FACB1B"/><path fill="#FFF" d="M58 87l9-19-2-.503V65l4 1 6 17-10-2-5 6z"/><path d="M65 62.997l-5.105 3.996a2.999 2.999 0 0 1-2.24 1.004h-5.31a2.999 2.999 0 0 1-2.24-1.004L45 62.997v4.5l-2 .5L52 87h6l9-19.003-2-.5v-4.5z" fill="#9C6144"/><path d="M50.105 66.993L45 62.997v4.5l-2 .5L52 87h3V67.997h-2.655a2.999 2.999 0 0 1-2.24-1.004z" fill="#BF8662"/><path d="M55 30c-12.976 0-13.982 6-14 15v7.997l4 10 5.105 3.996a2.999 2.999 0 0 0 2.24 1.004h5.31c.856 0 1.671-.365 2.24-1.004L65 62.997l4-10V45c-.018-9-1.024-15-14-15z" fill="#BF8662"/><path d="M41 45v7.997l4 10 5.105 3.996a2.999 2.999 0 0 0 2.24 1.004H55V30c-12.976 0-13.982 6-14 15z" fill="#CC9978"/><path d="M52 46.997a2 2 0 0 0-2-2h-.006c.001.022.006.042.006.063a2 2 0 0 1-1.994 2A1.996 1.996 0 0 0 52 46.997zm9.994 0a2 2 0 0 0-2-2h-.006c.001.021.006.041.006.062a2 2 0 0 1-1.994 2 1.996 1.996 0 0 0 3.994-.062z" fill="#3E3E3F"/><path d="M50 56.997h10s0 3-5 3-5-3-5-3z" fill="#84462D"/><path d="M55 23.286c-5.383.058-21 1.079-21 11.003 0 .526.293 1.177.733 1.862 2.901-6.814 15.53-6.83 20.267-6.852 4.737.021 17.366.037 20.267 6.852.44-.685.733-1.336.733-1.862 0-9.924-15.617-10.945-21-11.003z" fill="#099686"/><path d="M55 29.3c-4.737.021-17.366.037-20.267 6.852.562.878 1.368 1.811 2.149 2.628 3.99-3.716 12.68-3.465 18.118-3.48 5.438.015 14.128-.236 18.118 3.479.781-.817 1.587-1.75 2.149-2.628-2.901-6.814-15.53-6.83-20.267-6.851z" fill="#FACB1B"/><path d="M55 35.3c-5.448.015-14.129-.234-18.118 3.479.956 1 1.206 2.351 3.486 2.638 2.765.347 7.644.801 14.632.871 6.988-.071 11.868-.524 14.632-.871 2.281-.287 2.53-1.637 3.486-2.638C69.129 35.066 60.448 35.315 55 35.3z" fill="#DF2C2C"/><path d="M76.922 56.736l-4.786-16.687c-.498.635-1.131 1.195-2.504 1.368-1.362.171-3.243.368-5.632.532V67a2 2 0 0 0 4 0V55.285l1.015 8.248a2 2 0 0 0 3.97-.488l-1.191-9.678 1.283 4.473a2 2 0 1 0 3.845-1.104z" fill="#3E3E3F"/><path d="M55 29.3v-6.014c-5.383.058-21 1.079-21 11.003 0 .526.293 1.177.733 1.862 2.901-6.814 15.53-6.83 20.267-6.851z" fill="#12B2A0"/><path d="M55 35.3v-6c-4.737.021-17.366.037-20.267 6.852.562.878 1.368 1.811 2.149 2.628 3.99-3.716 12.68-3.465 18.118-3.48z" fill="#FBE158"/><path d="M36.882 38.779c.956 1 1.205 2.351 3.486 2.637 2.765.347 7.644.801 14.632.871V35.3c-5.448.015-14.129-.234-18.118 3.479z" fill="#FA5655"/><path d="M40.368 41.417c-1.373-.172-2.006-.732-2.504-1.367l-4.786 16.687a2 2 0 1 0 3.845 1.103l1.283-4.473-1.191 9.678a2 2 0 0 0 3.97.488L42 55.285V67a2 2 0 0 0 4 0V41.949c-2.389-.164-4.27-.361-5.632-.532z" fill="#3E3E3F"/></svg>