<svg height="110" width="110" xmlns="http://www.w3.org/2000/svg"><circle cx="55" cy="55" fill="#e04f5f" r="55"/><path d="m87 75a4 4 0 0 1 -4 4h-56a4 4 0 0 1 -4-4v-40a4 4 0 0 1 4-4h56a4 4 0 0 1 4 4z" fill="#f0f1f1"/><path d="m27 31a4 4 0 0 0 -4 4v40c0 1.347.67 2.531 1.69 3.256l47.256-47.256z" fill="#fff"/><circle cx="47" cy="55" fill="#3e3e3f" r="20"/><circle cx="29" cy="37" fill="#818284" r="2"/><path d="m83 73c0 1.1-.9 2-2 2h-4c-1.1 0-2-.9-2-2v-16c0-1.1.9-2 2-2h4c1.1 0 2 .9 2 2z" fill="#b6bcbd"/><circle cx="73" cy="41" fill="#3e3e3f" r="6"/><path d="m76.765 38.015a1 1 0 0 1 -1.349.426l-1.774-.923a1 1 0 0 1 -.426-1.349l1.384-2.661a1 1 0 0 1 1.349-.426l1.774.923a1 1 0 0 1 .426 1.349z" fill="#cfd3d4"/><path d="m75.416 38.44-1.774-.922-10.86 20.876-6.095 4.445 1.178 1.616 6.464-4.714-.018-.024.029.015z" fill="#5b5c5f"/><path d="m53.248 66.61-.024-.032a1.98 1.98 0 0 1 .433-2.766l2.44-1.78 2.357 3.232-2.44 1.78a1.981 1.981 0 0 1 -2.766-.434z" fill="#818284"/><g fill="#f0f1f1"><circle cx="79" cy="59" r="2"/><circle cx="79" cy="65" r="2"/><circle cx="79" cy="71" r="2"/></g><circle cx="73" cy="41" fill="#fff" r="2"/><path d="m47 35c-11.046 0-20 8.954-20 20 0 4.584 1.559 8.795 4.153 12.168l28.015-28.015c-3.373-2.594-7.584-4.153-12.168-4.153z" fill="#5b5c5f"/><circle cx="47" cy="55" fill="#df2c2c" r="8"/><circle cx="47" cy="55" fill="#fff" r="1.562"/><path d="m47 47a8 8 0 0 0 -8 8c0 1.259.299 2.445.817 3.505l10.688-10.688a7.956 7.956 0 0 0 -3.505-.817z" fill="#fa5655"/></svg>