<svg version="1" xmlns="http://www.w3.org/2000/svg" width="110" height="110"><circle cx="55" cy="55" r="55" fill="#32BEA6"/><path d="M57.655 67.994h-5.31a2.999 2.999 0 0 1-2.24-1.004L45 62.994v4.5s0 7.5 10 7.5 10-7.5 10-7.5v-4.5l-5.105 3.996a2.999 2.999 0 0 1-2.24 1.004z" fill="#F7B4B4"/><path d="M50.105 66.99L45 62.994v4.5s0 7.5 10 7.5v-7h-2.655a2.999 2.999 0 0 1-2.24-1.004z" fill="#FBC8C8"/><path d="M72 47.219c0-1.111-1-2.222-2-2.222s-1 1.111-1 1.111v-1.111c-.018-9-1.024-15-14-15s-13.982 6-14 15v7.997l4 10 5.105 3.996a2.999 2.999 0 0 0 2.24 1.004h5.31c.856 0 1.671-.365 2.24-1.004L65 62.994l3.207-8.017C71.042 54.773 72 50.473 72 47.219z" fill="#FBC8C8"/><path d="M41 44.997v1.111s0-1.111-1-1.111-2 1.111-2 2.222c0 3.253.958 7.554 3.793 7.758L45 62.994l5.105 3.996a2.999 2.999 0 0 0 2.24 1.004H55V29.997c-12.976 0-13.982 6-14 15z" fill="#FBD7D7"/><path d="M50 56.994h10s0 3-5 3-5-3-5-3z" fill="#F79392"/><path fill="#FFF" d="M67 67.997l-2-1L55 75l-10-8.003-2 1L55 87z"/><path d="M23 86.997l4-11a6.002 6.002 0 0 1 3.043-2.983L43 67.997l12 19H23zm64 0l-4-11a6.002 6.002 0 0 0-3.043-2.983L67 67.997l-12 19h32z" fill="#F37A10"/><path d="M51.994 47.033a2 2 0 0 0-2-2h-.006c.001.021.006.041.006.062a2 2 0 0 1-1.994 2 1.996 1.996 0 0 0 3.994-.062zm9.993 0a2 2 0 0 0-2-2h-.006c.001.021.006.041.006.062a2 2 0 0 1-1.994 2 1.996 1.996 0 0 0 3.994-.062z" fill="#3E3E3F"/><path d="M40 41c0 2.156 1 11.873 1 13l1 2h1c0-1.383-1-13 3-16l-6 1zm30 0c0 2.156-1 11.873-1 13l-1 2h-1c0-1.383 1-13-3-16l6 1zM47 57h8c0-4.548-6-3.791-8 0zm8 0h8c-2-3.791-8-4.548-8 0z" fill="#84462D"/><path fill="#FACB1B" d="M36.138 70.654l4.283 16.343h5.136L40.8 68.849zm37.862 0l-4.283 16.343h-5.135l4.756-18.148z"/><path d="M32.895 72.059l-2.852.958A5.999 5.999 0 0 0 27 76l-4 11h11.914l-2.019-14.941zm44.124 0l2.852.958A5.999 5.999 0 0 1 82.914 76l4 11H75l2.019-14.941z" fill="#FFF"/><path d="M40 41s-1-15 15-15v15H40z" fill="#FACB1B"/><path d="M70 41s1-15-15-15v15h15z" fill="#F3B607"/><path d="M58 31v-6a2 2 0 0 0-2-2h-2a2 2 0 0 0-2 2v6c.067 1.766-1.921 7.722-7 8h20c-5.079-.278-7.067-6.234-7-8z" fill="#FBE158"/><path d="M73 41.248a1 1 0 0 1-.744.966C70.313 42.73 64.561 44 55 44s-15.313-1.27-17.256-1.786a1 1 0 0 1-.744-.966V41a2 2 0 0 1 2-2h32a2 2 0 0 1 2 2v.248z" fill="#F3B607"/><path d="M39 39a2 2 0 0 0-2 2v.249a1 1 0 0 0 .744.966C39.687 42.73 45.439 44 55 44v-5H39z" fill="#FACB1B"/></svg>