<svg height="110" width="110" xmlns="http://www.w3.org/2000/svg"><circle cx="55" cy="55" fill="#32bea6" r="55"/><path d="m72.848 57c-1.72 4.302-4.449 6-7.79 6h-11.79c-12.53 0-4.15-17-16.68-17h-13.66l1.86-3.37c.7-1.28 2.04-2.07 3.5-2.07h8.64c16 0 10 16.44 19.14 16.44z" fill="#f3b607"/><path d="m83.928 72a3 3 0 0 0 -3 3c0 3.846-2.048 6-6.172 6 .54-4.323-.302-8.454-2.223-12h-7.355c2.956 3.184 4.323 7.544 3.521 12h-27.542c-.796-4.421.544-8.796 3.513-12h-3.742a7.973 7.973 0 0 1 -3.217-.678c-2.191 3.692-3.186 8.079-2.611 12.678h-9.172a3 3 0 1 0 0 6h49c7.178 0 12-4.822 12-12a3 3 0 0 0 -3-3z" fill="#f0f1f1"/><path d="m82.928 53c0 4.86 2.63 5.78 3.62 11.29.22 1.16-.11 2.37-.87 3.27-.76.91-1.88 1.44-3.07 1.44h-41.68c-4.42 0-8-3.58-8-8v-4c0-4.426-3.577-8-8-8a2 2 0 0 1 -2-2v-1h13.66c12.53 0 4.15 17 16.68 17h11.79c10.697 0 6.055-16.104 20.77-18.68.44-.08.89.15 1.08.57.19.41.08.9-.27 1.19-1.82 1.49-3.71 3.8-3.71 6.92z" fill="#df2c2c"/><path d="m36.928 40.56h-8.64c-1.46 0-2.8.79-3.5 2.07l-1.86 3.37h13.66c10.059 0 6.649 10.951 11.394 15.271l5.109-5.109c-4.931-3.338-2.34-15.602-16.163-15.602z" fill="#facb1b"/><path d="m36.588 46h-13.66v1a2 2 0 0 0 2 2c4.423 0 8 3.574 8 8v4c0 4.203 3.24 7.64 7.358 7.968l7.696-7.696c-4.745-4.321-1.335-15.272-11.394-15.272z" fill="#fa5655"/></svg>