<svg height="110" width="110" xmlns="http://www.w3.org/2000/svg"><circle cx="55" cy="55" fill="#fabc3d" r="55"/><path d="m87 79a8 8 0 0 1 -8 8h-48a8 8 0 0 1 -8-8v-48a8 8 0 0 1 8-8h48a8 8 0 0 1 8 8z" fill="#f0f1f1"/><path d="m79 23h-48a8 8 0 0 0 -8 8v48c0 2.259.94 4.296 2.447 5.75l59.304-59.304a7.972 7.972 0 0 0 -5.751-2.446z" fill="#fff"/><path d="m41 72.5a4 4 0 0 1 -8 0v-36a4 4 0 0 1 8 0zm18 0a4 4 0 0 1 -8 0v-36a4 4 0 0 1 8 0zm18 0a4 4 0 0 1 -8 0v-36a4 4 0 0 1 8 0z" fill="#3e3e3f"/><path d="m44 47c0-1.105-1.045-2-2.333-2h-9.333c-1.289 0-2.334.895-2.334 2v4c0 1.105 1.045 2 2.333 2h9.333c1.289 0 2.334-.895 2.334-2zm36 0c0-1.105-1.045-2-2.333-2h-9.333c-1.289 0-2.334.895-2.334 2v4c0 1.105 1.045 2 2.333 2h9.333c1.289 0 2.334-.895 2.334-2z" fill="#17b198"/><path d="m62 59c0-1.105-1.045-2-2.333-2h-9.333c-1.289 0-2.334.895-2.334 2v4c0 1.105 1.045 2 2.333 2h9.333c1.289 0 2.334-.895 2.334-2z" fill="#fa5655"/></svg>