<svg version="1" xmlns="http://www.w3.org/2000/svg" width="110" height="110"><circle cx="55" cy="55" r="55" fill="#FABC3D"/><path d="M59 81a6 6 0 0 1-6 6H29a6 6 0 0 1-6-6V29a6 6 0 0 1 6-6h24a6 6 0 0 1 6 6v52z" fill="#FFF"/><path fill="#3E3E3F" d="M25 35h32v40H25z"/><circle cx="34" cy="30" r="1" fill="#CFD3D4"/><path d="M49 30a1 1 0 0 1-1 1H38a1 1 0 0 1 0-2h10a1 1 0 0 1 1 1z" fill="#CFD3D4"/><circle cx="41" cy="81" r="4" fill="#CFD3D4"/><path fill="#FFF" d="M39 79h4v4h-4z"/><path fill="#5B5C5F" d="M57 39.676V35H25v36.676z"/><path d="M67 27c-11.046 0-20 6.321-20 14.118 0 3.817 2.155 7.274 5.642 9.814L48 63l12.103-8.645c2.153.559 4.47.88 6.897.88 11.046 0 20-6.321 20-14.118S78.046 27 67 27z" fill="#F0F1F1"/><path d="M67 27c-11.046 0-20 6.321-20 14.118 0 3.817 2.155 7.274 5.642 9.814L48 63l.431-.308 32.008-32.008C76.887 28.403 72.181 27 67 27z" fill="#FFF"/><circle cx="59" cy="41" r="2" fill="#21B2D1"/><circle cx="67" cy="41" r="2" fill="#21B2D1"/><circle cx="75" cy="41" r="2" fill="#21B2D1"/></svg>