<svg height="110" width="110" xmlns="http://www.w3.org/2000/svg"><circle cx="55" cy="55" fill="#25b7d3" r="55"/><path d="m84.486 45.962-16.486-6.708a4 4 0 0 0 -4.522 1.111c-4.506 10.943-17.358 25.359-26.793 24.603h-6.685c-4.283 0-7 4.577-7 8.86v.14c0 3.44 1.137 5.752 6.089 7.435 4.974 1.69 21.911 1.565 21.911 1.565h32a4 4 0 0 0 4-4v-29.292a4 4 0 0 0 -2.514-3.714z" fill="#0484ab"/><path d="m68 39.254a4 4 0 0 0 -4.522 1.111c-4.506 10.943-17.358 25.359-26.793 24.603h-6.685c-4.283 0-7 4.577-7 8.86v.14c0 3.44 1.137 5.752 6.089 7.435 1.35.458 3.583.783 6.118 1.013l40.163-40.163z" fill="#059bbf"/><path d="m87 73.27c-23 0-17.5 3.688-31 3.688-13.121 0-31.905-3.777-32.95-3.99-.031.276-.05.558-.05.85v.14c0 3.44 1.137 5.752 6.089 7.435 4.974 1.69 21.911 1.565 21.911 1.565h32a4 4 0 0 0 4-4z" fill="#df2c2c"/><path d="m87 78.998c0 2.21-1.79 4-4 4h-32s-16.94.12-21.91-1.57c-2.06-.7-3.46-1.51-4.39-2.46.1.01.199.026.3.03 44 1.97 50 0 50 0z" fill="#e2e4e5"/><path d="m23.051 72.968c-.031.276-.05.558-.05.85v.14c0 3.44 1.137 5.752 6.089 7.435 1.351.459 3.589.784 6.128 1.014l6.459-6.458a258.374 258.374 0 0 1 -18.626-2.981z" fill="#fa5655"/><path d="m55.667 76.968h2c0-6.48 8.032-13.083 15.917-13.083 5.325 0 10.071-1.369 13.417-3.788v-2.58c-2.97 2.773-7.819 4.368-13.417 4.368-9.042 0-17.917 7.471-17.917 15.083z" fill="#21b2d1"/><path d="m44.341 61.851a2 2 0 0 0 -.416 2.596l2.984 4.774a2.002 2.002 0 0 0 2.805.604l11.256-7.504a1.998 1.998 0 0 0 .305-3.078l-4.983-4.983a2.001 2.001 0 0 0 -2.695-.122z" fill="#facb1b"/><path d="m87 49.676v7.84c-2.97 2.78-7.82 4.37-13.42 4.37-2.06 0-4.11.39-6.05 1.09-6.14-4.53-10.24-10.87-10.66-11.53 2.81-3.63 5.14-7.54 6.6-11.08a4.007 4.007 0 0 1 4.53-1.11l16.48 6.71c1.52.6 2.52 2.08 2.52 3.71z" fill="#df2c2c"/><path d="m46.909 69.222-2.984-4.774a1.989 1.989 0 0 1 -.293-1.178c-2.407 1.221-4.778 1.865-6.963 1.688h-6.68c-2.98 0-5.2 2.21-6.27 5 .931 0 15.081 6.087 23.503-.365a1.924 1.924 0 0 1 -.313-.371z" fill="#fa5655"/><path d="m56.292 54.26a2 2 0 0 0 -2.695-.122l-9.257 7.713a2.002 2.002 0 0 0 -.416 2.597l2.984 4.774c.192.308.467.547.784.71l12.136-12.136zm11.708-15.004 5.97 2.431c-.18-4.229-1.262-6.75-2.97-6.75-.974 0-3.835 3.869-3.986 4.074a4 4 0 0 1 .986.245z" fill="#fbe158"/><path d="m68 39.256a4.007 4.007 0 0 0 -4.53 1.11c-1.46 3.54-3.79 7.45-6.6 11.08.24.377 1.682 2.606 4.016 5.292l14.482-14.481z" fill="#fa5655"/><path d="m25 78.998c-.1-.005-.2-.021-.3-.03.93.95 2.33 1.76 4.39 2.46 1.391.473 3.722.804 6.355 1.036l2.946-2.946c-4.024-.13-8.456-.299-13.391-.52z" fill="#fff"/><path d="m71.169 55.901a4.5 4.5 0 0 1 -6.274 1.064l-7.746-5.5a2 2 0 0 1 -.473-2.789l2.895-4.077a2 2 0 0 1 2.789-.473l7.746 5.5a4.5 4.5 0 0 1 1.063 6.275z" fill="#facb1b"/><path d="m62.36 44.126a2 2 0 0 0 -2.789.473l-2.895 4.077a2 2 0 0 0 .473 2.789l5.269 3.742 6.455-6.455z" fill="#fbe158"/></svg>