<svg version="1" xmlns="http://www.w3.org/2000/svg" width="110" height="110"><circle cx="55" cy="55" r="55" fill="#FABC3D"/><path d="M83 76a5.997 5.997 0 0 0-3.043-2.982L65 69v-5.001l-3.243 3.241a6 6 0 0 1-4.242 1.757h-5.031a6.001 6.001 0 0 1-4.242-1.757L45 63.999V69l-14.957 4.018A5.997 5.997 0 0 0 27 76l-4 11h64l-4-11z" fill="#0C7367"/><path d="M65.143 69.039L65 69v-5.001l-3.243 3.241a6 6 0 0 1-4.242 1.757h-5.031a6.001 6.001 0 0 1-4.242-1.757L45 63.999V69l-.143.039c1.786 1.178 4.719 2.018 8.143 2.259V80h4v-8.703c3.424-.241 6.357-1.08 8.143-2.258z" fill="#099686"/><path d="M68.831 41.482C67.781 39.744 61.441 39.044 55 39c-6.441.044-12.781.744-13.831 2.482-.129 1.4-.166 2.91-.169 4.518v12.343c0 1.061.422 2.079 1.172 2.829l6.071 6.069a6 6 0 0 0 4.242 1.757h5.031a6.001 6.001 0 0 0 4.242-1.757l6.071-6.069a4.002 4.002 0 0 0 1.172-2.829V46c-.004-1.608-.041-3.118-.17-4.518z" fill="#FBC8C8"/><path d="M41.169 41.482c-.129 1.4-.166 2.91-.169 4.518v12.343c0 1.061.422 2.079 1.172 2.829l6.071 6.068a6 6 0 0 0 4.242 1.757H55V39c-6.441.044-12.781.744-13.831 2.482z" fill="#FBD7D7"/><path d="M51 58h8s0 3-4 3-4-3-4-3z" fill="#F79392"/><path d="M76 87l-1.633-16.039a133.452 133.452 0 0 0-7.082-1.763L62.367 80H47.734l-4.918-10.802c-1.396.308-4.197.951-7.082 1.763L33.367 87H76z" fill="#3E3E3F"/><path fill="#5B5C5F" d="M68.082 87l-1.715-3H43.734l-1.714 3zM34.101 69.18l.074.978a3 3 0 0 0 3.356 2.752l3.703-.453a2.997 2.997 0 0 0 2.507-3.847l-.262-.867-9.378 1.437zm41.899 0l-.074.978a3 3 0 0 1-3.356 2.752l-3.703-.453a2.997 2.997 0 0 1-2.507-3.847l.262-.867L76 69.18z"/><path fill="#FACB1B" d="M69 75h10v10H69z"/><path fill="#3E3E3F" d="M70 81l4-4 4 4v2l-4-4-4 4zm-1.121-29.879A3 3 0 0 0 68 53.243V58l-4.444 4H46.444L42 58v-4.757c0-.796-.316-1.559-.879-2.121L39 49v8.68c0 .841.353 1.643.973 2.212l10.167 9.32a3 3 0 0 0 2.027.788h5.666c.75 0 1.474-.281 2.027-.789l10.167-9.32c.62-.568.973-1.37.973-2.211V49l-2.121 2.121zM58 67h-6l-2.222-2h10.444L58 67z"/><path d="M75 50c-1-7-1-10-3-11 0-11-9-16-17-16s-17 5-17 16c-2 1-2 4-3 11-.447 3.13 6 3 6 3V42c0-2.122 6.95-2.952 14-3 7.05.048 14 .878 14 3v11s6.447.13 6-3z" fill="#0C7367"/><path d="M55 23c-8 0-17 5-17 16-2 1-2 4-3 11-.447 3.13 6 3 6 3V42c0-2.122 6.95-2.952 14-3V23z" fill="#099686"/><path d="M55 35c-8.4 0-14 3-14 8 1.867-2 9.333-4 14-4s12.133 2 14 4c0-5-5.6-8-14-8z" fill="#12B2A0"/><path d="M70.541 42.929c-.231-.28-1.166-1.265-3.462-2.184C64.185 39.587 60.336 39 55.64 39c-.218 0-.438.001-.664.004A38.713 38.713 0 0 0 54.36 39c-11.089 0-14.358 3.273-14.901 3.929l-.476.576.017.747c.203 8.503 2.07 9.41 2.772 9.751 1.86.904 6.99 1.001 9.109 1.001 1.972 0 2.854-1.751 3.382-2.798.192-.381.55-1.091.754-1.215.167.124.524.833.717 1.215.528 1.046 1.411 2.798 3.382 2.798 2.119 0 7.25-.098 9.109-1.001.703-.341 2.569-1.249 2.772-9.751l.018-.748-.474-.575z" fill="#3E3E3F"/><path d="M55 41.007c-11.243-.13-13.897 3.193-14 3.2 0 2.4.174 7.285 1.647 8.001.105.051.232.099.375.144 9.223-5.683 15.052-9.372 17.705-11.065-1.603-.194-3.493-.305-5.727-.28z" fill="#5B5C5F"/></svg>