<svg version="1" xmlns="http://www.w3.org/2000/svg" width="110" height="110"><circle cx="55" cy="55" r="55" fill="#FABC3D"/><path d="M55 63c17.679 0 30 5.797 30 11S72.679 85 55 85s-30-5.797-30-11 12.321-11 30-11m0-2c-17.673 0-32 5.82-32 13s14.327 13 32 13 32-5.82 32-13-14.327-13-32-13z" fill="#FFF"/><path d="M55 69c12.389 0 18 3.452 18 4.5S67.389 78 55 78s-18-3.452-18-4.5S42.611 69 55 69m0-2c-11.046 0-20 2.91-20 6.5S43.954 80 55 80s20-2.91 20-6.5S66.046 67 55 67z" fill="#FFF"/><path d="M61.463 35.708A7.95 7.95 0 0 0 63.005 31a8 8 0 0 0-16 0c0 1.762.577 3.386 1.542 4.708-1.543.306-8.329 2.157-7.464 6.479l1.278 13.597A4.003 4.003 0 0 0 46.285 59h.97l.771 12.398A3.999 3.999 0 0 0 52.006 75h6a4 4 0 0 0 3.98-3.602L62.757 59h.97a4 4 0 0 0 3.922-3.215l1.279-13.597c.755-3.78-4.578-5.907-7.465-6.48z" fill="#DF2C2C"/><path d="M55 23a8 8 0 0 0-7.994 8c0 1.762.577 3.386 1.542 4.708-1.543.306-8.329 2.157-7.464 6.479l1.278 13.597A4.001 4.001 0 0 0 46.285 59h.97l.771 12.398A3.999 3.999 0 0 0 52.006 75H55V23z" fill="#FA5655"/></svg>