<svg version="1" xmlns="http://www.w3.org/2000/svg" width="110" height="110"><circle cx="55" cy="55" r="55" fill="#E04F5F"/><path d="M83 76a5.999 5.999 0 0 0-3.043-2.983L65 69v-6.006l-5.105 3.996a2.999 2.999 0 0 1-2.24 1.004h-5.31a2.999 2.999 0 0 1-2.24-1.004L45 62.994V69l-14.957 4.017A5.999 5.999 0 0 0 27 76l-4 11h64l-4-11z" fill="#0484AB"/><path d="M25.614 79.812L23 87h64l-2.143-5.894c-5.901-3.613-17.504-6.07-30.857-6.07-11.688 0-22.029 1.884-28.386 4.776z" fill="#21B2D1"/><path d="M66 69.275a.48.48 0 0 0-.957 0c0 2.625-4.941 5.703-8.298 7.411-.504-.951-1.124-1.672-1.745-1.672s-1.241.721-1.745 1.672c-3.357-1.707-8.299-4.785-8.299-7.411a.479.479 0 1 0-.957 0c0 3.338 5.731 6.696 8.853 8.277-.439 1.071-.721 2.237-.721 2.973 0 1.66.001 5.01 2.869 5.01s2.87-3.35 2.87-5.01c0-.736-.283-1.903-.722-2.974C60.271 75.97 66 72.613 66 69.275z" fill="#FFF"/><circle cx="55" cy="81.71" r="1.913" fill="#F37A10"/><path d="M70 44.997c-1 0-1 1.111-1 1.111v-3.114c-.003-1.647-.041-3.193-.178-4.622-8.553 2.738-21.336 2.574-27.076-3.224-.623 2.214-.74 4.864-.746 7.845v10l4 10 5.105 3.996a2.999 2.999 0 0 0 2.24 1.004h5.31c.856 0 1.671-.365 2.24-1.004L65 62.994l3.207-8.017C71.042 54.773 72 50.473 72 47.219c0-1.111-1-2.222-2-2.222z" fill="#FBC8C8"/><path d="M41.746 35.149c-.623 2.214-.74 4.864-.746 7.845v3.114s0-1.111-1-1.111-2 1.111-2 2.222c0 3.253.958 7.554 3.793 7.758L45 62.994l5.105 3.996a2.999 2.999 0 0 0 2.24 1.004H55V40.015c-5.273-.33-10.237-1.819-13.254-4.866z" fill="#FBD7D7"/><path d="M52 46.994a2 2 0 0 0-2-2h-.006c.001.022.006.042.006.063a2 2 0 0 1-1.994 2A1.996 1.996 0 0 0 52 46.994zm9.994 0a2 2 0 0 0-2-2h-.006c.001.021.006.041.006.062a2 2 0 0 1-1.994 2 1.996 1.996 0 0 0 3.994-.062z" fill="#3E3E3F"/><path d="M50 56.994h10s0 3-5 3-5-3-5-3z" fill="#F79392"/><path d="M75 35.261C73.089 21.373 42.079 20.2 41.049 32.489 39.832 33.175 39 34.464 39 35.961v9.036c2 1 2 1.981 2 3.792v1.172h2V36.239c5.734 4.365 16.153 4.664 24 2.653v11.069h2v-1.172c0-1.811 0-2.792 2-3.792v-7.424c1.588-.667 2.956-1.445 4-2.312z" fill="#F3B607"/><path d="M55 24.022c-7.114.21-13.493 3.006-13.951 8.467-1.217.686-2.049 1.975-2.049 3.472v9.036c2 1 2 1.981 2 3.792v1.172h2V36.239c3.042 2.316 7.405 3.478 12 3.767V24.022z" fill="#FACB1B"/></svg>