<svg version="1" xmlns="http://www.w3.org/2000/svg" width="110" height="110"><circle cx="55" cy="55" r="55" fill="#E04F5F"/><path d="M83 76a5.999 5.999 0 0 0-3.043-2.983L68 69H42l-11.957 4.017A5.999 5.999 0 0 0 27 76l-4 11h64l-4-11z" fill="#12B2A0"/><path d="M55 79.036c3.857 0 13-1 13-7v-3.072h-3v3.072s-2 4-10 4-10-4-10-4v-3.072h-3v3.072c0 6 9.143 7 13 7zm-23 1h11v3H32z" fill="#C2FCF5"/><path d="M57.655 68h-5.31a2.996 2.996 0 0 1-2.24-1.005L45 63v9s2 4 10 4 10-4 10-4v-9l-5.105 3.995A2.996 2.996 0 0 1 57.655 68z" fill="#F7B4B4"/><path d="M50.105 66.995L45 63v9.036s2 4 10 4V68h-2.655a2.996 2.996 0 0 1-2.24-1.005z" fill="#FBC8C8"/><path d="M70 45.036c-1 0-1 1.111-1 1.111V45c-.006-2.843-.111-5.582-.661-8H41.661c-.549 2.418-.655 5.157-.661 8v1.147s0-1.111-1-1.111-2 1.111-2 2.222c0 3.259.961 7.568 3.807 7.76L45 63l5.105 3.995A2.996 2.996 0 0 0 52.345 68h5.31c.856 0 1.671-.365 2.24-1.005L65 63l3.193-7.982c2.846-.191 3.807-4.501 3.807-7.76 0-1.111-1-2.222-2-2.222z" fill="#FBC8C8"/><path d="M41.661 37c-.549 2.418-.655 5.157-.661 8v1.147s0-1.111-1-1.111-2 1.111-2 2.222c0 3.259.961 7.568 3.807 7.76L45 63l5.105 3.995A2.996 2.996 0 0 0 52.345 68H55V37H41.661z" fill="#FBD7D7"/><path d="M52 47.036a2 2 0 0 0-2-2h-.006c.001.022.006.042.006.063a2 2 0 0 1-1.994 2A1.996 1.996 0 0 0 52 47.036zm9.994 0a2 2 0 0 0-2-2h-.006c.001.021.006.041.006.062a2 2 0 0 1-1.994 2 1.996 1.996 0 0 0 3.994-.062z" fill="#3E3E3F"/><path d="M55 51.036c-7 0-5 6-13 6 0 5 7 12 13 12s13-7 13-12c-8 0-6-6-13-6z" fill="#12B2A0"/><path d="M67 50h2v-1.172c0-1.811 0-2.792 2-3.792V37h-4v13zM39 37v8.036c2 1 2 1.981 2 3.792V50h2V37h-4z" fill="#84462D"/><path d="M71 37H39v-6.25A7.75 7.75 0 0 1 46.75 23h16.5A7.75 7.75 0 0 1 71 30.75V37z" fill="#12B2A0"/><path d="M55 23h-8.25A7.75 7.75 0 0 0 39 30.75V37h16V23zM42 57.036c0 5 7 12 13 12v-18c-7 0-5 6-13 6z" fill="#47C4B7"/><path fill="#C2FCF5" d="M39 37h32v2H39z"/></svg>