<svg version="1" xmlns="http://www.w3.org/2000/svg" width="110" height="110"><circle cx="55" cy="55" r="55" fill="#FABC3D"/><path d="M66.99 27.03L63 23H47l-3.99 4.03-19.313 6.155a1 1 0 0 0-.697.953v18.201a1.002 1.002 0 0 0 1.148.989L33 52v33a2 2 0 0 0 2 2h40a2 2 0 0 0 2-2V52l8.852 1.328A1.001 1.001 0 0 0 87 52.339V34.138c0-.435-.282-.821-.696-.953L66.99 27.03z" fill="#0484AB"/><path d="M55 23h-8l-3.99 4.03-19.313 6.155a1 1 0 0 0-.697.953v18.201a1.002 1.002 0 0 0 1.148.989L33 52v33a2 2 0 0 0 2 2h20V23z" fill="#059BBF"/><path d="M83 32.132l3.304 1.053a.999.999 0 0 1 .696.953v18.201a1.002 1.002 0 0 1-1.148.989L83 52.9V32.132zM49 52l-6 2-6-2V41h12z" fill="#40C9E7"/><path fill="#21B2D1" d="M37 41h12v4H37z"/><path fill="#40C9E7" d="M72 52l-6 2-6-2V41h12z"/><path fill="#21B2D1" d="M60 41h12v4H60z"/><path d="M27 32.132l-3.304 1.053a1 1 0 0 0-.696.953v18.201a1.002 1.002 0 0 0 1.148.989L27 52.9V32.132z" fill="#40C9E7"/><path d="M55 23h-8c0 4.115 2 8 8 8s8-3.885 8-8h-8z" fill="#0484AB"/><path d="M67 27l-4-4c0 4.115-2 8-8 8s-8-3.885-8-8l-4 4 .01.03L43 36l12-4 12 4-.01-8.97L67 27z" fill="#6FDAF1"/></svg>