<svg height="110" width="110" xmlns="http://www.w3.org/2000/svg"><circle cx="55" cy="55" fill="#32bea6" r="55"/><path d="m79 27a4 4 0 0 0 -4-4h-40a4 4 0 0 0 -4 4v56a4 4 0 0 0 4 4h40a4 4 0 0 0 4-4z" fill="#fff"/><path d="m35 29h40v48h-40z" fill="#3e3e3f"/><circle cx="55" cy="82" fill="#cfd3d4" r="2"/><g fill="#b6bcbd"><circle cx="59.667" cy="58.333" r="1.333"/><path d="m64 58h5v1h-5z"/><circle cx="59.667" cy="64.667" r="1.333"/><path d="m64 64.333h5v1h-5z"/></g><circle cx="55" cy="26" fill="#3e3e3f" r="1"/><path d="m35.009 67 37.991-37.991h-37.991z" fill="#5b5c5f"/><path d="m42 44h6v7h-6z" fill="#fbe158"/><path d="m52 40h6v11h-6z" fill="#17b198"/><path d="m63 35h6v16h-6z" fill="#059bbf"/><circle cx="47" cy="63" fill="#facb1b" r="8"/><path d="m55 63c0 4.42-3.58 8-8 8a8 8 0 0 1 -7.42-5l14.78-6.153c.413.966.64 2.033.64 3.153z" fill="#4ac3af"/><path d="m55.013 63.003a8 8 0 0 1 -3.667 6.727l-4.327-6.82 7.353-3.06c.414.967.641 2.033.641 3.153z" fill="#21b2d1"/><path d="m54.36 59.847-7.36 3.066v-7.913c3.3 0 6.133 2 7.36 4.847z" fill="#fa5655"/></svg>