<svg version="1" xmlns="http://www.w3.org/2000/svg" width="110" height="110"><path d="M110 54.976c0 30.362-24.642 56.302-54.976 54.976C23.334 108.567-.577 84.687.048 54.976.687 24.62 24.662 0 55.024 0S110 24.613 110 54.976z" fill="#25B7D3"/><path d="M72 58V42c0-9.389-7.611-17-17-17s-17 7.611-17 17v16c0 10-9 8-9 8s1 8 14 8h24c13 0 14-8 14-8s-9 2-9-8z" fill="#84462D"/><path d="M38 42v16c0 10-9 8-9 8s1 8 14 8h12V25c-9.389 0-17 7.611-17 17z" fill="#9C6144"/><path d="M83.409 77.663a8 8 0 0 0-5.168-4.791L62 69l-7 1-7-1-16.241 3.872a8 8 0 0 0-5.168 4.791L23 87h64l-3.591-9.337z" fill="#3E3E3F"/><path d="M55 69v18h2l8-17v-8.567c-2.841 4.396-6.716 6.472-10 7.567z" fill="#F7B4B4"/><path d="M45 61.433V70l8 17h2V69c-3.284-1.095-7.159-3.171-10-7.567z" fill="#FBC8C8"/><path d="M70 45h-1v-.021c-.004-1.901-.053-3.754-.249-5.498C68.117 41.514 66.242 43 64 43c-1.991 0-3.696-1.172-4.5-2.856C58.696 41.828 56.991 43 55 43s-3.696-1.172-4.5-2.856C49.696 41.828 47.991 43 46 43c-2.242 0-4.117-1.486-4.751-3.519-.195 1.744-.245 3.597-.249 5.498V45h-1c-1 0-2 1.111-2 2.222 0 3.091.864 7.13 4.178 7.703C44.62 64.027 50.396 67.465 55 69c4.604-1.535 10.38-4.973 12.822-14.075C71.136 54.353 72 50.313 72 47.222 72 46.111 71 45 70 45z" fill="#FBC8C8"/><path d="M50.5 40.144C49.696 41.828 47.991 43 46 43c-2.242 0-4.117-1.486-4.751-3.519-.195 1.744-.245 3.597-.249 5.498V45h-1c-1 0-2 1.111-2 2.222 0 3.091.864 7.13 4.178 7.703C44.62 64.027 50.396 67.465 55 69V43c-1.991 0-3.696-1.172-4.5-2.856z" fill="#FBD7D7"/><path d="M50 58h10s0 3-5 3-5-3-5-3z" fill="#F79392"/><path d="M45 67c0 1 4.465 15.848 10 20h-3S42 74 37 74c1-5 8-7 8-7zm20 0c0 1-4.465 15.848-10 20h3s10-13 15-13c-1-5-8-7-8-7z" fill="#FFF"/><path d="M52.006 46.956a2 2 0 0 0-2-2H50c.001.021.006.041.006.062a2 2 0 0 1-1.994 2 1.996 1.996 0 0 0 3.994-.062zm9.994 0a2 2 0 0 0-2-2h-.006c.001.021.006.041.006.062a2 2 0 0 1-1.994 2A1.996 1.996 0 0 0 62 46.956z" fill="#3E3E3F"/><path d="M80 86c0 .55-.45 1-1 1H68c-.55 0-1-.45-1-1v-7c0-.55.45-1 1-1h11c.55 0 1 .45 1 1v7z" fill="#FFF"/><path fill="#9CE5F4" d="M68 81h4v5h-4zm7-2h-3v-1.5c0-.825.675-1.5 1.5-1.5s1.5.675 1.5 1.5V79z"/><path d="M80 80H67v-1c0-.55.45-1 1-1h11c.55 0 1 .45 1 1v1z" fill="#9CE5F4"/><path d="M58.818 59.97h-7.637c-.769 0-1.441.399-1.83 1H48c-2.075 0-6-1.254-6-6V45h-2.333a4.666 4.666 0 1 0 0 9.334H40v.636c0 5.87 4.784 8 8 8h1.162a2.18 2.18 0 0 0 2.02 1.364h7.637a2.182 2.182 0 1 0-.001-4.364z" fill="#3E3E3F"/></svg>