<svg version="1" xmlns="http://www.w3.org/2000/svg" width="110" height="110"><circle cx="55" cy="55" r="55" fill="#FABC3D"/><path fill="#FFF" d="M87 55H23v32h4l4-8h48l4 8h4z"/><path fill="#6FDAF1" d="M57 60h26v10H57zm-30 0h26v10H27z"/><path d="M74 23H36a1 1 0 0 0-1 1v24a1 1 0 0 0 1 1h17v3H41a2 2 0 0 0-2 2v1h32v-1a2 2 0 0 0-2-2H57v-3h17a1 1 0 0 0 1-1V24a1 1 0 0 0-1-1z" fill="#3E3E3F"/><path fill="#21B2D1" d="M37 25h36v20H37z"/><path fill="#40C9E7" d="M37 25v20h5.584l20-20z"/><path fill="#9CE5F4" d="M27 70h5l10-10H27z"/></svg>