<svg height="110" width="110" xmlns="http://www.w3.org/2000/svg"><circle cx="55" cy="55" fill="#32bea6" r="55"/><path d="M63 43h20v37H63zm-36 0h20v37H27z" fill="#fff"/><path d="M23 80h28v7H23zm6-41h16v4H29z" fill="#f0f1f1"/><path d="M31 33h12v6H31z" fill="#e2e4e5"/><path d="M31 33l6-10 6 10zm28 47h28v7H59zm6-41h16v4H65z" fill="#f0f1f1"/><path d="M67 33h12v6H67z" fill="#e2e4e5"/><path d="M67 33l6-10 6 10zM47 54v8h16v-8zm12 6h-8v-4h8z" fill="#f0f1f1"/><g fill="#40c9e7"><path d="M30 48h14v2H30zm0 5h14v2H30zm0 5h14v2H30zm0 5h14v2H30zm0 5h14v2H30zm0 5h14v2H30zm36-25h14v2H66zm0 5h14v2H66zm0 5h14v2H66zm0 5h14v2H66zm0 5h14v2H66zm0 5h14v2H66z"/></g><path d="M37 23l-6 10h6zm36 0l-6 10h6z" fill="#fff"/></svg>