<svg height="110" width="110" xmlns="http://www.w3.org/2000/svg"><circle cx="55" cy="55" fill="#e04f5f" r="55"/><path d="m77.004 23-6.364 6.364a1.995 1.995 0 0 0 -.2 2.584l-15.612 7.571-2.791 17.009 1.338 1.338 17.009-2.791 7.571-15.612a1.995 1.995 0 0 0 2.584-.2l6.364-6.364z" fill="#3e3e3f"/><path d="m70.44 31.948-15.612 7.571-2.791 17.009 1.338 1.338 17.009-2.791 7.571-15.612c-.084-.061-7.454-7.431-7.515-7.515z" fill="#facb1b"/><path d="m44 76.917v-14h-2v14a5.008 5.008 0 0 0 -4 4.899c0 2.757 2.243 5 5 5s5-2.243 5-5a5.008 5.008 0 0 0 -4-4.899zm-2-44v23h2v-23a5.008 5.008 0 0 0 4-4.899c0-2.757-2.243-5-5-5s-5 2.243-5 5a5.01 5.01 0 0 0 4 4.899z" fill="#3e3e3f"/><path d="m79 79v2.918c-14.826-.548-25.499-4.185-30.981-10.62-2.512-2.949-3.516-5.995-3.895-8.299h2.876v-8h-3.137c-1.037-15.913-8.209-21.286-12.863-23.087v-3.912h-8v8h8v-1.948c4.076 1.844 9.921 6.937 10.862 20.948h-2.862v8h3.084c.376 2.613 1.468 6.12 4.375 9.551 5.94 7.012 16.885 10.826 32.541 11.373v3.076h8v-8z" fill="#fff"/><path d="m70.44 31.948-15.612 7.571-2.791 17.009.715.716 21.483-21.484a585.865 585.865 0 0 1 -3.795-3.812z" fill="#fbe158"/><path d="m74.235 35.76 7.765-7.764-4.996-4.996-6.364 6.364a1.995 1.995 0 0 0 -.2 2.584c.031.042 1.919 1.937 3.795 3.812z" fill="#5b5c5f"/></svg>