<svg version="1" xmlns="http://www.w3.org/2000/svg" width="110" height="110"><circle cx="55" cy="55" r="55" fill="#32BEA6"/><path d="M83.242 77.663a8 8 0 0 0-5.168-4.791l-13.241-4.875-9.917 4.961L45 67.997l-13.241 4.875a8 8 0 0 0-5.168 4.791L23 87h63.833l-3.591-9.337z" fill="#FFF"/><path fill="#DF2C2C" d="M59 87.022l-3-8 2-2.998L54.981 73l-2.998 2.998L54 79.022l-3 8z"/><path fill="#FA5655" d="M55 87.022V73.019L54.981 73l-2.998 2.998L54 79.022l-3 8z"/><path fill="#3E3E3F" d="M66.952 68.777L54.917 86.875 42.882 68.777 33 72.416V87h43.833V72.416z"/><path d="M55 69v4l10-5v-6.567c-2.841 4.396-6.716 6.472-10 7.567z" fill="#F7B4B4"/><path d="M45 61.433V68l10 5v-4c-3.284-1.095-7.159-3.171-10-7.567z" fill="#FBC8C8"/><path d="M70 45h-1l-2.155-.431A9.758 9.758 0 0 1 59 35c-1.214 3.236-2.591 5.149-4 6.297C52.927 42.986 50.786 43 49 43v-4c-4.761 6.349-6.633 6.125-9.16 6.021-.944.11-1.84 1.15-1.84 2.201 0 3.091.864 7.13 4.178 7.703C44.62 64.027 50.396 67.465 55 69c4.604-1.535 10.38-4.973 12.822-14.075C71.136 54.353 72 50.313 72 47.222 72 46.111 71 45 70 45z" fill="#FBC8C8"/><path d="M49 43v-4c-4.761 6.349-6.633 6.125-9.16 6.021-.944.11-1.84 1.15-1.84 2.201 0 3.091.864 7.13 4.178 7.703C44.62 64.027 50.396 67.465 55 69V41.297C52.927 42.986 50.786 43 49 43z" fill="#FBD7D7"/><path d="M50 58h10s0 3-5 3-5-3-5-3z" fill="#F79392"/><path d="M52.006 47a2 2 0 0 0-2-2H50c.001.021.006.041.006.062a2 2 0 0 1-1.994 2A1.998 1.998 0 0 0 52.006 47zM62 47a2 2 0 0 0-2-2h-.006c.001.021.006.042.006.063a2 2 0 0 1-1.994 2A1.997 1.997 0 0 0 62 47z" fill="#3E3E3F"/><path d="M79 34.75c-3.067-6.134-7.896-6.963-12.236-4.318C63.845 27.678 59.662 26 55 26c-8.462 0-15.373 5.508-15.944 13H39v6c3 0 4.726 1.032 10-6v4c3 0 7 0 10-8a9.758 9.758 0 0 0 7.845 9.569L69 45h1c1 0 2 1.111 2 2.222 0 2.686-.655 6.084-3 7.306V58c0 9 13 9 13 5-12 1 1-20.25-3-28.25z" fill="#84462D"/><path d="M39.056 39H39v6c3 0 4.726 1.032 10-6v4c1.786 0 3.927-.014 6-1.703V26c-8.462 0-15.373 5.508-15.944 13z" fill="#9C6144"/></svg>