<svg height="110" width="110" xmlns="http://www.w3.org/2000/svg"><circle cx="55" cy="55" fill="#25b7d3" r="55"/><path d="m57.645 49.979c-.706.628-1.626 1.021-2.645 1.021s-1.939-.393-2.645-1.021l-5.355 33.021h16z" fill="#e2e4e5"/><g fill="#fff"><path d="m55 51a3.966 3.966 0 0 1 -2.645-1.021l-5.355 33.021h8zm3.998-4c2.086-8.035-.053-20.028-3.582-23.274-.36-.331-.821-.525-1.288-.381s-.802.554-.849 1.041l-2.202 22.614z"/><path d="m53.071 50.502c6.031 5.704 17.568 9.617 22.114 8.091.463-.155.856-.466.955-.944a1.213 1.213 0 0 0 -.502-1.246l-18.745-12.84z"/><path d="m52.863 43.621c-7.906 2.531-16.899 10.748-17.757 15.466-.087.481-.005.975.366 1.292a1.21 1.21 0 0 0 1.333.161l20.291-10.224zm18.137 43.379h-32a4 4 0 0 1 4-4h24a4 4 0 0 1 4 4z"/></g><path d="m45.2 36.838a4.157 4.157 0 0 1 -4.163 4.162h-13.874a4.157 4.157 0 0 1 -4.163-4.162c0-2.843 2.775-4.149 4.301-4.149a6.937 6.937 0 0 1 13.598 0c1.526 0 4.301 1.307 4.301 4.149zm41.8 6a4.157 4.157 0 0 1 -4.163 4.162h-13.875a4.156 4.156 0 0 1 -4.162-4.162c0-2.843 2.775-4.149 4.301-4.149a6.937 6.937 0 0 1 13.598 0c1.526 0 4.301 1.307 4.301 4.149z" fill="#f0f1f1"/><path d="m34.1 27.125a6.936 6.936 0 0 0 -6.799 5.564c-1.526 0-4.301 1.305-4.301 4.148a4.15 4.15 0 0 0 4.037 4.15l11.881-11.881c-1.249-1.216-2.938-1.981-4.818-1.981zm41.8 6.013a6.936 6.936 0 0 0 -6.799 5.564c-1.526 0-4.301 1.305-4.301 4.148a4.15 4.15 0 0 0 4.037 4.15l11.881-11.881c-1.249-1.216-2.938-1.981-4.818-1.981z" fill="#fff"/><circle cx="55" cy="47" fill="#5b5c5f" r="4"/><path d="m55 43a4 4 0 0 0 -2.815 6.839l5.654-5.654a3.983 3.983 0 0 0 -2.839-1.185z" fill="#9e9fa0"/></svg>