<svg version="1" xmlns="http://www.w3.org/2000/svg" width="110" height="110"><circle cx="55" cy="55" r="55" fill="#E04F5F"/><path d="M41.115 47.072A7.83 7.83 0 0 1 40 47c-1 0-2 1.111-2 2.222 0 2.92.774 6.684 3.655 7.574l-.54-9.724zM70 47a7.84 7.84 0 0 1-1.115.072l-.54 9.724c2.881-.89 3.655-4.653 3.655-7.574C72 48.111 71 47 70 47zm-4-.372C60.271 44.93 55 39 55 39s-5.271 5.93-11 7.628v15.078c2.876 5.605 7.312 8.064 11 9.294 3.687-1.229 8.124-3.689 11-9.294V46.628z" fill="#FBC8C8"/><path d="M83.409 79.663a8 8 0 0 0-5.168-4.791L65 72H45l-13.241 2.872a8 8 0 0 0-5.168 4.791L23 87h64l-3.591-7.337z" fill="#F3B607"/><path d="M65 68v-4.544c-2.842 4.387-6.719 6.451-10 7.544v16h2l8-16.15V68z" fill="#F7B4B4"/><path d="M65 70.85V68c2.602.618 4.938 1.989 6.683 3.924L75 75.6h-7l.14.265C70.589 80.518 67.43 87 57 87l8-16.15z" fill="#FFF"/><path d="M45 63.456v7.394L53 87h2V71c-3.281-1.094-7.158-3.157-10-7.544z" fill="#FBC8C8"/><path d="M45 70.85V68c-2.602.618-4.938 1.989-6.683 3.924L35 75.6h7l-.14.265C39.411 80.518 42.57 87 53 87l-8-16.15z" fill="#FFF"/><path d="M41.115 47.072A7.83 7.83 0 0 1 40 47c-1 0-2 1.111-2 2.222 0 2.92.774 6.684 3.655 7.574l-.54-9.724zM44 46.628v15.078c2.876 5.605 7.312 8.064 11 9.294V39s-5.271 5.93-11 7.628z" fill="#FBD7D7"/><path d="M50 60h10s0 3-5 3-5-3-5-3z" fill="#F79392"/><path d="M52.006 49a2 2 0 0 0-2-2H50c.001.021.006.041.006.062a2 2 0 0 1-1.994 2A1.998 1.998 0 0 0 52.006 49zM62 49a2 2 0 0 0-2-2h-.006c.001.021.006.042.006.062a2 2 0 0 1-1.994 2A1.998 1.998 0 0 0 62 49z" fill="#3E3E3F"/><path d="M60.879 30.205a6 6 0 1 0-11.758 0C42.023 31.51 36.07 36.783 40 47a7.84 7.84 0 0 0 1.115.072l.633 11.394c.189 3.397.394 6.056 2.252 8.534V46.628C49.729 44.93 55 39 55 39s5.271 5.93 11 7.628V67c1.858-2.478 2.063-5.137 2.252-8.535l.633-11.394A7.83 7.83 0 0 0 70 46.999c3.93-10.216-2.023-15.489-9.121-16.794z" fill="#3E3E3F"/></svg>