<svg height="110" width="110" xmlns="http://www.w3.org/2000/svg"><circle cx="55" cy="55" fill="#25b7d3" r="55"/><path d="m69 75a4 4 0 0 1 -4 4h-6a4 4 0 0 1 -4-4v-40a4 4 0 0 1 4-4h6a4 4 0 0 1 4 4z" fill="#f0f1f1"/><path d="m69 45.412v-10.412a4 4 0 0 0 -4-4h-6a4 4 0 0 0 -4 4v24.412z" fill="#fff"/><path d="m53 79a4 4 0 0 1 -4 4h-6a4 4 0 0 1 -4-4v-48a4 4 0 0 1 4-4h6a4 4 0 0 1 4 4z" fill="#f0f1f1"/><path d="m53 61.412v-30.412a4 4 0 0 0 -4-4h-6a4 4 0 0 0 -4 4v44.412z" fill="#fff"/><path d="m37 83a4 4 0 0 1 -4 4h-6a4 4 0 0 1 -4-4v-56a4 4 0 0 1 4-4h6a4 4 0 0 1 4 4z" fill="#f0f1f1"/><path d="m37 27a4 4 0 0 0 -4-4h-6a4 4 0 0 0 -4 4v56a4 4 0 0 0 4 4h.412l9.588-9.588z" fill="#fff"/><g fill="#5b5c5f"><circle cx="30" cy="31" r="2.5"/><circle cx="30" cy="79" r="2.5"/><circle cx="46" cy="35" r="2.5"/><circle cx="46" cy="75" r="2.5"/><circle cx="62" cy="39" r="2.5"/><circle cx="62" cy="71" r="2.5"/></g><path d="m85 71a4 4 0 0 1 -4 4h-6a4 4 0 0 1 -4-4v-32a4 4 0 0 1 4-4h6a4 4 0 0 1 4 4z" fill="#f0f1f1"/><circle cx="78" cy="43" fill="#5b5c5f" r="2.5"/><circle cx="78" cy="67" fill="#5b5c5f" r="2.5"/><path d="m85.019 81.514-33.197-26.035a9.476 9.476 0 0 1 -3.44 4.387l33.198 26.033a2.787 2.787 0 0 0 3.439-4.385z" fill="#9c6144"/><circle cx="43" cy="52.103" fill="#df2c2c" r="9.444"/><path d="m79.412 35h-4.412a4 4 0 0 0 -4 4v4.412z" fill="#fff"/><path d="m85.019 81.514-33.197-26.035a9.474 9.474 0 0 1 -1.364 2.413l35.053 27.504a2.783 2.783 0 0 0 -.492-3.882z" fill="#af7653"/><path d="m48.829 44.671c-4.104-3.219-10.041-2.501-13.26 1.604-3.03 3.863-2.57 9.347.917 12.663l13.344-13.344a9.792 9.792 0 0 0 -1.001-.923z" fill="#fa5655"/></svg>