<svg height="110" width="110" xmlns="http://www.w3.org/2000/svg"><circle cx="55" cy="55" fill="#e04f5f" r="55"/><path d="m67 39.005c0 6-6 11-12 16s-12 10-12 16c0 12 12 16 12 16-17.67 0-32-14.33-32-32s14.33-32 32-32c0 0 12 4 12 16z" fill="#e2e4e5"/><path d="m87 55.005c0 17.67-14.33 32-32 32 0 0-12-4-12-16 0-6 6-11 12-16s12-10 12-16c0-12-12-16-12-16 17.67 0 32 14.33 32 32z" fill="#3e3e3f"/><path d="m55 55.005c6-5 12-10 12-16 0-12-12-16-12-16-17.67 0-32 14.33-32 32 0 9.725 4.347 18.432 11.196 24.302l8.837-8.837c.345-5.763 6.147-10.616 11.967-15.465z" fill="#fff"/><circle cx="55" cy="71.005" fill="#fff" r="6"/><g fill="#5b5c5f"><circle cx="55" cy="39.005" r="6"/><path d="m55 55.005c-5.82 4.85-11.622 9.702-11.967 15.464l36.268-36.269c-5.869-6.849-14.576-11.195-24.301-11.195 0 0 12 4 12 16 0 6-6 11-12 16z"/></g></svg>