<svg height="100" viewBox="0 0 900 100" width="900" xmlns="http://www.w3.org/2000/svg"><path d="m0 74 21.5-1.8c21.5-1.9 64.5-5.5 107.3-5.5 42.9 0 85.5 3.6 128.4 5.5 42.8 1.8 85.8 1.8 128.6 1.6 42.9-.1 85.5-.5 128.4 2.9 42.8 3.3 85.8 10.3 128.6 11.6 42.9 1.4 85.5-3 128.4-4.1 42.8-1.2 85.8.8 107.3 1.8l21.5 1v14h-21.5c-21.5 0-64.5 0-107.3 0-42.9 0-85.5 0-128.4 0-42.8 0-85.8 0-128.6 0-42.9 0-85.5 0-128.4 0-42.8 0-85.8 0-128.6 0-42.9 0-85.5 0-128.4 0-42.8 0-85.8 0-107.3 0h-21.5z" fill="#fff" stroke-linecap="round"/></svg>