<svg height="100" viewBox="0 0 900 100" width="900" xmlns="http://www.w3.org/2000/svg"><path d="m0 35 11.5 2c11.5 2 34.5 6 57.5 11.2 23 5.1 46 11.5 69.2 14.6 23.1 3.2 46.5 3.2 69.6.2 23.2-3 46.2-9 69.2-11.8 23-2.9 46-2.5 69-1.2s46 3.7 69.2 6.7c23.1 3 46.5 6.6 69.6 4.8 23.2-1.8 46.2-9.2 69.2-12s46-1.2 69 .5 46 3.3 69.2 5.5c23.1 2.2 46.5 4.8 69.6 2.3 23.2-2.5 46.2-10.1 69.2-15.6s46-8.9 57.5-10.5l11.5-1.7v71h-11.5c-11.5 0-34.5 0-57.5 0s-46 0-69.2 0c-23.1 0-46.5 0-69.6 0-23.2 0-46.2 0-69.2 0s-46 0-69 0-46 0-69.2 0c-23.1 0-46.5 0-69.6 0-23.2 0-46.2 0-69.2 0s-46 0-69 0-46 0-69.2 0c-23.1 0-46.5 0-69.6 0-23.2 0-46.2 0-69.2 0s-46 0-57.5 0h-11.5z" fill="#F0F0F0" stroke-linecap="round"/></svg>