<svg enable-background="new 0 0 110 110" height="110" viewBox="0 0 110 110" width="110" xmlns="http://www.w3.org/2000/svg"><circle cx="55" cy="55" fill="#32bea6" r="55"/><path d="m37 27h50v60h-50z" fill="#fff"/><path d="m65.724 73c0 4.418 3.582 8 8 8s8.416-3.601 8-8c-.423-4.476-3.893-8.042-8-8-4.418.046-8 3.582-8 8z" fill="#fbe158"/><path d="m65.724 73c0 4.42 3.58 8 8 8 3.36 0 6.233-2.067 7.42-5l-14.78-6.153c-.413.966-.64 2.033-.64 3.153z" fill="#059bbf"/><path d="m65.712 73.003c0 2.82 1.46 5.3 3.667 6.727l4.327-6.82-7.353-3.06c-.414.967-.641 2.033-.641 3.153z" fill="#4ac3af"/><path d="m66.364 69.847 7.36 3.067v-7.914c-3.3 0-6.133 2-7.36 4.847z" fill="#fa5655"/><path d="m77 40h4v18h-4z" fill="#4ac3af"/><path d="m69.712 48h4v10h-4z" fill="#4ac3af"/><g fill="#cfd3d4"><circle cx="60.333" cy="68.167" r="1.5"/><path d="m46.712 67.667h10v1h-10z"/><circle cx="60.333" cy="73.333" r="1.5"/><path d="m46.712 72.833h10v1h-10z"/><circle cx="60.333" cy="78.5" r="1.5"/><path d="m46.712 78h10v1h-10z"/></g><path d="m39.742 58.021-10.798 10.798c-1.344 1.344-3.522 1.344-4.867 0s-1.344-3.522 0-4.867l10.823-10.821c1.198 1.995 2.858 3.674 4.842 4.89z" fill="#84462d"/><path d="m36.992 55.826-12.951 12.951c-1.308-1.344-1.296-3.492.03-4.824l10.829-10.828c.589.979 1.295 1.885 2.092 2.701z" fill="#9c6144"/><path d="m47.4 60.1c-7.995 0-14.5-6.505-14.5-14.5s6.505-14.5 14.5-14.5 14.5 6.505 14.5 14.5-6.504 14.5-14.5 14.5z" fill="#fff"/><path d="m47.4 31.088c8.012 0 14.512 6.5 14.512 14.512s-6.5 14.512-14.512 14.512c-8.041 0-14.512-6.561-14.512-14.512 0-8.012 6.5-14.512 14.512-14.512m0-1.988c-9.098 0-16.5 7.402-16.5 16.5s7.402 16.5 16.5 16.5 16.5-7.402 16.5-16.5-7.401-16.5-16.5-16.5z" fill="#cfd3d4"/><circle cx="47.4" cy="45.6" fill="#6fdaf1" r="11.558"/><path d="m47.4 34.042c-6.383 0-11.558 5.175-11.558 11.558 0 3.158 1.27 6.018 3.323 8.104l16.339-16.339c-2.086-2.054-4.945-3.323-8.104-3.323z" fill="#9ce5f4"/></svg>