<svg version="1" xmlns="http://www.w3.org/2000/svg" width="110" height="110" viewBox="0 0 110 110"><circle cx="55" cy="55" r="55" fill="#E04F5F"/><path fill="#FBE158" d="M27 27H59V83H27z"/><path fill="#F99134" d="M59 27H83V71H59z"/><path fill="#FFFFFF" d="M23 23L87 23 83 27 27 27z"/><path fill="#FFFFFF" d="M23 87L59 87 59 83 27 83z"/><path fill="#CFD3D4" d="M59 71H83V87H59z"/><path d="M79 71H63V58a8 8 0 0 1 16 0v13z" fill="#FFFFFF"/><path d="M66 58a5 5 0 0 1 10 0H66z" fill="#40C9E7"/><path fill="#E2E4E5" d="M66 60H76V71H66z"/><path fill="#F0F1F1" d="M59 83H83V85H59z"/><path fill="#F0F1F1" d="M59 79H83V81H59z"/><path fill="#F0F1F1" d="M59 75H83V77H59z"/><path fill="#F0F1F1" d="M59 71H83V73H59z"/><path d="M71 43c-2.757 0-5-2.243-5-5s2.243-5 5-5 5 2.243 5 5-2.243 5-5 5z" fill="#40C9E7"/><path d="M71 33c2.757 0 5 2.243 5 5s-2.243 5-5 5-5-2.243-5-5 2.243-5 5-5m0-2a7 7 0 1 0 0 14 7 7 0 0 0 0-14z" fill="#FFFFFF"/><path d="M41 78H31V63a5 5 0 0 1 10 0v15z" fill="#40C9E7"/><path fill="#40C9E7" d="M31 71H41V78H31z"/><path d="M55 78H45V63a5 5 0 0 1 10 0v15z" fill="#40C9E7"/><path fill="#40C9E7" d="M45 71H55V78H45z"/><path d="M55 51H45V36a5 5 0 0 1 10 0v15z" fill="#40C9E7"/><path fill="#40C9E7" d="M45 44H55V51H45z"/><path d="M55 37.35V36a5 5 0 0 0-10 0v11.35l10-10z" fill="#6FDAF1"/><path fill="#6FDAF1" d="M48.35 44L45 44 45 47.35z"/><path d="M41 64.35V63a5 5 0 0 0-10 0v11.35l10-10z" fill="#6FDAF1"/><path fill="#6FDAF1" d="M34.35 71L31 71 31 74.35z"/><path d="M55 64.35V63a5 5 0 0 0-10 0v11.35l10-10z" fill="#6FDAF1"/><path fill="#6FDAF1" d="M48.35 71L45 71 45 74.35z"/><path fill="#FFFFFF" d="M45 42H55V44H45z"/><path fill="#FFFFFF" d="M31 69H41V71H31z"/><path fill="#FFFFFF" d="M45 69H55V71H45z"/><path fill="#FFFFFF" d="M23 51L59 51 59 55 27 55z"/><path d="M41 51H31V36a5 5 0 0 1 10 0v15z" fill="#40C9E7"/><path fill="#40C9E7" d="M31 44H41V51H31z"/><path d="M41 37.35V36a5 5 0 0 0-10 0v11.35l10-10z" fill="#6FDAF1"/><path fill="#FFFFFF" d="M31 42H41V44H31z"/><path d="M83 87h4V65a2 2 0 1 0-4 0v22z" fill="#FFFFFF"/></svg>