<svg version="1" xmlns="http://www.w3.org/2000/svg" width="110" height="110" viewBox="0 0 110 110"><circle cx="55" cy="55" r="55" fill="#32BEA6"/><path d="M71 31h-8v-4a4 4 0 0 0-4-4h-8a4 4 0 0 0-4 4v4h-8a6 6 0 0 0-6 6v44a6 6 0 0 0 6 6h32a6 6 0 0 0 6-6V37a6 6 0 0 0-6-6z" fill="#FFFFFF"/><path d="M73 81a2 2 0 0 1-2 2H39a2 2 0 0 1-2-2V37a2 2 0 0 1 2-2h32a2 2 0 0 1 2 2v44z" fill="#059BBF"/><path d="M55 35H39a2 2 0 0 0-2 2v44a2 2 0 0 0 2 2h16V35z" fill="#21B2D1"/><path fill="#FFFFFF" d="M63 42.875L43.5 62.375 53.25 62.375 50 75.375 69.5 55.875 59.75 55.875z"/></svg>