<svg enable-background="new 0 0 110 110" height="110" viewBox="0 0 110 110" width="110" xmlns="http://www.w3.org/2000/svg"><circle cx="55" cy="55" fill="#25b7d3" r="55"/><path d="m79 39c0-2.209-1.791-4-4-4h-40c-2.209 0-4 1.791-4 4v12h48z" fill="#cfd3d4"/><path d="m75 35h-40c-2.209 0-4 1.791-4 4v12h29.744l15.716-15.716c-.454-.178-.943-.284-1.46-.284z" fill="#f0f1f1"/><path d="m23 75h64v12h-64z" fill="#818284"/><path d="m31 51h48l8 20h-64z" fill="#f0f1f1"/><path d="m31 51-8 20h17.744l20-20z" fill="#fff"/><path d="m35 43v-16l4 4 4-4 4 4 4-4v16z" fill="#fff"/><path d="m23 71h64v4h-64z" fill="#cfd3d4"/><path d="m55 39h20v8h-20z" fill="#17b198"/><path d="m72.744 39h-17.744v8h9.744z" fill="#4ac3af"/><path d="m69 32h4v3h-4z" fill="#818284"/><path d="m83 24c0-.552-.448-1-1-1h-22c-.552 0-1 .448-1 1v7c0 .552.448 1 1 1h22c.552 0 1-.448 1-1z" fill="#3e3e3f"/><g fill="#cfd3d4"><path d="m34 43h18v2h-18z"/><path d="m47 35.5c0 .275-.225.5-.5.5h-7c-.275 0-.5-.225-.5-.5 0-.275.225-.5.5-.5h7c.275 0 .5.225.5.5z"/><path d="m47 39.5c0 .275-.225.5-.5.5h-7c-.275 0-.5-.225-.5-.5 0-.275.225-.5.5-.5h7c.275 0 .5.225.5.5z"/><circle cx="55" cy="81" r="2"/><circle cx="35" cy="57" r="2"/><circle cx="43" cy="57" r="2"/><circle cx="51" cy="57" r="2"/><circle cx="33" cy="65" r="2"/><circle cx="41" cy="65" r="2"/></g><circle cx="49" cy="65" fill="#b6bcbd" r="2"/><circle cx="61" cy="65" fill="#b6bcbd" r="2"/><circle cx="69" cy="65" fill="#b6bcbd" r="2"/><circle cx="77" cy="65" fill="#17b198" r="2"/><circle cx="59" cy="57" fill="#b6bcbd" r="2"/><circle cx="67" cy="57" fill="#b6bcbd" r="2"/><circle cx="75" cy="57" fill="#fa5655" r="2"/><path d="m74.272 23h-14.272c-.552 0-1 .448-1 1v7c0 .552.448 1 1 1h5.272z" fill="#5b5c5f"/></svg>