<svg version="1" xmlns="http://www.w3.org/2000/svg" width="110" height="110" viewBox="0 0 110 110"><circle cx="55" cy="55" r="55" fill="#E04F5F"/><path d="M23 26.84A3.84 3.84 0 0 1 26.84 23H55l16 13.44v46.72A3.84 3.84 0 0 1 67.16 87H26.84A3.84 3.84 0 0 1 23 83.16V26.84z" fill="#FFFFFF"/><path d="M55 23v9.6a3.84 3.84 0 0 0 3.84 3.84H71L55 23z" fill="#F0F1F1"/><path fill="#F4D0A1" d="M77 41.5L82 31 87 41.5 87 80 77 80z"/><path fill="#EDBC7C" d="M87 47L87 41.5 82 31 82 47z"/><path d="M87 84a3 3 0 0 1-3 3h-4a3 3 0 0 1-3-3v-2h10v2z" fill="#F79392"/><path d="M62 45c0 .55-.45 1-1 1H46c-.55 0-1-.45-1-1s.45-1 1-1h15c.55 0 1 .45 1 1zm-6 5c0 .55-.45 1-1 1h-9c-.55 0-1-.45-1-1s.45-1 1-1h9c.55 0 1 .45 1 1zm6 8c0 .55-.45 1-1 1H46c-.55 0-1-.45-1-1s.45-1 1-1h15c.55 0 1 .45 1 1zm-6 5c0 .55-.45 1-1 1h-9c-.55 0-1-.45-1-1s.45-1 1-1h9c.55 0 1 .45 1 1zm6 8c0 .55-.45 1-1 1H46c-.55 0-1-.45-1-1s.45-1 1-1h15c.55 0 1 .45 1 1zm-6 5c0 .55-.45 1-1 1h-9c-.55 0-1-.45-1-1s.45-1 1-1h9c.55 0 1 .45 1 1z" fill="#E2E4E5"/><path d="M35.067 52l-3.774-3.774a.999.999 0 1 1 1.414-1.414l2.226 2.226 4.299-5.159a.999.999 0 1 1 1.536 1.28L35.067 52zm0 13l-3.774-3.774a.999.999 0 1 1 1.414-1.414l2.226 2.226 4.299-5.159a.999.999 0 1 1 1.536 1.28L35.067 65zm0 13l-3.774-3.774a.999.999 0 1 1 1.414-1.414l2.226 2.226 4.299-5.159a.999.999 0 1 1 1.536 1.28L35.067 78z" fill="#17B198"/><path fill="#FACB1B" d="M77 79H87V82H77z"/><path fill="#FBE158" d="M77 80H82V82H77z"/><path d="M82.013 30.984l-1.857 3.899c.512.678 1.152 1.101 1.857 1.101s1.345-.422 1.857-1.101l-1.857-3.899z" fill="#3E3E3F"/><path d="M84.5 43a2.5 2.5 0 0 1-2.413-1.845c-.026-.097-.147-.097-.173 0a2.502 2.502 0 0 1-4.736.274.092.092 0 0 0-.178.035V80h10V41.464a.092.092 0 0 0-.178-.034A2.502 2.502 0 0 1 84.5 43z" fill="#0484AB"/><path d="M77 80V41.493c0-.111.147-.139.19-.036a2.5 2.5 0 0 0 4.727-.316c.014-.052.083-.045.083.009V80h-5z" fill="#21B2D1"/><path d="M77 82v2a3 3 0 0 0 3 3h2v-5h-5z" fill="#F7B4B4"/></svg>