<svg version="1" xmlns="http://www.w3.org/2000/svg" width="110" height="110" viewBox="0 0 110 110"><circle cx="55" cy="55" r="55" fill="#E04F5F"/><path d="M81 34a2 2 0 0 0-2-2H31a2 2 0 0 0-2 2v51a2 2 0 0 0 2 2h48a2 2 0 0 0 2-2V34z" fill="#84462D"/><path fill="#FFFFFF" d="M33 36H77V83H33z"/><path d="M65 29h-4a6 6 0 0 0-12 0h-4a2 2 0 0 0-2 2v8a2 2 0 0 0 2 2h20a2 2 0 0 0 2-2v-8a2 2 0 0 0-2-2zm-10-4a2 2 0 1 1-.001 4.001A2 2 0 0 1 55 25z" fill="#FACB1B"/><path d="M59.571 78.5c-3.309 0-6-2.692-6-6s2.691-6 6-6 6 2.692 6 6-2.691 6-6 6zm0-9c-1.654 0-3 1.346-3 3s1.346 3 3 3 3-1.346 3-3-1.345-3-3-3z" fill="#DF2C2C"/><path fill="#5B5C5F" d="M72.142 53.743L70.328 51.929 67.607 54.65 64.885 51.929 63.071 53.743 65.792 56.464 63.071 59.186 64.885 61 67.607 58.279 70.328 61 72.142 59.186 69.421 56.464z"/><path fill="#5B5C5F" d="M48.071 47.814L46.257 46 43.536 48.721 40.743 45.929 38.929 47.743 41.721 50.536 39 53.257 40.814 55.071 43.536 52.35 46.186 55 48 53.186 45.35 50.536z"/><path d="M59.167 52l-8.096.947 2.231 2.348C50.264 57.099 42.571 62.864 42.571 75a1.5 1.5 0 1 0 3 0c0-11.708 8.142-16.568 9.862-17.463l2.376 2.5L59.167 52z" fill="#DF2C2C"/><path d="M65 29h-4a6 6 0 0 0-12 0h-4a2 2 0 0 0-2 2v4h24v-4a2 2 0 0 0-2-2zm-10 0a2 2 0 1 1 .001-4.001A2 2 0 0 1 55 29z" fill="#FBE158"/></svg>