<svg version="1" xmlns="http://www.w3.org/2000/svg" width="110" height="110" viewBox="0 0 110 110"><circle cx="55" cy="55" r="55" fill="#32BEA6"/><path d="M87 76.008C87 82.079 82.079 87 76.008 87H23V65.016h53.008C82.079 65.016 87 69.937 87 76.008z" fill="#3E3E3F"/><path d="M83 76.016a7 7 0 0 1-7 7H23v-14h53a7 7 0 0 1 7 7z" fill="#818284"/><circle cx="34" cy="76" r="7" fill="#F0F1F1"/><path d="M60 62.364a2.652 2.652 0 0 1-2.652 2.652H25.652A2.652 2.652 0 0 1 23 62.364V33.652A2.652 2.652 0 0 1 25.652 31h31.696A2.652 2.652 0 0 1 60 33.652v28.712z" fill="#EDBC7C"/><path d="M57.348 31H25.652A2.652 2.652 0 0 0 23 33.652v28.712c0 .946.499 1.77 1.244 2.24l34.708-33.05A2.626 2.626 0 0 0 57.348 31z" fill="#F4D0A1"/><path fill="#F4D0A1" d="M49.52 54.407H57.476000000000006V59.711H49.52z"/><path fill="#FCF1E2" d="M46.868 41.147L44.216 38.495 41.564 41.147 38.912 38.495 36.26 41.147 36.26 31 46.868 31z"/><path d="M79 63.643c0 .749-.608 1.357-1.357 1.357H61.357A1.358 1.358 0 0 1 60 63.643V48.714c0-.75.608-1.357 1.357-1.357h16.286c.75 0 1.357.608 1.357 1.357v14.929z" fill="#EDBC7C"/><path d="M77.643 47.357H61.357c-.75 0-1.357.608-1.357 1.357v14.929c0 .484.255.906.637 1.146L78.464 47.64a1.346 1.346 0 0 0-.821-.283z" fill="#F4D0A1"/><path fill="#F4D0A1" d="M73.571 59.571H77.642V62.285H73.571z"/><path fill="#FCF1E2" d="M72.214 52.786L70.857 51.429 69.5 52.786 68.143 51.429 66.786 52.786 66.786 47.357 72.214 47.357z"/><circle cx="34" cy="76" r="5" fill="#B6BCBD"/><circle cx="34" cy="76.016" r="2" fill="#5B5C5F"/><circle cx="55" cy="76.016" r="7" fill="#F0F1F1"/><circle cx="55" cy="76" r="5" fill="#B6BCBD"/><circle cx="55" cy="76.016" r="2" fill="#5B5C5F"/><circle cx="76" cy="76.016" r="7" fill="#F0F1F1"/><circle cx="76" cy="76" r="5" fill="#B6BCBD"/><circle cx="76" cy="76.016" r="2" fill="#5B5C5F"/></svg>