<svg version="1" xmlns="http://www.w3.org/2000/svg" width="110" height="110" viewBox="0 0 110 110"><circle cx="55" cy="55" r="55" fill="#E04F5F"/><path d="M87 85a2 2 0 0 1-2 2H41a2 2 0 0 1-2-2V41a2 2 0 0 1 2-2h44a2 2 0 0 1 2 2v44z" fill="#F0F1F1"/><path fill="#40C9E7" d="M43 43H83V75H43z"/><path d="M71 69a2 2 0 0 1-2 2H25a2 2 0 0 1-2-2V25a2 2 0 0 1 2-2h44a2 2 0 0 1 2 2v44z" fill="#FFFFFF"/><path fill="#40C9E7" d="M27 27H67V59H27z"/><path fill="#6FDAF1" d="M43.979 45.021L62 27 26.962 27 26.962 53.4 35.626 43.003 35.623 43 38.957 39 38.959 39.003 38.962 39z"/><path fill="#84462D" d="M59 31L38 59 67 59 67 42.2z"/><path fill="#F0F1F1" d="M58.98 38.979L61.907 43.077 64.833 39.174 58.98 30.979 53.126 38.784 56.053 43.077z"/><path fill="#D4A263" d="M39 39L27 53.4 27 59 55.667 59z"/><path d="M49.005 33.037a2.001 2.001 0 0 1-2.001 2.001H34.996a2.001 2.001 0 0 1-2.001-2.001c0-1.241 1.166-2.543 3.336-1.769a6.002 6.002 0 0 1 9.34 0c2.179-.778 3.334.539 3.334 1.769z" fill="#FFFFFF"/><path fill="#EDBC7C" d="M44.017 45.021L30.038 59 27 59 27 53.4 35.664 43.003 38.995 47 42.328 43z"/><path fill="#FFFFFF" d="M38.995 47.038L42.328 43.038 38.995 39.038 35.661 43.038z"/></svg>