<svg version="1" xmlns="http://www.w3.org/2000/svg" width="110" height="110" viewBox="0 0 110 110"><circle cx="55" cy="55" r="55" fill="#32BEA6"/><path d="M83 67H43v16a4 4 0 0 1-4 4h44a4 4 0 0 0 4-4V71a4 4 0 0 0-4-4z" fill="#FFFFFF"/><path fill="#F79392" d="M63 71H69V83H63z"/><path fill="#F79392" d="M73 71H79V83H73z"/><path fill="#DF2C2C" d="M43 82.049L43 83 49 83 49 78.844z"/><path fill="#FA5655" d="M53 76.707L53 83 59 83 59 73.502z"/><path d="M83.115 56.011l-5.83-10.489a4 4 0 0 0-5.439-1.553L43 59.377v22.671L81.562 61.45a4 4 0 0 0 1.553-5.439z" fill="#FFFFFF"/><path transform="rotate(60.936 70.583 56.109)" fill="#FBEC9A" d="M64.585 53.111H76.585V59.111H64.585z"/><path transform="rotate(60.936 61.843 60.966)" fill="#FBE158" d="M55.844 57.969H67.844V63.969H55.844z"/><path fill="#FACB1B" d="M45.411 76.967L49.9 74.472 48.379 71.736z"/><path fill="#FACB1B" d="M50.691 67.662L53.396 72.529 58.641 69.614 54.16 61.551z"/><path d="M65.552 33.499l-10.343-6.085a4 4 0 0 0-5.476 1.419L43 40.698v40.517l23.972-42.24a4 4 0 0 0-1.42-5.476z" fill="#FFFFFF"/><path transform="rotate(30.469 54.798 39.934)" fill="#40C9E7" d="M48.803 36.938H60.803V42.938H48.803z"/><path transform="rotate(30.469 49.728 48.552)" fill="#21B2D1" d="M43.733 45.557H55.733V51.557H43.733z"/><path fill="#059BBF" d="M43 52.718L43 59.679 48.312 62.804 51.355 57.633z"/><path fill="#0484AB" d="M43 64.32L43 71.281 43.242 71.423 46.284 66.252z"/><path d="M39 23H27a4 4 0 0 0-4 4v56a4 4 0 0 0 4 4h12a4 4 0 0 0 4-4V27a4 4 0 0 0-4-4zm-6 56a2 2 0 1 1 .001-4.001A2 2 0 0 1 33 79z" fill="#DF2C2C"/><path d="M43 36.355V27a4 4 0 0 0-4-4H27a4 4 0 0 0-4 4v29.355l20-20z" fill="#FA5655"/><path d="M30.644 70.292a.48.48 0 0 1-.488-.488v-1.685c0-1.291.732-2.094 1.842-2.094h.016c1.236 0 1.882.992 1.882 2.205v1.094h1.331c.268 0 .48.213.48.48a.48.48 0 0 1-.48.488h-4.583zm2.378-2.095c0-.732-.409-1.189-.984-1.189h-.016c-.646 0-.984.464-.984 1.189v1.125h1.984v-1.125zm2.016-2.412l-4.567-2.047c-.244-.11-.394-.307-.394-.583v-.047c0-.275.15-.464.394-.575l4.567-2.047a.453.453 0 0 1 .669.402c0 .229-.134.386-.339.473l-1.031.449v2.677l1.063.463a.466.466 0 0 1 .307.449.444.444 0 0 1-.449.449.496.496 0 0 1-.22-.063zm-1.559-3.606l-2.228.969 2.228.968v-1.937zm-2.866-2.799a.485.485 0 0 1-.488-.488v-.102c0-.236.118-.37.283-.504l3.567-2.755H30.59a.474.474 0 0 1-.472-.473c0-.268.213-.48.472-.48h4.63a.47.47 0 0 1 .48.473v.04c0 .228-.118.37-.291.504l-3.669 2.834h3.496a.475.475 0 1 1 0 .952h-4.623zm.441-7.578v1.338a.449.449 0 1 1-.898 0v-3.661c0-.244.205-.441.449-.441.244 0 .449.197.449.441v1.347h4.173c.268 0 .48.22.48.488a.484.484 0 0 1-.48.488h-4.173zm1.873-3.207h-.016c-1.551 0-2.85-1.197-2.85-2.89s1.283-2.874 2.834-2.874h.016c1.551 0 2.85 1.197 2.85 2.89s-1.282 2.874-2.834 2.874zm0-4.748h-.016c-1.071 0-1.961.78-1.961 1.874s.874 1.858 1.945 1.858h.016c1.071 0 1.953-.779 1.953-1.874 0-1.094-.866-1.858-1.937-1.858zm-2.314-2.192a.485.485 0 0 1-.488-.488v-.103c0-.236.118-.37.283-.504l3.567-2.755H30.59a.474.474 0 0 1-.472-.473c0-.268.213-.48.472-.48h4.63a.47.47 0 0 1 .48.473v.04c0 .228-.118.37-.291.504l-3.669 2.834h3.496a.475.475 0 1 1 0 .952h-4.623zm4.566-6.224h-4.535a.48.48 0 0 1-.488-.488v-3.205c0-.236.197-.433.433-.433.244 0 .433.197.433.433v2.724h1.433v-2.37c0-.236.197-.433.441-.433a.43.43 0 0 1 .425.433v2.37h1.48v-2.763c0-.236.197-.433.433-.433.244 0 .433.197.433.433v3.244a.48.48 0 0 1-.488.488z" fill="#FFFFFF"/></svg>