<svg enable-background="new 0 0 110 110" height="110" viewBox="0 0 110 110" width="110" xmlns="http://www.w3.org/2000/svg"><circle cx="55" cy="55" fill="#25b7d3" r="55"/><path d="m83.485 66.502c-3.139-3.139-7.582-4.164-11.583-3.098l-21.735-21.734c1.747-4.929.664-10.637-3.28-14.582-3.947-3.947-9.659-5.029-14.591-3.277l10.348 10.348v5.657l-2.828 2.828h-5.657l-10.348-10.348c-1.751 4.932-.669 10.644 3.277 14.591 3.949 3.949 9.666 5.03 14.6 3.274l21.728 21.728c-1.066 4.002-.041 8.445 3.098 11.584 4.686 4.686 12.284 4.686 16.971 0s4.687-12.284 0-16.971zm-6.619 15.451-6.965-1.866-1.866-6.965 5.099-5.099 6.965 1.866 1.866 6.965z" fill="#e2e4e5"/><path d="m71.902 63.404-21.735-21.734c1.747-4.929.664-10.637-3.28-14.582-3.947-3.947-9.659-5.029-14.591-3.277l10.348 10.348v5.657l-1.355 1.355 29.348 29.348 2.497-2.497 6.965 1.866 1.866 6.965-2.497 2.497 4.067 4.067c4.633-4.69 4.619-12.247-.05-16.916-3.139-3.138-7.582-4.163-11.583-3.097z" fill="#fff"/><path d="m53.788 68.08c.757-.757 1.055-1.864.778-2.899-.268-1.001-.009-2.114.777-2.899l2.828-2.828c.391-.391.391-1.024 0-1.414l-5.657-5.657c-.391-.391-1.024-.391-1.414 0l-2.828 2.828c-.785.785-1.898 1.044-2.899.777-1.036-.277-2.141.02-2.899.778l-18.244 18.244c-3.536 3.536 7.778 14.849 11.314 11.314z" fill="#df2c2c"/><path d="m83.187 24.539-12.021 6.364-.707 4.95-17.237 17.237 4.242 4.243 17.238-17.238 4.879-.636 6.514-12.012z" fill="#e2e4e5"/><path d="m83.187 24.539-12.021 6.364-.707 4.95-17.237 17.237 2.344 2.344 29.258-29.258z" fill="#fff"/><path d="m52.515 52.383c-.391-.391-1.023-.391-1.414 0l-2.829 2.829c-.785.786-1.898 1.044-2.899.776-1.036-.277-2.141.021-2.899.779l-18.244 18.243c-1.814 1.814.284 5.674 3.232 8.527l28.104-28.103z" fill="#fa5655"/></svg>