<svg enable-background="new 0 0 110 110" height="110" viewBox="0 0 110 110" width="110" xmlns="http://www.w3.org/2000/svg"><circle cx="55" cy="55" fill="#25b7d3" r="55"/><path d="m87 87h-64v-.04c0-2.187 1.773-3.96 3.96-3.96h56.08c2.187 0 3.96 1.773 3.96 3.96z" fill="#e2e4e5"/><path d="m27 47h56v36h-56z" fill="#fff"/><path d="m32.143 47c0 2.209-2.047 4-4.571 4s-4.572-1.791-4.572-4z" fill="#df2c2c"/><path d="m41.286 47c0 2.209-2.047 4-4.571 4s-4.571-1.791-4.571-4z" fill="#cfd3d4"/><path d="m50.429 47c0 2.209-2.047 4-4.571 4s-4.571-1.791-4.571-4z" fill="#df2c2c"/><path d="m59.571 47c0 2.209-2.047 4-4.571 4s-4.571-1.791-4.571-4z" fill="#cfd3d4"/><path d="m77.857 47c0 2.209-2.047 4-4.571 4-2.525 0-4.571-1.791-4.571-4z" fill="#cfd3d4"/><path d="m68.714 47c0 2.209-2.047 4-4.571 4-2.525 0-4.571-1.791-4.571-4z" fill="#df2c2c"/><path d="m87 47c0 2.209-2.047 4-4.571 4-2.525 0-4.571-1.791-4.571-4z" fill="#df2c2c"/><path d="m23 47h9.143l8-20h-8z" fill="#fa5655"/><path d="m32.143 47h9.143l5.714-20h-6.857z" fill="#fff"/><path d="m41.286 47h9.143l3.428-20h-6.857z" fill="#fa5655"/><path d="m50.429 47h9.142v-20h-5.714z" fill="#fff"/><path d="m87 47h-9.143l-5.714-20h6.857z" fill="#fa5655"/><path d="m77.857 47h-9.143l-3.428-20h6.857z" fill="#fff"/><path d="m68.714 47h-9.143v-20h5.715z" fill="#fa5655"/><path d="m31 55h28v16h-28z" fill="#6fdaf1"/><g fill="#40c9e7"><path d="m59 71h-28l28-16z"/><path d="m65 55h14v13h-14z"/><path d="m65 71h14v12h-14z"/></g><path d="m57.978 76c.26-3.258-3.405-5.625-7.407-5.625-2.324 0-4.396.764-5.759 1.959-.619-1.182-1.646-1.959-2.812-1.959-1.093 0-2.055.692-2.683 1.75-.775-1.918-2.607-3.268-4.746-3.268-2.5 0-4.58 1.845-5.042 4.288-.358-.31-.784-.493-1.243-.493-1.355 0-2.406 1.54-2.262 3.348z" fill="#0d9681"/><path d="m26 76h32v7h-32z" fill="#9c6144"/><path d="m26 76h32v2h-32z" fill="#af7653"/></svg>