<svg version="1" xmlns="http://www.w3.org/2000/svg" width="110" height="110" viewBox="0 0 110 110"><circle cx="55" cy="55" r="55" fill="#FABC3D"/><path fill="#F0F1F1" d="M87 43L83 43 75 47 75 63 83 67 87 67z"/><path d="M79 31a4 4 0 0 1-4 4H63v-8h12a4 4 0 0 1 4 4z" fill="#3E3E3F"/><path fill="#F0F1F1" d="M36 71H58V75H36z"/><path fill="#3E3E3F" d="M61 87L55 75 39 75 33 87 39 87 44 77 44 87 50 87 50 77 55 87z"/><path d="M31.422 35.211a1.995 1.995 0 0 0-.894-.211H25a2 2 0 0 0-2 2v32a2 2 0 0 0 2 2h40a2 2 0 0 0 2-2v-6h8V47h-8v-6a2 2 0 0 0-2-2H42.07l4-6H63v-4H43.93l-6.232 9.349" fill="#3E3E3F"/><circle cx="59" cy="46" r="2" fill="#F79392"/><path d="M75 27H63v4h16a4 4 0 0 0-4-4z" fill="#5B5C5F"/><path fill="#FFFFFF" d="M75 47L75 55 87 55 87 43 83 43z"/><path fill="#818284" d="M43 62H61V65H43z"/></svg>